<?xml version="1.0" encoding="utf-8"?>
<svg xmlns="http://www.w3.org/2000/svg"
     xmlns:xlink="http://www.w3.org/1999/xlink">
  <symbol viewBox="0 0 512 511" id="004-info" xmlns="http://www.w3.org/2000/svg">
    <path
      d="M452 .5H60C26.914.5 0 27.414 0 60.5v301c0 33.086 26.914 60 60 60h125.25l70.883 90.633 69.715-90.633H452c33.086 0 60-26.914 60-60v-301c0-33.086-26.914-60-60-60zm20 361c0 11.027-8.973 20-20 20H306.152l-50.285 65.367L204.75 381.5H60c-11.027 0-20-8.973-20-20v-301c0-11.027 8.973-20 20-20h392c11.027 0 20 8.973 20 20zm-236.977-249c0-13.809 11.192-25 25-25 13.805 0 25 11.191 25 25s-11.195 25-25 25c-13.808 0-25-11.191-25-25zm52.207 177.363l17.54 35.95-13.59 6.628a48.46 48.46 0 01-21.293 4.938c-10.145 0-20.211-3.195-28.719-9.453-14.578-10.723-21.938-28.496-19.207-46.383.094-.625.219-1.246.375-1.86l15.875-63.148c.328-3.996-1.984-6.351-3.45-7.43-1.546-1.136-4.75-2.757-8.769-.793-13.601 6.637-16.402 8-16.402 8l-17.516-35.96 16.375-7.989c16.27-7.937 35.43-6.203 50.012 4.52 14.578 10.719 21.937 28.492 19.21 46.379a21.455 21.455 0 01-.374 1.86l-15.875 63.148c-.328 3.996 1.984 6.351 3.445 7.43 1.551 1.14 4.75 2.757 8.774.792zm0 0"/>
  </symbol>
  <symbol viewBox="0 0 512 512" id="air-plane" xmlns="http://www.w3.org/2000/svg">
    <path
      d="M368 168h112c13.232 0 24-10.768 24-24V32c0-13.232-10.768-24-24-24H368c-13.232 0-24 10.768-24 24v96h-61.56l-3.2-32h-46.48l-3.2 32H152v20.12l46.656 33.32a74.869 74.869 0 00-21.616 41.752l-147.232-13.92c-5.528-.568-11.144 1.328-15.288 5.096A19.957 19.957 0 008 229.112c0 19.872 14.256 36.504 33.904 39.528l118.52 18.288C163.848 314.544 187.464 336 216 336h80c28.536 0 52.152-21.456 55.576-49.072l118.52-18.288C489.744 265.608 504 248.984 504 229.112c0-5.6-2.376-10.976-6.52-14.744s-9.672-5.656-15.288-5.096l-147.232 13.92a74.919 74.919 0 00-21.616-41.752l34.448-24.6C352.056 163.528 359.496 168 368 168zm40-144h32v32h-32V24zm-48 8c0-4.416 3.592-8 8-8h24v48h64V24h24c4.408 0 8 3.584 8 8v112c0 4.416-3.592 8-8 8H368c-4.408 0-8-3.584-8-8V32zm-95.24 80l4.856 48.544c-2.856-.328-5.752-.544-8.696-.544h-9.832c-2.944 0-5.84.216-8.696.544L247.24 112h17.52zm-90.992 32h54.192l-2.04 20.432a74.555 74.555 0 00-14.08 6.76L173.768 144zM176 280v-6.856L44.336 252.832C32.552 251.008 24 241.04 24 229.112c0-1.512.808-2.472 1.288-2.904s1.512-1.104 3.008-1.008l147.896 13.976c.44 8.16 2.12 16.152 5.176 23.784l12.352 30.864c4.088 10.224 10.512 18.92 18.424 25.784C191.92 317.64 176 300.736 176 280zm307.704-54.808c1.52-.112 2.528.568 3.008 1.008s1.288 1.392 1.288 2.912c0 11.928-8.552 21.896-20.336 23.72L336 273.144V280c0 20.736-15.92 37.64-36.144 39.608 7.912-6.864 14.336-15.552 18.424-25.784l12.352-30.864c3.056-7.632 4.728-15.624 5.176-23.784l147.896-13.984zM320 235.08a58.955 58.955 0 01-4.224 21.944l-12.344 30.864C295.624 307.4 277.008 320 256 320s-39.624-12.6-47.432-32.112l-12.344-30.864A58.955 58.955 0 01192 235.08c0-32.576 26.504-59.08 59.08-59.08h9.832C293.496 176 320 202.504 320 235.08zm-33.92-70.648L284.04 144h54.2l-38.08 27.192a74.555 74.555 0 00-14.08-6.76z"/>
    <path
      d="M456 120h16v16h-16v-16zm-32 0h16v16h-16v-16zm-206.776 88l-10.664 64h98.888l-10.664-64h-77.56zm13.552 16H248v32h-22.552l5.328-32zM264 256v-32h17.224l5.336 32H264zm-160 56c-52.936 0-96 43.064-96 96s43.064 96 96 96 96-43.064 96-96-43.064-96-96-96zm0 176c-7.752 0-15.952-9.048-22.12-24h44.248c-6.176 14.952-14.376 24-22.128 24zm-27.312-40c-2.368-9.496-3.992-20.28-4.504-32h63.632c-.512 11.72-2.136 22.504-4.504 32H76.688zm-52.28-32h31.784c.432 11.448 1.776 22.192 3.912 32h-25.28c-5.576-9.6-9.264-20.424-10.416-32zM104 328c7.752 0 15.952 9.048 22.12 24H81.872c6.176-14.952 14.376-24 22.128-24zm27.312 40c2.368 9.496 3.992 20.28 4.504 32H72.184c.512-11.72 2.136-22.504 4.504-32h54.624zm-75.12 32H24.408c1.152-11.576 4.848-22.4 10.416-32h25.272c-2.128 9.808-3.472 20.552-3.904 32zm95.616 16h31.784c-1.152 11.576-4.848 22.4-10.416 32h-25.272c2.128-9.808 3.472-20.552 3.904-32zm0-16c-.432-11.448-1.776-22.192-3.912-32h25.272c5.576 9.6 9.264 20.424 10.416 32h-31.776zm9.224-48H143.44c-2.264-6.52-4.928-12.4-7.944-17.512 9.64 4.144 18.288 10.136 25.536 17.512zm-88.536-17.512C69.48 339.6 66.824 345.48 64.552 352H46.968c7.248-7.376 15.896-13.368 25.528-17.512zM46.968 464H64.56c2.264 6.52 4.928 12.4 7.944 17.512-9.64-4.144-18.288-10.136-25.536-17.512zm88.536 17.512c3.016-5.12 5.672-10.992 7.944-17.512h17.592c-7.256 7.376-15.904 13.368-25.536 17.512zM216 65.544v35.4L305.888 56 216 11.056v38.248c-61.432 11.144-111.72 43.024-142.04 90.384l13.48 8.624c27.416-42.832 72.848-71.96 128.56-82.768zm16-28.6L270.112 56 232 75.056V36.944zM78.52 163.696l-14.184-7.392a214.448 214.448 0 00-7.776 16.616l14.768 6.16a201.825 201.825 0 017.192-15.384zm-12.872 30.768l-15.224-4.92a214.936 214.936 0 00-4.64 16.624l15.568 3.672a198.022 198.022 0 014.296-15.376zM296 446.456v-35.4L206.112 456 296 500.944v-38.248c61.432-11.144 111.72-43.024 142.04-90.384l-13.48-8.624c-27.416 42.832-72.848 71.96-128.56 82.768zm-16 28.6L241.888 456 280 436.944v38.112zm153.48-126.752l14.184 7.392a214.448 214.448 0 007.776-16.616l-14.768-6.16a201.825 201.825 0 01-7.192 15.384zm12.872-30.768l15.224 4.92a214.936 214.936 0 004.64-16.624l-15.568-3.672a198.022 198.022 0 01-4.296 15.376z"/>
  </symbol>
  <symbol class="acsvg-inline--fa acfa-angle-down acfa-w-10" viewBox="0 0 320 512" id="angle-down"
          xmlns="http://www.w3.org/2000/svg">
    <path
      d="M143 352.3L7 216.3c-9.4-9.4-9.4-24.6 0-33.9l22.6-22.6c9.4-9.4 24.6-9.4 33.9 0l96.4 96.4 96.4-96.4c9.4-9.4 24.6-9.4 33.9 0l22.6 22.6c9.4 9.4 9.4 24.6 0 33.9l-136 136c-9.2 9.4-24.4 9.4-33.8 0z"/>
  </symbol>
  <symbol class="adsvg-inline--fa adfa-angle-up adfa-w-10" viewBox="0 0 320 512" id="angle-up-solid"
          xmlns="http://www.w3.org/2000/svg">
    <path
      d="M177 159.7l136 136c9.4 9.4 9.4 24.6 0 33.9l-22.6 22.6c-9.4 9.4-24.6 9.4-33.9 0L160 255.9l-96.4 96.4c-9.4 9.4-24.6 9.4-33.9 0L7 329.7c-9.4-9.4-9.4-24.6 0-33.9l136-136c9.4-9.5 24.6-9.5 34-.1z"/>
  </symbol>
  <symbol viewBox="0 0 512 512" id="arrow_left" xmlns="http://www.w3.org/2000/svg">
    <path
      d="M432 240H112.808l122.224-116.416c6.4-6.096 6.648-16.224.552-22.624-6.088-6.392-16.216-6.648-22.624-.552L73.376 233.368C67.336 239.416 64 247.448 64 256c0 8.544 3.336 16.584 9.656 22.896l139.312 132.688A15.929 15.929 0 00224 416c4.224 0 8.448-1.664 11.592-4.968 6.096-6.4 5.848-16.52-.552-22.616L112.304 272H432c8.832 0 16-7.168 16-16s-7.168-16-16-16z"/>
  </symbol>
  <symbol viewBox="0 0 512 512" id="arrow_right" xmlns="http://www.w3.org/2000/svg">
    <path
      d="M80 271.996h319.192L276.968 388.412c-6.4 6.096-6.648 16.224-.552 22.624 6.088 6.392 16.216 6.648 22.624.552l139.584-132.96c6.04-6.048 9.376-14.08 9.376-22.632 0-8.544-3.336-16.584-9.656-22.896L299.032 100.412A15.929 15.929 0 00288 95.996a15.958 15.958 0 00-11.592 4.968c-6.096 6.4-5.848 16.52.552 22.616l122.736 116.416H80c-8.832 0-16 7.168-16 16s7.168 16 16 16z"/>
  </symbol>
  <symbol class="agsvg-inline--fa agfa-trash-alt agfa-w-14" viewBox="0 0 448 512" id="bin"
          xmlns="http://www.w3.org/2000/svg">
    <path
      d="M268 416h24a12 12 0 0012-12V188a12 12 0 00-12-12h-24a12 12 0 00-12 12v216a12 12 0 0012 12zM432 80h-82.41l-34-56.7A48 48 0 00274.41 0H173.59a48 48 0 00-41.16 23.3L98.41 80H16A16 16 0 000 96v16a16 16 0 0016 16h16v336a48 48 0 0048 48h288a48 48 0 0048-48V128h16a16 16 0 0016-16V96a16 16 0 00-16-16zM171.84 50.91A6 6 0 01177 48h94a6 6 0 015.15 2.91L293.61 80H154.39zM368 464H80V128h288zm-212-48h24a12 12 0 0012-12V188a12 12 0 00-12-12h-24a12 12 0 00-12 12v216a12 12 0 0012 12z"/>
  </symbol>
  <symbol viewBox="0 0 512 512" id="books" xmlns="http://www.w3.org/2000/svg">
    <path
      d="M471.5 452c0 11.046-8.954 20-20 20h-91c-26.536-1.056-26.516-38.953 0-40h91c11.046 0 20 8.954 20 20zm-40-240V40h-271v312h271v-40c1.056-26.536 38.953-26.516 40 0v60c0 11.046-8.954 20-20 20h-151v100a20 20 0 01-32.101 15.923L230.5 479.121l-37.898 28.803A20 20 0 01160.5 492V392h-60c-11.028 0-20 8.972-20 20s8.972 20 20 20c11.046 0 20 8.954 20 20s-8.954 20-20 20c-33.084 0-60-26.916-60-60V60c0-33.084 26.916-60 60-60h351c11.046 0 20 8.954 20 20v192c-1.056 26.536-38.953 26.516-40 0zm-311-172h-20c-11.028 0-20 8.972-20 20v295.427a59.736 59.736 0 0120-3.427h20zm80 411.68l17.898-13.603a19.999 19.999 0 0124.203 0L260.5 451.68V392h-60zm20-331.68c-26.536 1.056-26.516 38.953 0 40h151c26.536-1.056 26.516-38.953 0-40z"/>
  </symbol>
  <symbol class="aisvg-inline--fa aifa-calendar-alt aifa-w-14" viewBox="0 0 448 512" id="calendar"
          xmlns="http://www.w3.org/2000/svg">
    <path
      d="M148 288h-40c-6.6 0-12-5.4-12-12v-40c0-6.6 5.4-12 12-12h40c6.6 0 12 5.4 12 12v40c0 6.6-5.4 12-12 12zm108-12v-40c0-6.6-5.4-12-12-12h-40c-6.6 0-12 5.4-12 12v40c0 6.6 5.4 12 12 12h40c6.6 0 12-5.4 12-12zm96 0v-40c0-6.6-5.4-12-12-12h-40c-6.6 0-12 5.4-12 12v40c0 6.6 5.4 12 12 12h40c6.6 0 12-5.4 12-12zm-96 96v-40c0-6.6-5.4-12-12-12h-40c-6.6 0-12 5.4-12 12v40c0 6.6 5.4 12 12 12h40c6.6 0 12-5.4 12-12zm-96 0v-40c0-6.6-5.4-12-12-12h-40c-6.6 0-12 5.4-12 12v40c0 6.6 5.4 12 12 12h40c6.6 0 12-5.4 12-12zm192 0v-40c0-6.6-5.4-12-12-12h-40c-6.6 0-12 5.4-12 12v40c0 6.6 5.4 12 12 12h40c6.6 0 12-5.4 12-12zm96-260v352c0 26.5-21.5 48-48 48H48c-26.5 0-48-21.5-48-48V112c0-26.5 21.5-48 48-48h48V12c0-6.6 5.4-12 12-12h40c6.6 0 12 5.4 12 12v52h128V12c0-6.6 5.4-12 12-12h40c6.6 0 12 5.4 12 12v52h48c26.5 0 48 21.5 48 48zm-48 346V160H48v298c0 3.3 2.7 6 6 6h340c3.3 0 6-2.7 6-6z"/>
  </symbol>
  <symbol viewBox="0 0 512 512" id="card" xmlns="http://www.w3.org/2000/svg">
    <path
      d="M498.4 175.7L336.3 13.6C327.5 4.8 315.9 0 303.4 0c-12.4 0-24.1 4.8-32.9 13.6l-257 257C4.8 279.3 0 291 0 303.4s4.8 24.1 13.6 32.9l20 20L168 490.7H89.3c-5.9 0-10.7 4.8-10.7 10.7 0 5.9 4.8 10.7 10.7 10.7h223.3c5.9 0 10.7-4.8 10.7-10.7 0-5.9-4.8-10.7-10.7-10.7h-63.5l58.1-58.1c-.1-.9-.2-1.7-.3-2.6v-1.1c-.4-1.8-.8-3.6-1.3-5.4-.3-1.3-.7-2.6-1-3.9-2-3.4-3-7.4-2.7-11.2 0-.2-.1-.4-.1-.6l-75.6 75.6c-4.7 4.7-11 7.3-17.7 7.3h-.1c-6.7 0-13-2.6-17.7-7.3L56.2 348.7 303 101.9c4.2-4.2 4.2-10.9 0-15.1s-10.9-4.2-15.1 0L41.1 333.7l-12.5-12.5c-4.7-4.7-7.3-11-7.3-17.8 0-6.7 2.6-13.1 7.3-17.8l257-257c4.7-4.7 11-7.3 17.8-7.3 6.7 0 13.1 2.6 17.8 7.3l57.7 57.7-246.8 246.9c-4.2 4.2-4.2 10.9 0 15.1 2.1 2.1 4.8 3.1 7.5 3.1s5.5-1 7.5-3.1L394 101.5l89.3 89.3c9.8 9.8 9.8 25.8 0 35.6l-72.8 72.8c.9.1 1.7.2 2.6.5 7.1 2 14 3.6 20.8 6.3l64.5-64.5c18.1-18.2 18.1-47.7 0-65.8z"/>
    <path
      d="M262.8 308.1c-4.2-4.2-10.9-4.2-15.1 0L163.8 392c-4.2 4.2-4.2 10.9 0 15.1 2.1 2.1 4.8 3.1 7.5 3.1s5.5-1 7.5-3.1l83.9-83.9c4.3-4.2 4.3-11 .1-15.1zm-34.4 79.6L194 422.1c-4.2 4.2-4.2 10.9 0 15.1 2.1 2.1 4.8 3.1 7.5 3.1s5.5-1 7.5-3.1l34.4-34.4c4.2-4.2 4.2-10.9 0-15.1s-10.9-4.1-15 0zm31.7-31.6l-4.5 4.5c-4.2 4.2-4.2 10.9 0 15.1 2.1 2.1 4.8 3.1 7.5 3.1s5.5-1 7.5-3.1l4.5-4.5c4.2-4.2 4.2-10.9 0-15.1-4.1-4.2-10.9-4.2-15 0zm147-192.3c-2-2-4.7-3.1-7.5-3.1s-5.5 1.1-7.5 3.1L346.7 209c-2 2-3.1 4.7-3.1 7.5s1.1 5.5 3.1 7.5l30.2 30.2c2.1 2.1 4.8 3.1 7.5 3.1s5.5-1 7.5-3.1l45.3-45.3c4.2-4.2 4.2-10.9 0-15.1l-30.1-30zm-22.7 67.9l-15.1-15.1 30.2-30.2 15.1 15.1-30.2 30.2zM320.3 80.2c2.7 0 5.5-1 7.5-3.1l4.5-4.5c4.2-4.2 4.2-10.9 0-15.1s-10.9-4.2-15.1 0l-4.5 4.5c-4.2 4.2-4.2 10.9 0 15.1 2.2 2 4.9 3.1 7.6 3.1zM107.2 358.1l-4.5 4.5c-4.2 4.2-4.2 10.9 0 15.1 2.1 2.1 4.8 3.1 7.5 3.1s5.5-1 7.5-3.1l4.5-4.5c4.2-4.2 4.2-10.9 0-15.1-4.1-4.2-10.8-4.2-15 0zm341.3-2.2c-4.9-4.9-11.4-7.6-18.4-7.6s-13.5 2.7-18.4 7.6l-9.5 9.5-9.5-9.5c-4.9-4.9-11.4-7.6-18.4-7.6s-13.5 2.7-18.4 7.6c-10.1 10.1-10.1 26.6 0 36.8l9.5 9.5-9.5 9.5c-10.1 10.1-10.1 26.6 0 36.8 4.9 4.9 11.4 7.6 18.4 7.6s13.5-2.7 18.4-7.6l9.5-9.5 9.5 9.5c4.9 4.9 11.4 7.6 18.4 7.6 6.9 0 13.5-2.7 18.4-7.6 10.1-10.1 10.1-26.6 0-36.8l-9.5-9.5 9.5-9.5c10.2-10.1 10.2-26.6 0-36.8zm-30.7 53.4l16.6 16.6c2.3 2.3 2.3 6.1 0 8.5-1.1 1.1-2.6 1.8-4.2 1.8s-3.1-.6-4.2-1.8l-16.6-16.6c-2-2-4.5-2.9-7.1-2.9s-5.1 1-7.1 2.9l-16.6 16.6c-1.1 1.1-2.6 1.8-4.2 1.8s-3.1-.6-4.2-1.8c-2.3-2.3-2.3-6.1 0-8.5l16.6-16.6c1.9-1.9 2.9-4.4 2.9-7.1s-1.1-5.2-2.9-7.1l-16.6-16.6c-2.3-2.3-2.3-6.1 0-8.5 1.1-1.1 2.6-1.8 4.2-1.8s3.1.6 4.2 1.8l16.6 16.6c3.9 3.9 10.2 3.9 14.1 0l16.6-16.6c1.1-1.1 2.6-1.8 4.2-1.8s3.1.6 4.2 1.8c2.3 2.3 2.3 6.1 0 8.5l-16.6 16.6c-1.9 1.9-2.9 4.4-2.9 7.1s1.1 5.2 3 7.1z"/>
    <path
      d="M402.2 512c-60.5 0-109.8-49.2-109.8-109.8s49.2-109.8 109.8-109.8S512 341.7 512 402.2 462.8 512 402.2 512zm0-200.5c-50 0-90.8 40.7-90.8 90.8s40.7 90.8 90.8 90.8 90.8-40.7 90.8-90.8-40.7-90.8-90.8-90.8z"/>
  </symbol>
  <symbol viewBox="0 -46 417.813 417" id="check" xmlns="http://www.w3.org/2000/svg">
    <path
      d="M159.988 318.582c-3.988 4.012-9.43 6.25-15.082 6.25s-11.094-2.238-15.082-6.25L9.375 198.113c-12.5-12.5-12.5-32.77 0-45.246l15.082-15.086c12.504-12.5 32.75-12.5 45.25 0l75.2 75.203L348.104 9.781c12.504-12.5 32.77-12.5 45.25 0l15.082 15.086c12.5 12.5 12.5 32.766 0 45.246zm0 0"/>
  </symbol>
  <symbol viewBox="0 0 512 512" id="clock" xmlns="http://www.w3.org/2000/svg">
    <path
      d="M256 512C114.8 512 0 397.2 0 256S114.8 0 256 0s256 114.8 256 256-114.8 256-256 256zm0-480C132.5 32 32 132.5 32 256s100.5 224 224 224 224-100.5 224-224S379.5 32 256 32z"/>
    <path
      d="M368 394.7c-4.1 0-8.2-1.6-11.3-4.7l-112-112c-3-3-4.7-7.1-4.7-11.3V117.3c0-8.8 7.2-16 16-16s16 7.2 16 16V260l107.3 107.3c6.3 6.3 6.3 16.4 0 22.6-3.1 3.2-7.2 4.8-11.3 4.8z"/>
  </symbol>
  <symbol class="amsvg-inline--fa amfa-times amfa-w-11" viewBox="0 0 352 512" id="close"
          xmlns="http://www.w3.org/2000/svg">
    <path
      d="M242.72 256l100.07-100.07c12.28-12.28 12.28-32.19 0-44.48l-22.24-22.24c-12.28-12.28-32.19-12.28-44.48 0L176 189.28 75.93 89.21c-12.28-12.28-32.19-12.28-44.48 0L9.21 111.45c-12.28 12.28-12.28 32.19 0 44.48L109.28 256 9.21 356.07c-12.28 12.28-12.28 32.19 0 44.48l22.24 22.24c12.28 12.28 32.2 12.28 44.48 0L176 322.72l100.07 100.07c12.28 12.28 32.2 12.28 44.48 0l22.24-22.24c12.28-12.28 12.28-32.19 0-44.48L242.72 256z"/>
  </symbol>
  <symbol viewBox="0 0 480 480" id="contract" xmlns="http://www.w3.org/2000/svg">
    <path
      d="M479.118 113.822a23.993 23.993 0 00-11.197-14.556 24.001 24.001 0 00-18.235-2.402 24.005 24.005 0 00-14.56 11.197l-3.999 6.96a7.999 7.999 0 00-10.877 2.882l-20.317 34.631-6.96-3.999a8.011 8.011 0 00-6.093-.801 8.023 8.023 0 00-4.866 3.761c-2.168 3.824-.848 8.682 2.96 10.877l6.96 3.999-67.988 117.82-16.798 44.875-7.999 14.954a23.997 23.997 0 001.281 25.917l-17.997 22.074-5.038-12.635a15.992 15.992 0 00-13.584-9.963 15.993 15.993 0 00-14.974 7.721l-2.878 4.878-2.718-31.995a16.004 16.004 0 00-14.025-14.568 16.002 16.002 0 00-17.091 10.811l-19.676 59.029a7.997 7.997 0 005.038 10.08 6.938 6.938 0 002.48.637 7.996 7.996 0 007.6-5.437l19.594-59.029 2.8 32.471a15.999 15.999 0 0029.675 6.881l2.96-4.882 4.96 12.56a15.991 15.991 0 0012.502 9.908 16.007 16.007 0 0014.853-5.831l18.637-23.594c2.062.539 4.187.808 6.319.801a23.996 23.996 0 0020.875-11.842l7.999-13.357 30.475-37.033 68.707-119.261 6.96 3.999a7.995 7.995 0 013.757 4.882 7.98 7.98 0 01-.797 6.077l-31.995 55.432a7.99 7.99 0 002.558 11.275 7.995 7.995 0 0010.959-2.956l31.995-55.432a23.982 23.982 0 002.398-18.235 24.005 24.005 0 00-11.197-14.56l-6.96-3.999 19.997-34.635c2.183-3.8.898-8.651-2.878-10.877l3.999-6.96a23.975 23.975 0 002.399-18.55zm-30.155 2.238a7.998 7.998 0 014.882-3.757 8.394 8.394 0 016.077.801 8.007 8.007 0 013.761 4.878 8.394 8.394 0 01-.801 6.077l-3.999 6.96-13.919-7.999 3.999-6.96zM339.942 339.385l-3.999-2.32-11.838-6.882 11.357-30.393 25.195 14.556-20.715 25.039zm-23.996 23.114a7.995 7.995 0 01-2.398-10.479l3.999-6.956 13.916 7.999-3.999 6.878a7.999 7.999 0 01-5.194 3.816 8.006 8.006 0 01-6.324-1.258zm53.831-61.267l-27.675-15.997 63.989-110.864 27.675 15.997-63.989 110.864zm71.988-124.702l-27.675-15.997 15.997-27.675 27.675 15.997-15.997 27.675zM126.217 358.499l-28.312 28.237-16.958-16.958a8 8 0 00-11.279 0 8 8 0 000 11.358l16.958 16.958a15.99 15.99 0 0011.279 4.64 16.001 16.001 0 0011.357-4.64l28.233-28.315a7.999 7.999 0 00-11.278-11.28z"/>
    <path
      d="M31.995 380.015c0 37.552 30.44 67.988 67.988 67.988s67.988-30.436 67.988-67.988a8 8 0 00-15.998 0c0 28.714-23.277 51.991-51.991 51.991s-51.991-23.277-51.991-51.991 23.277-51.991 51.991-51.991a51.535 51.535 0 0131.194 10.401 7.996 7.996 0 0011.197-1.601 7.996 7.996 0 00-1.597-11.197 67.988 67.988 0 00-108.781 54.388zM287.951 64.069a8 8 0 000-15.998H79.986a8 8 0 00-7.999 7.999v31.995a7.997 7.997 0 007.999 7.999h207.965a8 8 0 000-15.998H87.985V64.069h199.966zm-183.969 47.992a8 8 0 00-7.999 7.999 7.997 7.997 0 007.999 7.999h159.973a8 8 0 000-15.998H103.982zm207.965 55.99h-175.97a8 8 0 00-7.999 7.999 7.997 7.997 0 007.999 7.999h175.97a7.997 7.997 0 007.999-7.999 8 8 0 00-7.999-7.999zm-79.987 55.991a8 8 0 00-7.999-7.999H63.989a8 8 0 00-7.999 7.999 7.997 7.997 0 007.999 7.999h159.973a7.997 7.997 0 007.998-7.999zm79.987-7.999h-55.99a8 8 0 00-7.999 7.999 7.997 7.997 0 007.999 7.999h55.99a7.997 7.997 0 007.999-7.999 8 8 0 00-7.999-7.999zm-167.972 55.991a8 8 0 000-15.998H63.989a8 8 0 00-7.999 7.999 7.997 7.997 0 007.999 7.999h79.986zm31.995 0h55.99a8 8 0 000-15.998h-55.99a8 8 0 000 15.998z"/>
    <path
      d="M359.939 368.017a8 8 0 00-7.999 7.999v79.986a7.997 7.997 0 01-7.999 7.999H23.996a7.997 7.997 0 01-7.999-7.999V24.076a8 8 0 017.999-7.999h319.945a8 8 0 017.999 7.999v150.217a8 8 0 0015.998 0V24.076c0-13.252-10.744-23.996-23.996-23.996H23.996C10.744.08 0 10.824 0 24.076v431.926c0 13.256 10.744 23.996 23.996 23.996h319.945c13.252 0 23.996-10.74 23.996-23.996v-79.986a8 8 0 00-7.998-7.999z"/>
  </symbol>
  <symbol viewBox="-20 0 512 512" id="customer-service" xmlns="http://www.w3.org/2000/svg">
    <path
      d="M470.957 231.953C469.094 103.477 364.543 0 235.5 0 106.492 0 1.906 103.434.043 231.953c-.066 2.2-.016 1.68-.043 78.363 0 30.16 24.535 54.7 54.695 54.7h.008c30.16 0 54.695-24.54 54.695-54.7v-76.68c0-30.16-24.535-54.695-54.703-54.695-2.187 0-4.343.145-6.468.395C72.407 98.828 147.203 40 235.5 40c88.293 0 163.094 58.828 187.273 139.336a55.39 55.39 0 00-6.476-.395c-30.156 0-54.695 24.536-54.695 54.696v76.68c0 30.16 24.539 54.699 54.695 54.699h.008c.53 0 1.054-.028 1.582-.043-19.973 39.105-60.664 65.945-107.508 65.945h-17.176c-8.305-23.887-31.023-41.082-57.703-41.082-33.68 0-61.082 27.398-61.082 61.082 0 33.68 27.402 61.082 61.082 61.082 26.68 0 49.398-17.195 57.703-41.082h17.176C398.945 470.918 471 398.875 471 310.32v-76.684c0-.566-.027-1.12-.043-1.683zM54.703 218.941c8.106 0 14.695 6.59 14.695 14.696v76.68c0 8.105-6.59 14.695-14.695 14.695h-.008c-8.101 0-14.695-6.59-14.695-14.696.016-50.789-.035-71.882.031-77.293.324-7.816 6.766-14.082 14.672-14.082zM235.5 472c-11.625 0-21.082-9.457-21.082-21.082s9.457-21.082 21.082-21.082 21.082 9.457 21.082 21.082S247.125 472 235.5 472zM431 310.316c0 8.106-6.594 14.696-14.695 14.696h-.008c-8.102 0-14.695-6.59-14.695-14.696v-76.68c0-8.105 6.593-14.695 14.703-14.695 7.898 0 14.34 6.266 14.664 14.082.058 4.797.008-1.03.031 77.293zm0 0"/>
  </symbol>
  <symbol viewBox="0 0 512 512" id="delivery-truck" xmlns="http://www.w3.org/2000/svg">
    <path
      d="M509.5 256.4l-59.4-67.8c-1.9-2.2-4.7-3.5-7.7-3.5H393v-41.9c0-5.6-4.6-10.2-10.2-10.2H172.1c-5.6 0-10.2 4.6-10.2 10.2V157H63.8c-5.6 0-10.2 4.6-10.2 10.2s4.6 10.2 10.2 10.2h98.1v132.2h-59c-5.6 0-10.2 4.6-10.2 10.2s4.6 10.2 10.2 10.2h59v10.4c0 5.6 4.6 10.2 10.2 10.2h21.3c4.5 16.3 19.5 28.4 37.2 28.4s32.7-12 37.2-28.4h136.1c4.5 16.3 19.5 28.4 37.2 28.4 17.7 0 32.7-12 37.2-28.4h23.5c5.6 0 10.2-4.6 10.2-10.2v-77.3c0-2.5-.9-4.8-2.5-6.7zM230.6 358.6c-10 0-18.2-8.2-18.2-18.2s8.2-18.2 18.2-18.2 18.2 8.2 18.2 18.2-8.2 18.2-18.2 18.2zm37.2-28.4c-4.5-16.3-19.5-28.4-37.2-28.4s-32.7 12-37.2 28.4h-11.1V153.4h190.2v176.7H267.8zm173.3 28.4c-10 0-18.2-8.2-18.2-18.2s8.2-18.2 18.2-18.2 18.2 8.2 18.2 18.2-8.2 18.2-18.2 18.2zm50.5-28.4h-13.3c-4.5-16.3-19.5-28.4-37.2-28.4-17.7 0-32.7 12-37.2 28.4H393V205.5h44.8l53.8 61.4v63.3zM69.3 309.6h-5.4c-5.6 0-10.2 4.6-10.2 10.2S58.2 330 63.8 330h5.4c5.6 0 10.2-4.6 10.2-10.2s-4.5-10.2-10.1-10.2z"/>
    <path
      d="M119.5 232.3H10.2c-5.6 0-10.2 4.6-10.2 10.2s4.6 10.2 10.2 10.2h109.3c5.6 0 10.2-4.6 10.2-10.2s-4.6-10.2-10.2-10.2z"/>
  </symbol>
  <symbol viewBox="0 0 512 512" id="discount" xmlns="http://www.w3.org/2000/svg">
    <path
      d="M510.5 351.1c-4.5-14-20-26.5-43.7-20.5h-.2L368 357.2c-3.6-15.5-18.4-26.2-34.6-24.1-5.7.7-25 3.5-45.4 6.4-19.5 2.8-39.7 5.6-45.2 6.3-12.2 1.5-28.5.2-45.7-1.1-6.1-.5-12.3-1-18.8-1.4-5.5-.4-10.3 3.8-10.6 9.4s3.8 10.3 9.4 10.6c6.3.4 12.5.9 18.5 1.4 18.2 1.4 35.5 2.8 49.7 1 5.7-.7 25.1-3.5 45.6-6.4 19.4-2.8 39.6-5.6 45.1-6.3 6.3-.8 12.1 3.7 12.8 9.9.2 2 .9 7.2-12.9 13.6-28.4 13-58.8 24.2-83.2 30.6-5.3 1.4-8.5 6.9-7.1 12.2 1.4 5.3 6.9 8.5 12.2 7.1 25.5-6.7 57-18.3 86.4-31.8 10.2-4.7 16.5-10.2 20.1-15.7l107.6-29c11.9-2.9 17.9 1.8 19.7 7.2 1.7 5.2-.4 12-8.8 15.2-8.4 3.2-28.4 11.9-53.8 22.9-33.6 14.6-75.5 32.8-108.9 46.2-41.1 16.5-52.7 18.7-96.2 18.2l-68.5-.8h-.1c-3.7 0-7.2 2.1-8.9 5.4l-9.4 18.3c-.3.6-.6 1.3-.8 2-1.4 5.2-3.1 7.3-10.4 7.3H25.2c-1.1 0-2.3-.7-3.2-1.9-.8-1-2.6-3.8-1.6-8.5 12-57.5 35.8-93.1 72.6-108.9 5.1-2.2 7.4-8.1 5.2-13.1-2.2-5.1-8.1-7.4-13.1-5.2C41.9 372.7 14.3 413 .9 477.3c-1.9 9.2.2 18.4 5.7 25.2 4.8 5.9 11.6 9.2 18.8 9.2H126c15.1 0 25.3-7.3 29.4-21.1l6.1-11.9 62.3.7c45.9.5 60.5-2.2 103.9-19.6 33.7-13.5 75.7-31.8 109.4-46.5 24.2-10.5 45-19.6 52.9-22.5h.1c19.3-7.3 24.9-25.6 20.4-39.7zM216 122.8c16.5 0 30-13.5 30-30s-13.5-30-30-30-30 13.5-30 30 13.5 30 30 30zm0-40c5.5 0 10 4.5 10 10s-4.5 10-10 10-10-4.5-10-10 4.5-10 10-10zm50 90c0 16.5 13.5 30 30 30s30-13.5 30-30-13.5-30-30-30-30 13.5-30 30zm40 0c0 5.5-4.5 10-10 10s-10-4.5-10-10 4.5-10 10-10 10 4.5 10 10zm-89.6 28.7c1.6.9 3.3 1.3 5 1.3 3.5 0 6.8-1.8 8.7-5l69.3-120c2.8-4.8 1.1-10.9-3.7-13.7-4.8-2.8-10.9-1.1-13.7 3.7l-69.3 120c-2.8 4.8-1.1 10.9 3.7 13.7z"/>
    <path
      d="M120.4 198.3l120.1 121c4.1 4.2 9.6 6.4 15.5 6.5h.1c5.8 0 11.3-2.3 15.5-6.4l121-121.9c8.5-8.6 8.5-22.5-.1-31-4.2-4.1-9.6-6.4-15.5-6.4h-11V30c0-16.5-13.5-30-30-30H176c-16.5 0-30 13.5-30 30v130h-10.9c-12.1 0-22 9.8-22 22 .1 6.2 2.7 12.1 7.3 16.3zm14.7-18.3H156c5.5 0 10-4.5 10-10V30c0-5.5 4.5-10 10-10h160c5.5 0 10 4.5 10 10v140c0 5.5 4.5 10 10 10h20.9c.3 0 .8.1 1.4.6.8.7.8 2 0 2.7L257.4 305.1c-.5.5-1 .6-1.4.6-.4 0-.9-.1-1.3-.6L134.4 183.9c-.2-.2-.4-.4-.6-.5-.3-.2-.7-.7-.7-1.5.1-1 .9-1.9 2-1.9zm-2.4 163.2c-5.5 0-10 4.5-10 10s4.5 10 10 10 10-4.5 10-10-4.5-10-10-10z"/>
  </symbol>
  <symbol viewBox="0 0 512 512" id="download" xmlns="http://www.w3.org/2000/svg">
    <defs>
      <path id="ara" d="M0 0h512v512H0z"/>
    </defs>
    <clipPath id="arb">
      <use xlink:href="#ara" overflow="visible"/>
    </clipPath>
    <path clip-path="url(#arb)"
          d="M256 285c11.046 0 20-8.953 20-20V20c0-11.045-8.954-20-20-20s-20 8.955-20 20v245c0 11.047 8.954 20 20 20"/>
    <path clip-path="url(#arb)"
          d="M212.472 367.324l.101.103c11.701 11.701 27.069 17.548 42.437 17.548 15.356 0 30.71-5.841 42.388-17.521l110.716-110.283c7.826-7.796 7.851-20.459.056-28.284-7.795-7.826-20.458-7.852-28.284-.057L269.141 339.142A19.864 19.864 0 01255 345a19.869 19.869 0 01-14.102-5.817L132.243 228.959c-7.754-7.867-20.418-7.957-28.284-.203s-7.957 20.417-.203 28.284l108.716 110.284zM492 412c-11.046 0-20 8.954-20 20 0 22.057-17.944 40-40 40H80c-22.056 0-40-17.943-40-40 0-11.046-8.954-20-20-20s-20 8.954-20 20c0 44.112 35.888 80 80 80h352c44.112 0 80-35.888 80-80 0-11.047-8.954-20-20-20"/>
  </symbol>
  <symbol viewBox="0 0 483.3 483.3" id="envelope" xmlns="http://www.w3.org/2000/svg">
    <path
      d="M424.3 57.8H59.1C26.5 57.8 0 84.3 0 116.8v249.6c0 32.6 26.5 59.1 59.1 59.1h365.1c32.6 0 59.1-26.5 59.1-59.1V117c.1-32.7-26.4-59.2-59-59.2zm32.1 308.7c0 17.7-14.4 32.1-32.1 32.1H59.1c-17.7 0-32.1-14.4-32.1-32.1V117c0-17.7 14.4-32.1 32.1-32.1h365.1c17.7 0 32.1 14.4 32.1 32.1l.1 249.5z"/>
    <path
      d="M304.8 238.6l118.2-106c5.5-5 6-13.5 1-19.1-5-5.5-13.5-6-19.1-1l-163 146.3-31.8-28.4c-.1-.1-.2-.2-.2-.3-.7-.7-1.4-1.3-2.2-1.9L78.3 112.3c-5.6-5-14.1-4.5-19.1 1.1s-4.5 14.1 1.1 19.1l119.6 106.9L60.8 351c-5.4 5.1-5.7 13.6-.6 19.1 2.7 2.8 6.3 4.3 9.9 4.3 3.3 0 6.6-1.2 9.2-3.6l120.9-113.1L233 287c2.6 2.3 5.8 3.4 9 3.4s6.5-1.2 9-3.5l33.7-30.2 120.2 114.2c2.6 2.5 6 3.7 9.3 3.7 3.6 0 7.1-1.4 9.8-4.2 5.1-5.4 4.9-14-.5-19.1L304.8 238.6z"/>
  </symbol>
  <symbol class="atsvg-inline--fa atfa-facebook-f atfa-w-10" viewBox="0 0 320 512" id="facebook"
          xmlns="http://www.w3.org/2000/svg">
    <path
      d="M279.14 288l14.22-92.66h-88.91v-60.13c0-25.35 12.42-50.06 52.24-50.06h40.42V6.26S260.43 0 225.36 0c-73.22 0-121.08 44.38-121.08 124.72v70.62H22.89V288h81.39v224h100.17V288z"/>
  </symbol>
  <symbol viewBox="0 0 512 512" id="family" xmlns="http://www.w3.org/2000/svg">
    <path
      d="M113.8 247c-2.6 0-5.2 1-7.2 3.1-3.8 4-3.7 10.3.2 14.1 13.1 12.6 34.4 12.6 47.4 0 4-3.8 4.1-10.2.2-14.1s-10.2-4.1-14.1-.2c-5.4 5.2-14.2 5.2-19.6 0-1.9-2-4.4-2.9-6.9-2.9z"/>
    <path
      d="M511.7 301.4c1.3-5.1-1.6-10.3-6.6-11.9-23.7-7.8-51.9-25.5-51.9-65.1v-21c0-32.3-7.4-57.7-22-75.2-14.1-17-34.7-26-59.5-26-23.7 0-43.9 9-58.4 25.9-15.1 17.7-23.1 43.8-23.1 75.3v21c0 21.9-8.6 39.4-25.6 51.9-4.1-.8-8.2-1.2-12.5-1.2-27.4 0-50.8 17.3-59.9 41.4-2.7-.8-16.7-4.5-20.8-5.7v-6.7c26.7-14.5 44.9-42.9 44.9-75.4V189c0-47.3-38.4-85.7-85.7-85.7-47.3 0-85.7 38.5-85.7 85.7v39.7c0 32.5 18.2 60.8 44.9 75.3v6.7c-4.1 1.2-8.4 2.4-12.9 3.6C43 323.5.8 334.8 0 386.5v87.6c0 5.5 4.5 10 10 10h135.2v14.3c0 5.5 4.5 10 10 10h51.9c5.5 0 10-4.5 10-10s-4.5-10-10-10h-41.9v-6c.1-7.3 1.1-13.3 2.8-18.3 6.3-18 22.6-22.8 44.7-29.4 1-.3 2.1-.6 3.1-.9 5.3 14.4 19.1 24.7 35.3 24.7 17.6 0 31.7-10 37-24.7 1 .3 2.1.6 3.1.9 28.3 8.4 47 13.9 47.6 47.7v6h-42c-5.5 0-10 4.5-10 10s4.5 10 10 10h52c5.5 0 10-4.5 10-10v-14.3h133.4c5.5 0 10-4.5 10-10v-87.7c-.3-20.9-7.5-35.3-18.1-45.5 14.5-6.6 22.4-18.7 27.6-39.5zm-140-179.2c18.9 0 33.7 6.3 44.1 18.8 10.4 12.5 16.2 30.8 17.2 54.5-18.5 3.2-40.3.6-52.4-23.2-3.6-7.2-14.2-7.2-17.8 0-12 23.8-33.8 26.4-52.4 23.2 2.4-46.1 24.9-73.3 61.3-73.3zm-61.5 93.4c4.3.6 8.4.9 12.4.9 20.2 0 37.1-7.4 49.1-21.7 12 14.2 28.9 21.7 49.1 21.7 4 0 8.2-.3 12.4-.9v8.8c0 33.9-27.6 61.5-61.5 61.5s-61.5-27.6-61.5-61.5v-8.8zm82.4 87.6v14.9c0 11.5-9.3 20.8-20.8 20.8s-20.8-9.3-20.8-20.8v-14.9c6.6 1.8 13.6 2.7 20.8 2.7 7.1 0 14.1-.9 20.8-2.7zm-91.8-38.7c7.2 12.6 17.6 23.1 30.1 30.4v15.9c-4.2 1.2-8.5 2.4-12.9 3.6-2.1.6-4.1 1.1-6.2 1.7-5.1-13.1-14.3-24.1-26.1-31.4 6.2-6.1 11.2-12.8 15.1-20.2zm-89.5 58c6.6-16.1 22.4-27.5 40.8-27.5 21.4 0 39.2 15.4 43.2 35.7-13.3-6.4-28.2-9.8-43.2-9.8-15 0-29.9 3.4-43.2 9.8.5-2.8 1.3-5.6 2.4-8.2zM64.8 189c0-36.3 29.5-65.7 65.7-65.7s65.7 29.5 65.7 65.7v10.3c-26.3.9-59.4-2.2-83.8-19-4.4-3-10.4-2-13.6 2.2-8.5 11.1-19.1 13.9-34 15.6V189zm0 39.8v-10.4c16.1-1.8 31.2-4.7 43.8-16.8 27.4 15.5 60.8 18.6 87.6 17.8v9.4c0 36.2-29.5 65.7-65.7 65.7S64.8 265 64.8 228.8zm86.6 83.1v6.2c0 11.5-9.3 20.8-20.8 20.8s-20.8-9.3-20.8-20.8v-6.3c6.7 1.7 13.7 2.6 20.8 2.6 7.2.1 14.1-.8 20.8-2.5zm62.3 101.8c-2.2.7-4.4 1.3-6.5 2-24.7 7.3-52.2 15.4-59.9 48.5H73.5v-40.5c0-5.5-4.5-10-10-10s-10 4.5-10 10v40.5H20v-77.4c.6-34.1 23.9-42.8 62.1-53.1 3.2-.9 6.5-1.8 9.7-2.7 5.4 16.2 20.7 28 38.8 28 18 0 33.3-11.7 38.7-28 3.3.9 15.9 4.4 18.8 5.2-.1 1-.1 1.9-.1 2.9v14.1c0 20.9 10.1 39.5 25.6 51.2l.1 9.3zm56.7 7.3c0 12.1-9.9 17.6-19.2 17.6-9.7 0-17.6-7.9-17.6-17.6v-6.5c2.4.7 4.9 1.3 7.5 1.8 3.6.6 7.2.9 10.9.9 3.1 0 6.1-.2 9.1-.6 3.2-.4 6.3-1.1 9.3-2v6.4zm5.4-30.8c-13.4 9-33.6 9.4-47.1.2-12.1-7.6-20.3-21-20.6-36.3 26.2-17.4 61.7-17.4 87.9 0-.3 15.2-8.3 28.5-20.2 36.1zm206.5 73.9h-33.5v-40.5c0-5.5-4.5-10-10-10s-10 4.5-10 10v40.5h-72c-7.7-33.1-35.2-41.3-59.8-48.5-2.2-.6-4.4-1.3-6.5-2v-9.3c15.5-11.7 25.6-30.3 25.6-51.2v-14c0-1.2 0-2.4-.1-3.6 2.4-.7 4.8-1.3 7.2-2 3.2-.9 6.5-1.8 9.8-2.7 5.4 16.2 20.7 28 38.7 28 18 0 33.4-11.7 38.8-28 3.3.9 6.5 1.8 9.7 2.7 38.2 10.3 61.5 19 62.1 53.1v77.5zm-19.7-137.4c-11.9-5.6-25.1-9.1-37.2-12.4-4.4-1.2-8.7-2.4-12.9-3.6v-15.9c12.5-7.3 22.9-17.7 30-30.3 11.4 21.5 31 33.8 47.3 40.5-4.8 14-11.5 19-27.2 21.7z"/>
    <path
      d="M249.7 130.4c1.9 1.9 4.4 2.8 6.9 2.8s5-.9 6.9-2.8l52.9-51.1c17.5-16.9 18-44.8 1.1-62.3-8.1-8.4-19.1-13.2-30.9-13.4-11.2-.2-21.8 3.7-30.1 11.1-8.3-7.4-18.9-11.3-30.1-11.1-11.8.2-22.8 5-30.9 13.4-16.8 17.5-16.3 45.4 1.1 62.3l53.1 51.1zm-39.6-99.5c4.4-4.6 10.4-7.2 16.9-7.3h.4c6.3 0 12.2 2.4 16.7 6.7l5.6 5.4c3.9 3.7 10 3.7 13.9 0l5.6-5.4c4.6-4.4 10.7-6.8 17.1-6.7 6.5.1 12.5 2.7 16.9 7.3 9.2 9.5 8.9 24.8-.6 34l-46 44.4-46-44.4c-9.4-9.2-9.7-24.5-.5-34zM252 488.4c-5.5 0-10 4.5-10 10s4.5 10 10 10h.1c5.5 0 10-4.5 10-10s-4.6-10-10.1-10z"/>
  </symbol>
  <symbol viewBox="0 0 512.5 512.5" id="form_call" xmlns="http://www.w3.org/2000/svg">
    <path
      d="M505.8 376.2c-2.5-4.7-5.7-9.5-9.4-14.2-8.6-10.8-20.2-21.8-34.3-32.9-9.8-7.8-20.2-15.1-30.7-22-6.3-4.1-11.2-7.1-14.1-8.8-24.7-14.1-53.3-12.2-68 11.5-.7.8-1.6 1.8-2.6 3-2.8 3.3-5.6 6.5-8.3 9.5-.6.7-.6.7-1.2 1.3-4.4 5-8.5 9.2-8.3 9.1-16.3 11-26.9 10.2-41.3-4.2L184 224.7c-14.4-14.4-15.2-25-4.2-41.3-.1.2 4.1-3.9 9.1-8.3.6-.6.6-.6 1.3-1.2 3-2.7 6.3-5.5 9.5-8.3 1.2-1 2.2-1.9 3-2.6 23.7-14.7 25.6-43.2 11.6-67.8-1.9-3.2-4.9-8.1-9-14.4-6.8-10.4-14.2-20.8-22-30.7-11.1-14.1-22.1-25.7-32.9-34.3-4.8-3.8-9.5-6.9-14.2-9.4-22-11.5-49.1-7.4-66.8 10.2l-22.9 23c-76.1 76.1-55.1 166.7 35.8 257.7l66.4 66.5 61.6 61.6-17.9 26.9-24.9-37.4c-8.4-12.7-27.1-12.7-35.5 0l-24.9 37.4-24.9-37.4c-8.4-12.7-27.1-12.7-35.5 0L4 478.8c-6.5 9.8-3.9 23 5.9 29.6s23 3.9 29.6-5.9l24.9-37.4 24.9 37.4c8.4 12.7 27.1 12.7 35.5 0l24.9-37.4 24.9 37.4c8.4 12.7 27.1 12.7 35.5 0l31.8-47.6c81.8 69.4 162.3 79.7 230.9 11.1l22.9-22.9c17.8-17.7 21.8-44.8 10.1-66.9zm-40.2 36.6l-22.9 23c-55.7 55.7-121 40.6-197.3-35.8l-66.5-66.4-66.4-66.4C36.1 190.7 21 125.4 76.7 69.8l22.9-22.9c4.4-4.4 11.2-5.4 16.7-2.5 2.3 1.2 4.9 2.9 7.7 5.2 7.8 6.2 16.7 15.6 25.9 27.3 6.9 8.7 13.6 18.1 19.7 27.6 3.7 5.6 6.4 10 7.7 12.3 3.8 6.8 3.6 9.7 2.5 10.4l-3.2 2.2c-.9.8-2.6 2.1-4.6 3.9-3.4 2.9-6.9 5.9-10.1 8.8-.7.6-.7.6-1.4 1.3-8.4 7.5-13.2 12.1-16 16.3-22.4 33.1-19.6 66.4 9.4 95.4l103.8 103.8c29 29 62.3 31.7 95.4 9.4 4.1-2.8 8.8-7.6 16.3-16 .6-.7.6-.7 1.3-1.4 2.9-3.2 5.8-6.7 8.8-10.1 1.8-2.1 3.1-3.7 3.9-4.6l2.2-3.2c.6-1.1 3.6-1.4 10.6 2.6 2.1 1.3 6.5 3.9 12.1 7.6 9.4 6.2 18.8 12.8 27.6 19.7 11.7 9.2 21.1 18.1 27.3 25.9 2.2 2.8 4 5.4 5.2 7.7 2.7 5.2 1.6 11.9-2.8 16.3z"/>
  </symbol>
  <symbol viewBox="0 0 501.3 501.3" id="form_envelop" xmlns="http://www.w3.org/2000/svg">
    <path
      d="M455.5 49.6H45.9C20.3 49.6 0 69.9 0 95.5v310.4c0 25.6 20.3 45.9 45.9 45.9h409.6c25.6 0 45.9-21.3 45.9-45.9V95.5c-.1-25.6-20.3-45.9-45.9-45.9zm-24.6 41.6L250.7 252.3 71.5 91.2h359.4zm28.8 314.7c0 2.1-2.1 4.3-4.3 4.3H45.9c-2.1 0-4.3-2.1-4.3-4.3V122.1L236.8 296c4.3 3.2 8.5 5.3 13.9 5.3 5.3 0 9.6-2.1 13.9-5.3l195.2-173.9-.1 283.8z"/>
  </symbol>
  <symbol viewBox="0 0 512 512" id="form_pin" xmlns="http://www.w3.org/2000/svg">
    <path
      d="M256 110.1c-52.4 0-95.1 42.6-95.1 95.1s42.6 95.1 95.1 95.1 95.1-42.6 95.1-95.1-42.7-95.1-95.1-95.1zm0 150c-30.3 0-55-24.7-55-55s24.7-55 55-55 55 24.7 55 55-24.7 55-55 55z"/>
    <path
      d="M256 0C142.9 0 50.9 92 50.9 205.1v5.7c0 57.2 32.8 123.9 97.5 198.1 46.9 53.8 93.1 91.4 95.1 92.9L256 512l12.6-10.2c1.9-1.6 48.2-39.1 95.1-92.9 64.7-74.3 97.5-140.9 97.5-198.1v-5.7C461.1 92 369.1 0 256 0zm165.1 210.8c0 96.7-124.6 213.7-165.1 249.2-40.6-35.5-165.1-152.6-165.1-249.2v-5.7C90.9 114.1 165 40 256 40s165.1 74.1 165.1 165.1v5.7z"/>
  </symbol>
  <symbol viewBox="0 0 486.7 486.7" id="form_user" xmlns="http://www.w3.org/2000/svg">
    <path
      d="M243.5 304c84.3 0 152.5-67.2 152.5-151.5S327.8 0 243.5 0 91 67.2 91 151.5 159.3 304 243.5 304zm0-263.5c52.8 0 97 35.7 108.9 84.6 3.6 18.1 5.1 36.6-1.6 58.8-13.9 46-56.6 79.5-107.2 79.5-61.9 0-112-49.1-112-110.9s50.1-112 111.9-112zm239 412.8c-46.9-59.7-117.3-93.9-194.1-93.9h-89.6c-76.8 0-147.2 34.1-194.1 93.9-7.5 9.6-5.3 22.4 3.2 28.8 9.6 7.5 22.4 5.3 28.8-3.2 38.4-49.1 98.1-77.9 162.1-77.9h89.5c64 0 122.7 27.7 162.1 77.9 12.4 12.5 24.5 6.4 28.8 3.2 8.6-7.5 9.7-20.3 3.3-28.8z"/>
  </symbol>
  <symbol viewBox="0 0 511 511" id="head_call" xmlns="http://www.w3.org/2000/svg">
    <path
      d="M340.33 187.637a19.899 19.899 0 01-14.078-5.813c-7.813-7.774-7.848-20.413-.07-28.226L427.718 51.536c7.778-7.817 20.413-7.844 28.23-.07s7.848 20.413.074 28.226l-101.54 102.062a19.913 19.913 0 01-14.152 5.883zm47.922 52.218l111.781-48.904c10.097-4.417 14.706-16.187 10.285-26.288-4.417-10.097-16.183-14.702-26.288-10.285l-111.777 48.904c-10.101 4.417-14.706 16.187-10.288 26.288 3.279 7.493 10.608 11.965 18.3 11.965 2.669 0 5.383-.542 7.987-1.68zM300.65 135.937L349.554 27.15c4.518-10.055.031-21.867-10.023-26.39-10.051-4.519-21.867-.031-26.39 10.023l-48.9 108.787c-4.522 10.055-.035 21.867 10.019 26.39a19.91 19.91 0 008.172 1.758c7.618.001 14.892-4.381 18.218-11.781zm190.658 329.64c.257-.257.511-.519.752-.791l.503-.561c13.212-14.717 20.093-33.707 19.38-53.473-.71-19.766-8.943-38.21-23.181-51.941-27.875-26.881-51.232-42.398-73.501-48.83-30.694-8.873-59.115-.803-84.475 23.969-.039.035-.078.074-.117.113l-26.986 26.784c-16.862-9.505-49.661-30.382-85.091-65.813l-2.628-2.628c-35.438-35.438-56.316-68.238-65.813-85.084l26.787-26.99c.039-.039.074-.078.113-.113 24.772-25.364 32.838-53.789 23.969-84.475-6.433-22.269-21.949-45.626-48.834-73.501C138.46 8.004 120.015-.23 100.249-.943c-19.766-.71-38.756 6.167-53.477 19.383l-.573.515c-.265.238-.526.483-.78.737C16.121 48.994.76 90.015 1.002 138.319c.409 82.062 45.509 175.906 120.643 251.036 14.168 14.168 30.269 28.191 47.856 41.672 8.749 6.706 21.279 5.057 27.984-3.696 6.71-8.749 5.057-21.275-3.696-27.984-16.199-12.425-30.978-25.283-43.914-38.218C82.011 293.266 41.279 209.898 40.924 138.12c-.187-37.205 11.002-68.253 32.366-89.836l.152-.136c14.507-13.025 36.472-12.234 50.012 1.801 51.684 53.606 47.934 78.904 25.088 102.323l-36.99 37.267a19.963 19.963 0 00-4.066 22.183c.936 2.109 23.661 52.323 80.257 108.92l2.624 2.624c56.588 56.588 106.803 79.31 108.912 80.249a19.962 19.962 0 0022.183-4.066l37.275-36.994c23.419-22.842 48.721-26.589 102.319 25.092 14.031 13.536 14.823 35.501 1.793 50.023l-.133.148c-21.411 21.185-52.128 32.362-88.924 32.362-.304 0-.608 0-.912-.004-29.411-.144-63.473-8.21-98.495-23.314-10.121-4.366-21.867.3-26.234 10.421-4.366 10.125.3 21.867 10.421 26.234 40.483 17.462 78.877 26.405 114.109 26.581.374.004.745.004 1.119.004 47.82 0 88.436-15.349 117.508-44.425z"/>
  </symbol>
  <symbol viewBox="0 0 512 512" id="head_discount" xmlns="http://www.w3.org/2000/svg">
    <path
      d="M292 380c0-16.569 13.431-30 30-30s30 13.431 30 30-13.431 30-30 30-30-13.431-30-30zm116.655-225.645C390.969 129.396 377 109.681 377 86c0-11.046-9.954-20-21-20-4.625 0-10.106 1.603-13.683 4.536-5.252 4.307-28.025 25.979-52.085 58.2C271.802 102.931 264 69.54 264 20c0-11.046-10.954-20-22-20-3.785 0-9.412 1.074-12.611 3.098-19.628 12.416-63.227 46.413-102.132 95.075-23.307 29.152-41.796 59.594-54.955 90.479C56.176 226.503 48 265.213 48 303.708 48 418.561 141.309 512 256 512c52.621 0 100.471-18.027 138.377-52.132 8.211-7.388 8.879-20.033 1.491-28.245-7.387-8.211-20.034-8.878-28.245-1.491C337.18 457.522 298.582 472 256 472c-92.636 0-168-75.496-168-168.292 0-61.296 23.719-122.044 70.5-180.557 22.917-28.665 47.736-51.835 66.883-67.478 3.625 41.577 15.836 84.718 52.852 119.836a20.002 20.002 0 0030.469-3.51c12.313-18.699 25.299-34.782 35.988-46.882 7.369 18.552 19.143 35.169 31.326 52.363 22.907 32.328 46.62 68.334 47.971 123.179.006.084.011.188.012.34.097 15.529-2.849 34.063-7.24 49.54-3.016 10.626 3.154 21.685 13.78 24.7s21.685-3.154 24.7-13.78C460.121 344.262 464 321 464 303c0-70.537-30.687-113.846-55.345-148.645zM177.272 405.428A19.923 19.923 0 00189.989 410c5.764 0 11.484-2.479 15.439-7.273l132-160c7.029-8.52 5.82-21.125-2.7-28.155-8.52-7.028-21.125-5.82-28.155 2.7l-132 160c-7.03 8.52-5.821 21.126 2.699 28.156zM220 240c0-16.569-13.431-30-30-30s-30 13.431-30 30 13.431 30 30 30 30-13.431 30-30z"/>
  </symbol>
  <symbol viewBox="0 0 512.001 512.001" id="head_question" xmlns="http://www.w3.org/2000/svg">
    <path
      d="M252.692 139.985c-47.057 0-68.668 27.89-68.668 46.715 0 13.597 11.502 19.872 20.914 19.872 18.822 0 11.154-26.844 46.708-26.844 17.429 0 31.372 7.671 31.372 23.707 0 18.826-19.52 29.633-31.023 39.394-10.108 8.716-23.354 23.01-23.354 52.991 0 18.128 4.879 23.357 19.171 23.357 17.079 0 20.565-7.669 20.565-14.293 0-18.129.349-28.588 19.52-43.578 9.412-7.321 39.04-31.028 39.04-63.798s-29.629-57.522-74.245-57.523zm-4.532 203.247c-14.639 0-26.491 12.202-26.491 26.844 0 14.293 11.503 26.844 26.491 26.844S275 384.37 275 370.076c0-14.642-12.201-26.844-26.84-26.844z"/>
    <path
      d="M447.717 97.795L297.208 10.994c-25.417-14.659-56.997-14.659-82.414 0L64.285 97.795c-25.465 14.686-41.284 42.072-41.284 71.472v173.467c0 29.399 15.819 56.786 41.284 71.472l150.509 86.801c25.412 14.657 56.993 14.661 82.414 0l150.509-86.801c25.465-14.687 41.284-42.073 41.284-71.473V169.267c0-29.4-15.819-56.786-41.284-71.472zm1.284 244.938c0 15.144-8.148 29.25-21.266 36.815l-150.509 86.801c-13.093 7.55-29.358 7.55-42.451 0l-150.508-86.8c-13.118-7.565-21.266-21.672-21.266-36.816V169.267c0-15.144 8.148-29.25 21.266-36.815l150.509-86.801c13.095-7.551 29.358-7.55 42.451 0l150.509 86.801c13.117 7.564 21.265 21.671 21.265 36.815v173.466z"/>
  </symbol>
  <symbol viewBox="0 0 313.535 313.535" id="house" xmlns="http://www.w3.org/2000/svg">
    <path
      d="M7.337 177.353c2.714 1.795 5.847 2.687 8.98 2.687s6.266-.897 8.98-2.687a16.191 16.191 0 002.556-2.094l10.639-10.639v74.515c0 32.841 29.028 60.591 63.387 60.591h114.868c33.668 0 61.064-27.184 61.064-60.591v-71.741l7.87 7.87c3.182 3.187 7.365 4.781 11.536 4.781s8.354-1.594 11.536-4.781c6.375-6.369 6.375-16.703 0-23.073L179.843 23.269c-11.928-11.922-30.78-12.526-43.583-2.094-.859.696-1.768 1.3-2.567 2.094L4.781 152.186c-6.375 6.369-6.375 16.703 0 23.073a16.303 16.303 0 002.556 2.094zm237.84-42.599V239.13c0 15.414-12.755 27.957-28.43 27.957H101.879c-16.382.005-30.752-13.059-30.752-27.951v-107.15l85.644-85.638 88.406 88.406z"/>
  </symbol>
  <symbol viewBox="0 0 512 512" id="info" xmlns="http://www.w3.org/2000/svg">
    <path
      d="M20 512c-5.1 0-10.1-1.9-13.9-5.6-5.8-5.7-7.7-14.3-4.6-21.9l45.4-112.3C16.2 332.3 0 285.4 0 236c0-63.4 26.9-122.9 75.6-167.5C123.9 24.3 188 0 256 0s132.1 24.3 180.4 68.5C485.1 113.1 512 172.6 512 236c0 45.4-14 89.6-40.6 127.6-6.3 9.1-18.8 11.3-27.8 4.9s-11.3-18.8-4.9-27.8C460.5 309.4 472 273.2 472 236c0-108.1-96.9-196-216-196S40 127.9 40 236c0 43.8 15.6 85.2 45 119.8 4.8 5.7 6.1 13.6 3.3 20.5L57 453.8l91.3-40.3c5.1-2.2 10.8-2.3 15.9-.1 28.8 12.3 59.7 18.5 91.7 18.5 36.9 0 73.3-8.6 105.3-24.8 9.9-5 21.9-1.1 26.9 8.8 5 9.8 1.1 21.9-8.8 26.9C341.8 461.9 299.2 472 256 472c-34.5 0-67.8-6.2-99.3-18.4L28.1 510.3c-2.6 1.1-5.4 1.7-8.1 1.7zm256-187V217c0-11-9-20-20-20s-20 9-20 20v108c0 11 9 20 20 20s20-9 20-20zm-20-197c-11 0-20 9-20 20s9 20 20 20 20-9 20-20-9-20-20-20z"/>
  </symbol>
  <symbol class="besvg-inline--fa befa-instagram befa-w-14" viewBox="0 0 448 512" id="instagram"
          xmlns="http://www.w3.org/2000/svg">
    <path
      d="M224.1 141c-63.6 0-114.9 51.3-114.9 114.9s51.3 114.9 114.9 114.9S339 319.5 339 255.9 287.7 141 224.1 141zm0 189.6c-41.1 0-74.7-33.5-74.7-74.7s33.5-74.7 74.7-74.7 74.7 33.5 74.7 74.7-33.6 74.7-74.7 74.7zm146.4-194.3c0 14.9-12 26.8-26.8 26.8-14.9 0-26.8-12-26.8-26.8s12-26.8 26.8-26.8 26.8 12 26.8 26.8zm76.1 27.2c-1.7-35.9-9.9-67.7-36.2-93.9-26.2-26.2-58-34.4-93.9-36.2-37-2.1-147.9-2.1-184.9 0-35.8 1.7-67.6 9.9-93.9 36.1s-34.4 58-36.2 93.9c-2.1 37-2.1 147.9 0 184.9 1.7 35.9 9.9 67.7 36.2 93.9s58 34.4 93.9 36.2c37 2.1 147.9 2.1 184.9 0 35.9-1.7 67.7-9.9 93.9-36.2 26.2-26.2 34.4-58 36.2-93.9 2.1-37 2.1-147.8 0-184.8zM398.8 388c-7.8 19.6-22.9 34.7-42.6 42.6-29.5 11.7-99.5 9-132.1 9s-102.7 2.6-132.1-9c-19.6-7.8-34.7-22.9-42.6-42.6-11.7-29.5-9-99.5-9-132.1s-2.6-102.7 9-132.1c7.8-19.6 22.9-34.7 42.6-42.6 29.5-11.7 99.5-9 132.1-9s102.7-2.6 132.1 9c19.6 7.8 34.7 22.9 42.6 42.6 11.7 29.5 9 99.5 9 132.1s2.7 102.7-9 132.1z"/>
  </symbol>
  <symbol class="bfsvg-inline--fa bffa-long-arrow-alt-down bffa-w-8" viewBox="0 0 256 512" id="long-arrow"
          xmlns="http://www.w3.org/2000/svg">
    <path
      d="M168 345.941V44c0-6.627-5.373-12-12-12h-56c-6.627 0-12 5.373-12 12v301.941H41.941c-21.382 0-32.09 25.851-16.971 40.971l86.059 86.059c9.373 9.373 24.569 9.373 33.941 0l86.059-86.059c15.119-15.119 4.411-40.971-16.971-40.971H168z"/>
  </symbol>
  <symbol class="bgsvg-inline--fa bgfa-long-arrow-alt-down bgfa-w-8" viewBox="0 0 256 512"
          id="long-arrow-alt-down-solid" xmlns="http://www.w3.org/2000/svg">
    <path
      d="M168 345.941V44c0-6.627-5.373-12-12-12h-56c-6.627 0-12 5.373-12 12v301.941H41.941c-21.382 0-32.09 25.851-16.971 40.971l86.059 86.059c9.373 9.373 24.569 9.373 33.941 0l86.059-86.059c15.119-15.119 4.411-40.971-16.971-40.971H168z"/>
  </symbol>
  <symbol viewBox="0 0 512 512" id="mail" xmlns="http://www.w3.org/2000/svg">
    <path
      d="M509.3 106.6c-.1-.3-.2-.5-.3-.7-.1-.3-.2-.6-.3-1-.1-.3-.2-.6-.4-.9-.1-.3-.2-.6-.4-.9-.1-.3-.3-.6-.4-.9-.1-.3-.3-.6-.4-.9-.1-.3-.3-.6-.4-.9-.1-.3-.3-.6-.4-.9-.1-.3-.3-.6-.5-.9-.2-.3-.3-.6-.5-.9-.2-.3-.3-.6-.5-.8-.2-.3-.3-.6-.5-.9-.2-.3-.3-.5-.5-.8-.2-.3-.4-.6-.5-.8-.2-.3-.4-.5-.5-.8-.2-.3-.4-.6-.6-.8-.2-.3-.4-.5-.6-.8-.2-.3-.4-.5-.6-.8-.2-.2-.4-.5-.6-.7-.2-.3-.4-.5-.6-.8-.2-.2-.4-.5-.6-.7-.2-.3-.4-.5-.7-.8-.2-.2-.4-.4-.6-.7l-.7-.7c-.2-.2-.4-.4-.7-.6l-.7-.7c-.2-.2-.5-.4-.7-.6-.3-.2-.5-.5-.8-.7-.2-.2-.5-.4-.7-.6-.3-.2-.5-.4-.8-.6-.2-.2-.5-.4-.7-.6-.3-.2-.5-.4-.8-.6-.2-.2-.5-.3-.7-.5-.3-.2-.6-.4-.8-.6-.3-.2-.5-.3-.8-.5-.3-.2-.6-.4-.8-.5-.3-.2-.5-.3-.8-.5-.3-.2-.6-.3-.9-.5-.3-.2-.5-.3-.8-.4-.3-.2-.6-.3-.9-.5-.3-.1-.6-.3-.8-.4-.3-.1-.6-.3-.9-.4-.3-.1-.6-.3-.9-.4-.3-.1-.6-.3-.9-.4-.3-.1-.6-.2-.9-.4-.3-.1-.6-.2-.9-.4l-.9-.3-.9-.3-.9-.3-.9-.3c-.3-.1-.6-.2-1-.3-.3-.1-.6-.2-.9-.2-.3-.1-.7-.1-1-.2-.3-.1-.6-.1-.9-.2-.3-.1-.7-.1-1.1-.2-.3-.1-.6-.1-.9-.2-.4-.1-.7-.1-1.1-.2-.3 0-.6-.1-.9-.1-.4 0-.8-.1-1.2-.1-.3 0-.5-.1-.8-.1-.4 0-.9-.1-1.3-.1H47.4c-.4 0-.9 0-1.3.1-.3 0-.5.1-.8.1-.4 0-.8.1-1.2.1-.3 0-.6.1-.9.1-.4.1-.7.1-1.1.2-.3 0-.6.1-.9.2-.4.1-.7.1-1.1.2-.3.1-.6.1-.9.2-.3.1-.7.1-1 .2-.3.1-.6.2-.9.2-.3.1-.6.2-1 .3l-.9.3-.9.3-.9.3-.9.3c-.3.1-.6.2-.9.4-.3.1-.6.2-.9.4-.3.1-.6.3-.9.4-.3.1-.6.2-.9.4-.3.1-.6.3-.9.4-.3.1-.6.3-.8.4-.3.2-.6.3-.9.5-.3.1-.5.3-.8.4-.3.2-.6.3-.9.5-.3.2-.5.3-.8.5-.3.2-.6.4-.8.5-.3.2-.5.3-.8.5-.3.2-.6.4-.8.6-.2.2-.5.3-.7.5-.3.2-.5.4-.8.6-.2.2-.5.4-.7.6-.3.2-.5.4-.8.6-.2.2-.5.4-.7.6-.3.2-.5.4-.8.7-.2.2-.5.4-.7.6l-.7.7c-.2.2-.4.4-.7.6l-.7.7c-.2.2-.4.4-.6.7-.2.2-.4.5-.7.8-.2.2-.4.5-.6.7-.2.3-.4.5-.6.8-.2.2-.4.5-.6.7-.2.3-.4.5-.6.8-.2.2-.4.5-.6.7-.2.3-.4.5-.6.8-.2.3-.4.5-.5.8-.2.3-.4.6-.5.8-.4.3-.6.6-.8.9-.2.3-.3.6-.5.9-.2.3-.3.6-.5.8-.2.3-.3.6-.5.9-.2.3-.3.6-.5.9-.2.3-.3.6-.4.9-.1.3-.3.6-.4.9-.1.3-.3.6-.4.9-.1.3-.3.6-.4.9-.1.3-.2.6-.4.9-.1.3-.2.6-.4.9-.1.3-.2.6-.3 1-.1.2-.2.5-.3.7C.9 111.5 0 116.8 0 122.4v267.1c0 27 21.5 49 48.2 50h414c21.9 0 41-13.9 47.5-34.7.3-.8.4-1.6.6-2.4 1.1-4.1 1.7-8.5 1.7-13v-267c0-5.6-.9-10.9-2.7-15.8zm-469.4 2.7c.2-.2.4-.3.6-.5.2-.1.3-.2.5-.3.2-.1.4-.3.7-.4.2-.1.3-.2.5-.3.2-.1.5-.2.7-.4.2-.1.4-.2.5-.2.2-.1.5-.2.7-.3.2-.1.4-.1.5-.2.3-.1.5-.2.8-.2.2-.1.4-.1.5-.2.3-.1.5-.1.8-.2.2 0 .4-.1.5-.1.3-.1.6-.1.9-.1.2 0 .3 0 .5-.1.5 0 .9-.1 1.4-.1h411.8c.5 0 .9 0 1.4.1.2 0 .3 0 .5.1.3 0 .6.1.9.1.2 0 .4.1.5.1.3.1.5.1.8.2.2 0 .4.1.5.2.3.1.5.2.8.2.2.1.4.1.5.2.2.1.5.2.7.3.2.1.4.2.5.2.2.1.5.2.7.4.2.1.3.2.5.3.2.1.4.3.7.4.2.1.3.2.5.3.2.2.4.3.6.5l.3.3-204.4 204.6c-3.1 3.1-7.3 4.9-11.8 4.9-4.5 0-8.6-1.7-11.8-4.9L39.6 109.6l.3-.3zm-6.5 41.3l105.5 105.5L33.4 361.7V150.6zm428.5 255.7H50.4c-3.9 0-7.6-1.4-10.5-3.8l122.7-122.7 58.1 58.1c9.5 9.5 22 14.7 35.4 14.7 13.4 0 26-5.2 35.4-14.7l58.3-58.3 122.9 122.9c-3 2.3-6.7 3.8-10.8 3.8zm16.7-45.2L373.4 255.9l105.3-105.3-.1 210.5z"/>
  </symbol>
  <symbol viewBox="0 0 512 512" id="monitor" xmlns="http://www.w3.org/2000/svg">
    <path
      d="M328 256c57.438 0 104-46.562 104-104S385.438 48 328 48 224 94.562 224 152c.066 57.41 46.59 103.934 104 104zm0-192c48.601 0 88 39.399 88 88s-39.399 88-88 88-88-39.399-88-88c.057-48.577 39.423-87.943 88-88z"/>
    <path
      d="M272 152c.035-30.913 25.087-55.965 56-56V80c-39.744.048-71.952 32.256-72 72h16zm48 184h16v16h-16v-16zm0 32h16v96h-16v-96z"/>
    <path
      d="M472 64h-40.48C383.121 6.827 297.539-.285 240.366 48.114A135.652 135.652 0 00224.48 64H40c-13.238.04-23.96 10.762-24 24v288c.04 13.238 10.762 23.96 24 24h168v48h-48c-13.238.04-23.96 10.762-24 24v16a8 8 0 008 8h184c22.091 0 40-17.909 40-40v-56h104c13.238-.04 23.96-10.762 24-24V88c-.04-13.238-10.762-23.96-24-24zM328 32c66.274 0 120 53.726 120 120s-53.726 120-120 120-120-53.726-120-120c.079-66.241 53.759-119.921 120-120zm8 255.6V304h-16v-16.4c2.64.16 5.28.4 8 .4s5.36-.24 8-.4zM146.32 183.04l22.56-22.64c6.288-6.24 16.432-6.24 22.72 0 .316.327.61.674.88 1.04a135.216 135.216 0 002.16 17.12 13.91 13.91 0 01-3.04 4.48l-22.64 22.64-22.64-22.64zm11.36 33.92l-22.56 22.64c-6.288 6.24-16.432 6.24-22.72 0a15.865 15.865 0 01-4.72-11.28 16.047 16.047 0 014.72-11.36l22.64-22.64 22.64 22.64zm34.8-74.8a32.153 32.153 0 00-34.88 6.88l-56.56 56.64c-12.367 12.662-12.128 32.953.535 45.32 12.467 12.177 32.38 12.159 44.825-.04l53.52-53.6a136.301 136.301 0 0028.16 46.56c-24.328 41.992-78.091 56.312-120.083 31.985s-56.312-78.091-31.985-120.083c24.108-41.613 77.19-56.116 119.108-32.541a130.839 130.839 0 00-2.64 18.879zM32 88a8 8 0 018-8h172.8a136.215 136.215 0 00-13.2 27.52c-51.072-26.282-113.78-6.185-140.061 44.887s-6.185 113.78 44.887 140.061c47.956 24.678 106.821 8.601 135.574-37.028a134.531 134.531 0 0064 30.32V304h-8a8 8 0 00-8 8v8H32V88zm8 296a8 8 0 01-8-8v-40h256v48H40zm248 16v48h-64v-48h64zm-136 80v-8a8 8 0 018-8h128.8a38.732 38.732 0 007.44 16H152zm200-24c0 13.255-10.745 24-24 24s-24-10.745-24-24V320h48v136zm128-80a8 8 0 01-8 8H368v-48h112v40zm0-56H368v-8a8 8 0 00-8-8h-8v-18.24c73.773-13.066 122.986-83.462 109.92-157.235A135.665 135.665 0 00443.2 80H472a8 8 0 018 8v232z"/>
    <path d="M448 352h16v16h-16v-16zm-32 0h16v16h-16v-16z"/>
  </symbol>
  <symbol id="network" xml:space="preserve" viewBox="0 0 512 512" xmlns="http://www.w3.org/2000/svg"><style>.bjst0{stroke:#000;stroke-width:4;stroke-miterlimit:10}</style>
    <path
      d="M477.9 102.4c-18.8 0-34.1 15.3-34.1 34.1s15.3 34.1 34.1 34.1 34.1-15.3 34.1-34.1-15.3-34.1-34.1-34.1zm0 51.2c-9.4 0-17.1-7.7-17.1-17.1s7.7-17.1 17.1-17.1 17.1 7.7 17.1 17.1c-.1 9.4-7.7 17.1-17.1 17.1zM34.1 384C15.3 384 0 399.3 0 418.1s15.3 34.1 34.1 34.1 34.1-15.3 34.1-34.1S53 384 34.1 384zm0 51.2c-9.4 0-17.1-7.7-17.1-17.1S24.7 401 34.1 401s17.1 7.7 17.1 17.1-7.7 17.1-17.1 17.1z"/>
    <path
      d="M461.3 113.2l-73.6-35.5c-4.3-2.1-9.3-.3-11.4 4-2 4.2-.3 9.3 4 11.4l73.6 35.5c1.2.6 2.5.9 3.7.9 3.2 0 6.2-1.8 7.7-4.8 2-4.4.3-9.5-4-11.5zM384 443.7c-18.8 0-34.1 15.3-34.1 34.1S365.2 512 384 512s34.1-15.3 34.1-34.1-15.3-34.2-34.1-34.2zm0 51.2c-9.4 0-17.1-7.7-17.1-17.1s7.7-17.1 17.1-17.1 17.1 7.7 17.1 17.1-7.7 17.1-17.1 17.1z"/>
    <path
      d="M367.5 454.5L293.8 419c-4.3-2.1-9.3-.3-11.4 4-2 4.2-.3 9.3 4 11.4l73.6 35.5c1.2.6 2.5.9 3.7.9 3.2 0 6.2-1.8 7.7-4.8 2.1-4.3.3-9.4-3.9-11.5zM256 230.4c-18.8 0-34.1 15.3-34.1 34.1s15.3 34.1 34.1 34.1 34.1-15.3 34.1-34.1-15.3-34.1-34.1-34.1zm0 51.2c-9.4 0-17.1-7.7-17.1-17.1s7.7-17.1 17.1-17.1c9.4 0 17.1 7.7 17.1 17.1 0 9.4-7.7 17.1-17.1 17.1z"/>
    <path
      d="M241 242.1L184.4 198c-3.7-2.9-9.1-2.2-12 1.5s-2.2 9.1 1.5 12l56.6 44.1c1.6 1.2 3.4 1.8 5.2 1.8 2.5 0 5.1-1.1 6.7-3.3 3-3.7 2.3-9.1-1.4-12zm168.6-20.2c-51.8 0-93.9 42.1-93.9 93.9s42.1 93.9 93.9 93.9 93.9-42.1 93.9-93.9-42.1-93.9-93.9-93.9zm0 170.6c-42.4 0-76.8-34.4-76.8-76.8s34.4-76.8 76.8-76.8 76.8 34.4 76.8 76.8-34.4 76.8-76.8 76.8z"/>
    <path
      d="M93.9 110.9C42.1 110.9 0 153 0 204.8s42.1 93.9 93.9 93.9 93.9-42.1 93.9-93.9c-.1-51.8-42.2-93.9-93.9-93.9zm0 170.7c-42.4 0-76.8-34.4-76.8-76.8S51.5 128 93.9 128s76.8 34.4 76.8 76.8-34.5 76.8-76.8 76.8z"/>
    <path
      d="M93.9 145.1c-18.8 0-34.1 15.3-34.1 34.1s15.3 34.1 34.1 34.1S128 198 128 179.2s-15.3-34.1-34.1-34.1zm0 51.2c-9.4 0-17.1-7.7-17.1-17.1s7.7-17.1 17.1-17.1 17.1 7.7 17.1 17.1-7.7 17.1-17.1 17.1zm24.7 34.1H69.1c-14.6 0-26.4 11.5-26.4 25.7v22.5c0 3 1.6 5.9 4.3 7.4 14.3 8.3 30.5 12.7 46.9 12.7s32.6-4.4 46.9-12.7c2.6-1.5 4.3-4.3 4.3-7.4v-22.5c0-14.2-11.9-25.7-26.5-25.7zm9.4 43.1c-21.2 10.6-47 10.6-68.3 0v-17.4c0-4.8 4.2-8.7 9.4-8.7h49.5c5.2 0 9.4 3.9 9.4 8.7v17.4zM298.7 0c-51.8 0-93.9 42.1-93.9 93.9s42.1 93.9 93.9 93.9 93.9-42.1 93.9-93.9C392.5 42.1 350.4 0 298.7 0zm0 170.7c-42.4 0-76.8-34.4-76.8-76.8s34.4-76.8 76.8-76.8 76.8 34.4 76.8 76.8c0 42.3-34.5 76.8-76.8 76.8z"/>
    <path
      d="M219.8 88.3c-3.1-3.6-8.4-4-12-.9L148.7 138c-3.6 3.1-4 8.4-.9 12 1.7 2 4.1 3 6.5 3 2 0 3.9-.7 5.5-2.1l59.1-50.6c3.6-3 4-8.4.9-12zm188.1 137L356.7 157c-2.8-3.8-8.2-4.5-11.9-1.7-3.8 2.8-4.5 8.2-1.7 11.9l51.2 68.3c1.7 2.2 4.2 3.4 6.8 3.4 1.8 0 3.6-.6 5.1-1.7 3.8-2.8 4.5-8.1 1.7-11.9zm-70 118.7c-2.8-3.8-8.2-4.5-11.9-1.7L278.2 378c-3.8 2.8-4.5 8.2-1.7 11.9 1.7 2.2 4.2 3.4 6.8 3.4 1.8 0 3.6-.6 5.1-1.7l47.7-35.7c3.8-2.8 4.6-8.2 1.8-11.9zm-218.4 65.6H59.7c-4.7 0-8.5 3.8-8.5 8.5s3.8 8.5 8.5 8.5h59.7c4.7 0 8.5-3.8 8.5-8.5s-3.7-8.5-8.4-8.5zM93.9 0C75 0 59.7 15.3 59.7 34.1 59.7 53 75 68.3 93.9 68.3c18.8 0 34.1-15.3 34.1-34.1C128 15.3 112.7 0 93.9 0zm0 51.2c-9.4 0-17.1-7.7-17.1-17.1S84.5 17 93.9 17 111 24.7 111 34.1c-.1 9.4-7.7 17.1-17.1 17.1z"/>
    <path d="M93.9 51.2c-4.7 0-8.5 3.8-8.5 8.5v59.7c0 4.7 3.8 8.5 8.5 8.5s8.5-3.8 8.5-8.5V59.7c0-4.7-3.8-8.5-8.5-8.5z"/>
    <g id="bjGlobe"><path d="M204.8 324.3c-51.8 0-93.9 42.1-93.9 93.9S153 512 204.8 512s93.9-42.1 93.9-93.9-42.1-93.8-93.9-93.8zm0 170.6c-42.4 0-76.8-34.4-76.8-76.8s34.4-76.8 76.8-76.8 76.8 34.4 76.8 76.8-34.4 76.8-76.8 76.8z"/>
      <path d="M195.8 331.1h18v173.6h-18z"/>
      <path d="M116.5 409.1h173.6v18H116.5zm11.3-37h151v18h-151zm0 73h151v18h-151z"/>
      <path
        d="M204.8 511.8c-32 0-57.1-41.2-57.1-93.7s25.1-93.7 57.1-93.7 57.1 41.2 57.1 93.7c0 52.6-25.1 93.7-57.1 93.7zm0-169.4c-12.8 0-21.9 12.7-26.1 20.2-8.3 14.7-12.9 34.4-12.9 55.4s4.6 40.8 12.9 55.4c4.3 7.6 13.4 20.2 26.1 20.2 12.8 0 21.9-12.7 26.2-20.2 8.3-14.7 12.9-34.4 12.9-55.4s-4.6-40.8-12.9-55.4c-4.3-7.5-13.4-20.2-26.2-20.2z"/></g>
    <path class="bjst0"
          d="M288.2 43.8c-27.6 5.7-45.5 32.9-39.7 60.5s32.9 45.4 60.5 39.7c27.6-5.7 45.5-32.9 39.7-60.5-5.7-27.7-32.9-45.5-60.5-39.7zm17.7 85.2c-16.8 3.5-33.4-5.4-40.1-20.5l68.7-14.3c-.2 16.5-11.8 31.3-28.6 34.8zm-43.2-35.5c.2-16.5 11.8-31.3 28.6-34.8 16.8-3.5 33.4 5.4 40.1 20.5l-68.7 14.3zm195.1 173.1c-6.7-6.7-15.6-10.4-25-10.4-9.5 0-18.3 3.7-25 10.4l-48.2 48.1c-13.8 13.8-13.8 36.2 0 50 6.9 6.9 16 10.4 25 10.4 9.1 0 18.1-3.5 25-10.3l48.2-48.1c6.7-6.7 10.4-15.6 10.4-25-.1-9.5-3.7-18.4-10.4-25.1zm-58.5 87.8c-8.1 8.1-21.4 8.1-29.5 0s-8.1-21.3 0-29.4l18.9-18.8 29.5 29.4-18.9 18.8zm48.2-48.1l-19 19-29.5-29.4 19-19c3.9-3.9 9.1-6.1 14.7-6.1s10.8 2.2 14.8 6.1c3.9 3.9 6.1 9.2 6.1 14.7 0 5.6-2.2 10.8-6.1 14.7z"/>
    <path
      d="M405.4 330.9c-2.8-2.8-7.4-2.9-10.3 0L387 339c-2.8 2.8-2.9 7.5 0 10.3 1.4 1.4 3.3 2.1 5.2 2.1 1.9 0 3.7-.7 5.1-2.1l8.1-8.1c2.8-2.8 2.8-7.4 0-10.3z"/></symbol>
  <symbol viewBox="0 0 473.8 473.8" id="phone-call" xmlns="http://www.w3.org/2000/svg">
    <path
      d="M374.5 293.5c-9.7-10.1-21.4-15.5-33.8-15.5-12.3 0-24.1 5.3-34.2 15.4l-31.6 31.5c-2.6-1.4-5.2-2.7-7.7-4-3.6-1.8-7-3.5-9.9-5.3-29.6-18.8-56.5-43.3-82.3-75-12.5-15.8-20.9-29.1-27-42.6 8.2-7.5 15.8-15.3 23.2-22.8 2.8-2.8 5.6-5.7 8.4-8.5 21-21 21-48.2 0-69.2l-27.3-27.3c-3.1-3.1-6.3-6.3-9.3-9.5-6-6.2-12.3-12.6-18.8-18.6-9.7-9.6-21.3-14.7-33.5-14.7s-24 5.1-34 14.7l-.2.2-34 34.3C9.7 89.4 2.4 105 .8 123.1c-2.4 29.2 6.2 56.4 12.8 74.2C29.8 241 54 281.5 90.1 324.9c43.8 52.3 96.5 93.6 156.7 122.7 23 10.9 53.7 23.8 88 26 2.1.1 4.3.2 6.3.2 23.1 0 42.5-8.3 57.7-24.8.1-.2.3-.3.4-.5 5.2-6.3 11.2-12 17.5-18.1 4.3-4.1 8.7-8.4 13-12.9 9.9-10.3 15.1-22.3 15.1-34.6 0-12.4-5.3-24.3-15.4-34.3l-54.9-55.1zm35.8 105.3c-.1 0-.1.1 0 0-3.9 4.2-7.9 8-12.2 12.2-6.5 6.2-13.1 12.7-19.3 20-10.1 10.8-22 15.9-37.6 15.9-1.5 0-3.1 0-4.6-.1-29.7-1.9-57.3-13.5-78-23.4C202 396 152.3 357.1 111 307.8c-34.1-41.1-56.9-79.1-72-119.9-9.3-24.9-12.7-44.3-11.2-62.6 1-11.7 5.5-21.4 13.8-29.7l34.1-34.1c4.9-4.6 10.1-7.1 15.2-7.1 6.3 0 11.4 3.8 14.6 7l.3.3c6.1 5.7 11.9 11.6 18 17.9 3.1 3.2 6.3 6.4 9.5 9.7l27.3 27.3c10.6 10.6 10.6 20.4 0 31-2.9 2.9-5.7 5.8-8.6 8.6-8.4 8.6-16.4 16.6-25.1 24.4-.2.2-.4.3-.5.5-8.6 8.6-7 17-5.2 22.7l.3.9c7.1 17.2 17.1 33.4 32.3 52.7l.1.1c27.6 34 56.7 60.5 88.8 80.8 4.1 2.6 8.3 4.7 12.3 6.7 3.6 1.8 7 3.5 9.9 5.3.4.2.8.5 1.2.7 3.4 1.7 6.6 2.5 9.9 2.5 8.3 0 13.5-5.2 15.2-6.9l34.2-34.2c3.4-3.4 8.8-7.5 15.1-7.5 6.2 0 11.3 3.9 14.4 7.3l.2.2 55.1 55.1c10.3 10.2 10.3 20.7.1 31.3zM256.1 112.7c26.2 4.4 50 16.8 69 35.8s31.3 42.8 35.8 69c1.1 6.6 6.8 11.2 13.3 11.2.8 0 1.5-.1 2.3-.2 7.4-1.2 12.3-8.2 11.1-15.6-5.4-31.7-20.4-60.6-43.3-83.5s-51.8-37.9-83.5-43.3c-7.4-1.2-14.3 3.7-15.6 11s3.5 14.4 10.9 15.6zM473.3 209c-8.9-52.2-33.5-99.7-71.3-137.5S316.7 9.1 264.5.2c-7.3-1.3-14.2 3.7-15.5 11-1.2 7.4 3.7 14.3 11.1 15.6 46.6 7.9 89.1 30 122.9 63.7 33.8 33.8 55.8 76.3 63.7 122.9 1.1 6.6 6.8 11.2 13.3 11.2.8 0 1.5-.1 2.3-.2 7.3-1.1 12.3-8.1 11-15.4z"/>
  </symbol>
  <symbol viewBox="0 0 162 162" id="pills" xmlns="http://www.w3.org/2000/svg">
    <path
      d="M153.8 64.6c.3-1 1.9-3.1 3.2-4.7 2.7-3.4 5.6-7 4.9-10.6-.6-3.6-4.4-5.8-8-8-1.8-1.1-4.2-2.5-4.7-3.4s-.5-3.7-.6-5.7c-.1-4.2-.1-8.6-2.9-10.9-2.3-1.9-6.8-1.7-11.3-1-2.6.4-5.5.5-5.8.4-.9-.4-2.8-2.5-4.1-4-2.8-3.2-5.6-6.5-9.2-6.5s-6.5 3.3-9.2 6.5c-1.4 1.6-3.2 3.7-4.1 4-.2.1-3.2 0-5.8-.4-4.4-.7-8.9-1-11.3 1-2 1.7-2.6 4.4-2.8 7.3l-9.5-1.1c-5.7-.6-11.2 1.9-14.6 6.3-3.4-1.7-7.3-2.2-11.2-1.2L12 42C3.4 44.3-1.8 53.2.6 61.8l21.1 78.1c1.9 7 8.3 11.9 15.6 11.9 1.4 0 2.8-.2 4.2-.6l34.8-9.4c.5-.1 1-.4 1.5-.6h.1l17.9 2.7c.6.1 1.2.1 1.8.1 3.6 0 7.1-1.2 10-3.5 3.4-2.7 5.5-6.5 6-10.8l3.7-32.5c1.1.5 2.3 1.2 3.3 1.7 2.9 1.6 5.9 3.3 8.8 3.3.8 0 1.5-.1 2.1-.4 3.4-1.2 5-5.3 6.5-9.3.7-1.9 1.7-4.6 2.5-5.2.8-.7 3.6-1.2 5.6-1.6 4.2-.8 8.4-1.6 10.3-4.8 1.8-3.1.3-7.1-1.1-11-.7-1.4-1.7-4.4-1.5-5.3zM71.9 33.5l10 1.1c-.1 1.4-.2 2.7-.5 3.3-.5.9-2.9 2.3-4.7 3.4-3.6 2.2-7.4 4.4-8 8-.6 3.7 2.2 7.2 4.9 10.6 1.3 1.6 2.9 3.6 3.2 4.7.2.9-.8 3.8-1.5 5.6-.3.9-.7 1.9-1 2.8l-7.8-29c-.7-2.5-2-4.7-3.7-6.5 2.2-2.8 5.5-4.4 9.1-4zM39.8 145.4c-5.3 1.4-11-1.9-12.4-7.1l-21-78.1C5 54.8 8.2 49.3 13.5 47.8l34.8-9.4c.9-.2 1.8-.3 2.6-.3 2.1 0 4 .7 5.6 1.8.2.3.5.5.9.7 1.5 1.3 2.7 3 3.2 5l21.1 78.1c1.4 5.4-1.7 10.9-7.1 12.4l-34.8 9.3zm67.8-16.3c-.3 2.7-1.6 5.1-3.7 6.8s-4.7 2.4-7.3 2.1l-11.9-1.8c3-3.9 4.3-9 3-14.2L77.3 83.8c2.1 1.1 4.7 1.7 7.3 2.2 2 .4 4.8.9 5.6 1.6.8.6 1.8 3.3 2.5 5.2.8 2.1 1.6 4.1 2.7 5.9-2.9 1.6-4.6 4.9-3.7 8.3 1.1 3.9 5.1 6.2 9 5.2 3.9-1.1 6.2-5.1 5.2-9-.2-.6-.5-1.1-.8-1.6 1.7-.6 3.4-1.5 5-2.4.3-.2.6-.4 1-.5l-3.5 30.4zm42-56.8c.6 1.8 1.8 5 1.5 5.9-.6.8-4.2 1.5-6.2 1.9-3.3.6-6.3 1.2-8.3 2.9-2 1.7-3.1 4.6-4.3 7.7-.7 1.9-2 5.3-2.9 5.7h-.1c-1.2 0-3.9-1.5-5.8-2.6-2.9-1.6-5.6-3.2-8.2-3.2s-5.3 1.5-8.2 3.2c-1.9 1.1-4.6 2.6-5.9 2.6-.9-.5-2.2-3.9-2.9-5.8-1.2-3.1-2.3-6.1-4.3-7.7-2-1.7-5-2.2-8.3-2.9-1.9-.4-5.6-1.1-6.2-1.8-.3-.9.9-4.2 1.5-5.9 1.2-3.4 2.4-6.5 1.6-9.3-.6-2.2-2.4-4.5-4.3-6.8-1.3-1.7-3.8-4.8-3.7-5.8.3-.9 3.5-2.8 5.2-3.9 2.9-1.7 5.6-3.3 6.8-5.5 1.3-2.2 1.3-5.4 1.4-8.7 0-2 .1-5.7.7-6.4 0 0 .3-.2 1.5-.2 1.4 0 3.2.3 4.9.6 1.9.3 3.9.6 5.6.6 1.2 0 2.3-.2 3.2-.5 2.4-.9 4.5-3.3 6.7-5.8 1.3-1.5 3.7-4.3 4.6-4.4 1 .1 3.4 2.9 4.7 4.4 2.2 2.5 4.2 4.9 6.7 5.8 2.1.8 5.5.4 8.8-.1 1.7-.3 3.6-.6 4.9-.6 1.1 0 1.4.2 1.4.2.7.7.7 4.4.8 6.4.1 3.3.1 6.5 1.4 8.7 1.3 2.2 4 3.9 6.8 5.6 1.7 1 4.9 2.9 5.2 3.8.1 1.1-2.4 4.2-3.7 5.8-1.9 2.4-3.7 4.6-4.3 6.8-.7 2.7.5 5.9 1.7 9.3zM16.3 66.6c-1.1-3.9 1.3-8 5.2-9 3.9-1.1 7.9 1.3 9 5.2s-1.3 7.9-5.2 9c-4 1-8-1.3-9-5.2zm24.9-6.8c-1.1-3.9 1.3-8 5.2-9 3.9-1.1 7.9 1.3 9 5.2s-1.3 7.9-5.2 9c-3.9 1.1-7.9-1.2-9-5.2zM21.8 87c-1.1-3.9 1.3-7.9 5.2-9s8 1.3 9 5.2c1.1 3.9-1.3 7.9-5.2 9-3.9 1-8-1.3-9-5.2zm24.9-6.7c-1.1-3.9 1.3-8 5.2-9 3.9-1.1 7.9 1.3 9 5.2 1.1 3.9-1.3 7.9-5.2 9-3.9 1-7.9-1.3-9-5.2zm-19.4 27.1c-1.1-3.9 1.3-7.9 5.2-9s7.9 1.3 9 5.2c1.1 3.9-1.3 7.9-5.2 9s-8-1.2-9-5.2zm24.9-6.7c-1.1-3.9 1.3-7.9 5.2-9s7.9 1.3 9 5.2c1.1 3.9-1.3 7.9-5.2 9-3.9 1-7.9-1.3-9-5.2zM47 124c1.1 3.9-1.3 7.9-5.2 9s-7.9-1.3-9-5.2c-1.1-3.9 1.3-7.9 5.2-9 3.9-1 7.9 1.3 9 5.2zm25-6.7c1.1 3.9-1.3 8-5.2 9-3.9 1.1-8-1.3-9-5.2-1.1-3.9 1.3-8 5.2-9 3.9-1 7.9 1.3 9 5.2zm31.8 3.9c1.1 3.9-1.3 7.9-5.2 9-3.9 1.1-7.9-1.3-9-5.2-1.1-3.9 1.3-8 5.2-9s7.9 1.3 9 5.2z"/>
    <path
      d="M102.2 73c-.8 0-1.5-.3-2.1-.9-1.2-1.2-1.2-3.1 0-4.2l26.2-26.2c1.2-1.2 3.1-1.2 4.2 0 1.2 1.2 1.2 3.1 0 4.2l-26.2 26.2c-.6.6-1.3.9-2.1.9zm26.5 4c-5 0-9-4-9-9s4-9 9-9 9 4 9 9-4 9-9 9zm0-12c-1.7 0-3 1.3-3 3s1.3 3 3 3 3-1.3 3-3-1.3-3-3-3zm-27-10c-5 0-9-4-9-9s4-9 9-9 9 4 9 9-4 9-9 9zm0-12c-1.7 0-3 1.3-3 3s1.3 3 3 3 3-1.3 3-3-1.3-3-3-3z"/>
  </symbol>
  <symbol viewBox="0 0 512 512" id="pills_001" xmlns="http://www.w3.org/2000/svg">
    <path
      d="M472.43 39.563C446.934 14.051 413.016 0 376.941 0c-36.078 0-69.984 14.051-95.492 39.563L160.504 160.504 39.555 281.461C14.051 306.973 0 340.891 0 376.957s14.051 69.984 39.555 95.48C65.051 497.949 98.969 512 135.043 512s69.984-14.051 95.488-39.563L351.48 351.496l120.95-120.957c25.504-25.512 39.551-59.43 39.551-95.496s-14.047-69.984-39.551-95.48zM205.07 446.977c-18.711 18.707-43.582 29.016-70.027 29.016-26.457 0-51.32-10.305-70.027-29.016s-29.004-43.57-29.004-70.016 10.305-51.328 29.004-70.035l108.219-108.227 140.055 140.07-108.22 108.208zm241.899-241.899L338.75 313.305l-140.055-140.07L306.914 65.023c18.707-18.707 43.578-29.016 70.027-29.016 26.453 0 51.316 10.305 70.023 29.016s29.004 43.57 29.004 70.016-10.3 51.328-28.999 70.039z"/>
    <path
      d="M425.094 121.414c-5.742 0-11.387-2.742-14.875-7.824-8.426-12.309-22.324-19.641-37.191-19.641-12.027 0-23.324 4.676-31.836 13.188-7.035 7.031-18.43 7.031-25.461 0-7.031-7.035-7.031-18.43 0-25.461 15.309-15.316 35.652-23.738 57.297-23.738a81.066 81.066 0 0166.906 35.293c5.617 8.207 3.527 19.41-4.684 25.039a17.929 17.929 0 01-10.156 3.144z"/>
  </symbol>
  <symbol viewBox="0 0 512 512" id="pills_002" xmlns="http://www.w3.org/2000/svg">
    <path
      d="M454.88 295.312c-31.696-14.407-73.1-22.605-117.132-23.263C353.52 244.678 362 213.241 362 181c0-48.047-18.727-93.392-52.731-127.68C275.17 18.936 229.972 0 182 0 82.464 0 0 81.777 0 181c0 88.888 65.638 164.086 151.063 178.498A50.794 50.794 0 00151 362v60c0 26.255 20.479 49.946 57.663 66.708C241.984 503.728 285.786 512 332 512c95.689 0 180-35.907 180-90v-60c0-26.262-20.286-49.945-57.12-66.688zM30 181C30 99.149 99.607 30 182 30c35.907 0 68.903 12.772 94.754 34.033L64.265 276.522C42.835 250.374 30 217.024 30 181zm131.482 149.727c-28.673-3.73-54.768-15.53-76.016-32.98L297.928 85.285C319.208 111.356 332 144.702 332 181c0 33.6-10.988 66.119-31.053 92.27-47.229 3.891-112.891 19.786-139.465 57.457zm79.224-15.503l143.838 102.741C367.941 420.617 350.23 422 332 422c-86.424 0-151-31.677-151-60 0-16.87 22.914-34.929 59.706-46.776zM482 422c0 27.493-61.004 60-150 60-86.424 0-151-31.677-151-60v-9.238C207.22 432.288 258.887 452 332 452c73.044 0 124.093-19.69 150-39.028V422zm-58.703-13.222L279.518 306.079c16.19-2.6 33.825-4.079 52.482-4.079 89.028 0 150 32.526 150 60 0 22.435-36.61 39.56-58.703 46.778z"/>
  </symbol>
  <symbol viewBox="0 0 512 512" id="pills_003" xmlns="http://www.w3.org/2000/svg">
    <path
      d="M241.139 317.5h-50.123v-50.123c0-8.284-6.716-15-15-15s-15 6.716-15 15V317.5h-50.123c-8.284 0-15 6.716-15 15s6.716 15 15 15h50.123v50.123c0 8.284 6.716 15 15 15s15-6.716 15-15V347.5h50.123c8.284 0 15-6.716 15-15s-6.716-15-15-15z"/>
    <path
      d="M492.626 301.692l-5.172-5.172c-24.991-24.992-65.599-25.999-91.754-1.772-1.788 1.656 2.807-2.9-44.684 44.592V195.27c0-22.518-21.205-42.27-45.38-42.27h-18.62v-34h9.889c16.041 0 30.111-13.792 30.111-29.515V31.423C327.016 16.59 314.139 0 296.905 0H55.127C37.893 0 25.016 16.59 25.016 31.423v58.062c0 15.723 14.07 29.515 30.111 29.515h7.889v34h-15.62c-23.4 0-47.38 19.284-47.38 42.27v272.71c0 22.216 23.469 44.02 47.38 44.02h258.24c6.441 0 12.978-1.554 19.045-4.462 24.146 9.282 51.888 3.83 70.646-14.927l97.3-97.3c25.81-25.811 25.81-67.808-.001-93.619zm-77.577 16.042c13.965-14.038 37.004-14.182 51.19.004l5.169 5.169c13.576 13.576 14.154 35.447 1.402 49.708-1.106 1.228 2.818-2.733-38.334 38.419l-56.364-56.364 36.937-36.936zM191.016 89V30h36.849v59h-36.849zm-69.261 0V30h39.261v59h-39.261zm175.261-57.268v56.976c-.463.454 2.448.292-39.151.292V30h37.955c.48.44 1.023 1.21 1.196 1.732zm-242 56.976V31.732c.173-.521.716-1.292 1.196-1.732h35.543v59c-38.834 0-36.277.161-36.739-.292zm38 30.292h164v34h-164v-34zm-63 348.98V195.27c0-4.398 8.76-12.27 17.38-12.27h258.24c7.776 0 15.38 7.026 15.38 12.27v174.071l-24.479 24.48c-24.07 24.07-25.683 62.211-4.86 88.179H47.396c-8.173 0-17.38-9.146-17.38-14.02zm344.098 3.418c-14.16 14.16-37.065 14.128-51.192 0l-5.172-5.172c-14.145-14.145-14.148-37.044 0-51.192l39.15-39.151 56.365 56.364-39.151 39.151z"/>
  </symbol>
  <symbol viewBox="0 0 512 512" id="pills_004" xmlns="http://www.w3.org/2000/svg">
    <path d="M31 0v512h450V0H31zm420 482H271v-31h-30v31H61V30h180v31h30V30h180v452z"/>
    <path
      d="M136 151h60c24.813 0 45-20.187 45-45s-20.187-45-45-45h-60c-24.813 0-45 20.187-45 45s20.187 45 45 45zm75-45c0 8.271-6.729 15-15 15h-15V91h15c8.271 0 15 6.729 15 15zm-75-15h15v30h-15c-8.271 0-15-6.729-15-15s6.729-15 15-15zm135 15c0 24.813 20.187 45 45 45h60c24.813 0 45-20.187 45-45s-20.187-45-45-45h-60c-24.813 0-45 20.187-45 45zm120 0c0 8.271-6.729 15-15 15h-15V91h15c8.271 0 15 6.729 15 15zm-75-15h15v30h-15c-8.271 0-15-6.729-15-15s6.729-15 15-15zM136 301h60c24.813 0 45-20.187 45-45s-20.187-45-45-45h-60c-24.813 0-45 20.187-45 45s20.187 45 45 45zm75-45c0 8.271-6.729 15-15 15h-15v-30h15c8.271 0 15 6.729 15 15zm-75-15h15v30h-15c-8.271 0-15-6.729-15-15s6.729-15 15-15zm60 120h-60c-24.813 0-45 20.187-45 45s20.187 45 45 45h60c24.813 0 45-20.187 45-45s-20.187-45-45-45zm-75 45c0-8.271 6.729-15 15-15h15v30h-15c-8.271 0-15-6.729-15-15zm75 15h-15v-30h15c8.271 0 15 6.729 15 15s-6.729 15-15 15zm180-210h-60c-24.813 0-45 20.187-45 45s20.187 45 45 45h60c24.813 0 45-20.187 45-45s-20.187-45-45-45zm-75 45c0-8.271 6.729-15 15-15h15v30h-15c-8.271 0-15-6.729-15-15zm75 15h-15v-30h15c8.271 0 15 6.729 15 15s-6.729 15-15 15zm0 90h-60c-24.813 0-45 20.187-45 45s20.187 45 45 45h60c24.813 0 45-20.187 45-45s-20.187-45-45-45zm-75 45c0-8.271 6.729-15 15-15h15v30h-15c-8.271 0-15-6.729-15-15zm75 15h-15v-30h15c8.271 0 15 6.729 15 15s-6.729 15-15 15zM234.787 180.998L256 159.785l21.213 21.213L256 202.211zM234.78 331l21.212-21.214L277.205 331l-21.213 21.213z"/>
  </symbol>
  <symbol viewBox="0 0 512 512" id="pills_02" xmlns="http://www.w3.org/2000/svg">
    <path
      d="M331.3 443c0-12.6-10.2-22.8-22.8-22.8-12.6 0-22.8 10.2-22.8 22.8 0 12.6 10.2 22.8 22.8 22.8 12.5 0 22.8-10.2 22.8-22.8zm-30.7 0c0-4.3 3.5-7.8 7.8-7.8s7.8 3.5 7.8 7.8-3.5 7.8-7.8 7.8-7.8-3.5-7.8-7.8zm200.7-162.9c14.3-23 14.5-51.9 0-75.2L454 129.2l-47.3-75.8C385.9 20.2 342 10 308.8 30.8c-16.1 10-27.3 25.8-31.6 44.2-.8 3.5-1.4 7-1.6 10.6-18.5-.9-36.6 5.4-50.6 17.9l-16.8 14.9c2 4.8 5.6 8.8 6.9 14l19.9-17.7c11.3-10.1 26-15.1 41-14 1.3 9.8 4.7 19.3 10.1 28l34.7 55.6c-3 5.3-6.8 10-11.4 14.1l-55.8 49.7c-4.1-1.5-8.3-2.7-12.5-3.4l-54.8-61.5c-.4.5-.8 1.1-1.2 1.6-.9 1.3-1.5 2.6-1.9 3.9.9 1.4 1.3 3 1 4.7-.5 2.6-1.5 4.6-3.2 6.4l39.4 44.3c-6.4.8-12.7 2.4-18.9 4.9-17.5 7.3-31.2 20.9-38.4 38.4-5.3 12.9-6.7 26.7-4.2 40.1-5 1.9-10.2 3.1-15.6 3.6-4.1.3-7.2 4-6.9 8.1.3 3.9 3.6 6.9 7.5 6.9h.6c6.5-.5 12.7-1.9 18.7-4.1 7.3 17.4 20.9 31 38.4 38.3l77.3 32c1.6.7 3.3 1 5 1 5.1 0 10-3 12.1-8.1l4.3-10.4c3.2 1.8 6.8 2.7 10.6 2.7 12.2 0 22.1-9.9 22.1-22.1 0-10-6.7-18.5-15.9-21.2l16.8-40.5 26.5 63.9c-11 3-19.1 13-19.1 25 0 14.3 11.6 25.9 25.9 25.9 11.2 0 20.8-7.1 24.4-17.3l74.7-30.9c36.2-15 53.4-56.6 38.4-92.8-.9-2.6-2.1-5.1-3.4-7.4zm-183.1 95.3c0 3.9-3.2 7.1-7.1 7.1-1.8 0-3.5-.7-4.7-1.9l5.1-12.3c3.7.2 6.7 3.3 6.7 7.1zM283 397.7l-75.6-31.3c-28.5-11.8-42.1-44.7-30.3-73.2s44.7-42.1 73.2-30.3l75.6 31.3L283 397.7zm51.1-116.4l-.6-.3-64.3-26.6 50.3-44.8c3.8-3.4 7.2-7.2 10.2-11.3l42.1 67.4-37 15.3c-.3.1-.5.2-.7.3zm33.2 132.2c-6 0-10.9-4.9-10.9-10.9 0-5.7 4.4-10.4 10-10.8l5.6 13.4c.8 1.9 2 3.5 3.4 4.8-2.1 2.1-4.9 3.5-8.1 3.5zM491 336c-5.7 13.8-16.5 24.6-30.3 30.3l-75.6 31.3-42.9-103.5 75.6-31.3c13.8-5.7 29.1-5.7 42.9 0 10.4 4.3 19.1 11.5 25.2 20.7.1.2.2.3.3.5 1.8 2.9 3.5 5.9 4.8 9.1 5.7 13.9 5.7 29.1 0 42.9zm.6-69.4c-6.9-7.6-15.5-13.6-25.2-17.6-17.5-7.3-36.8-7.3-54.4 0l-26.3 10.9-35.6-57.1 56.3-35.1c3.5-2.2 4.6-6.8 2.4-10.3s-6.8-4.6-10.3-2.4l-56.3 35.1-43.3-69.4c-5.1-8.2-8-17.4-8.4-26.8v-.6c-.2-4.9.3-9.9 1.4-14.9 3.4-14.6 12.2-27 24.9-34.9 26.2-16.4 60.8-8.3 77.2 17.9l43.3 69.4-8.9 5.5c-3.5 2.2-4.6 6.8-2.4 10.3 1.4 2.3 3.9 3.5 6.4 3.5 1.4 0 2.7-.4 4-1.1l8.9-5.5 43.3 69.4c10.2 16.4 11.2 36.6 3 53.7zm-378.3 58.6c-6.2-3.2-11.7-7.4-16.3-12.6-20.5-23.1-18.5-58.5 4.6-79.1l5.9-5.2c-4.4-1.3-9.7-4.6-12.8-8.7l-3 2.7c-14.2 12.6-22.6 30-23.7 48.9s5.2 37.2 17.9 51.3c5.9 6.6 12.9 12 20.7 16 1.1.6 2.3.8 3.4.8 2.7 0 5.4-1.5 6.7-4.1 1.8-3.6.3-8.1-3.4-10zm240.1 129.3c-12.2 0-22.1 9.9-22.1 22.1s9.9 22.1 22.1 22.1 22.1-9.9 22.1-22.1-10-22.1-22.1-22.1zm0 29.2c-3.9 0-7.1-3.2-7.1-7.1s3.2-7.1 7.1-7.1 7.1 3.2 7.1 7.1c-.1 3.9-3.2 7.1-7.1 7.1zm62.9-26.1c-15 0-27.2 12.2-27.2 27.2s12.2 27.2 27.2 27.2 27.2-12.2 27.2-27.2-12.2-27.2-27.2-27.2zm0 39.4c-6.7 0-12.2-5.5-12.2-12.2s5.5-12.2 12.2-12.2 12.2 5.5 12.2 12.2S423 497 416.3 497z"/>
    <path
      d="M214 120.2c-.9-1.9-.9-4.1 0-6.1l8.7-17.9c4.9-10 1-21.8-8.8-27l-17.6-9.3c-1.9-1-3.2-2.8-3.6-4.9l-3.4-19.6c-1.9-10.9-12-18.2-23-16.7l-19.7 2.8c-2.1.3-4.2-.4-5.8-1.9L126.6 5.8c-8-7.7-20.4-7.7-28.4 0L83.9 19.6c-1.5 1.5-3.6 2.2-5.8 1.9l-19.7-2.8c-11-1.6-21.1 5.8-23 16.7L32 55c-.4 2.1-1.7 3.9-3.6 4.9l-17.6 9.3C1 74.4-2.8 86.3 2 96.2l8.7 17.9c.9 1.9.9 4.1 0 6.1L2 138.1c-4.9 10-1 21.8 8.8 27l17.6 9.3c1.9 1 3.2 2.8 3.6 4.9l3.4 19.6c1.7 9.9 10.3 16.9 20.1 16.9 1 0 1.9-.1 2.9-.2l19.7-2.8c2.1-.3 4.2.4 5.8 1.9l14.3 13.8c4 3.9 9.1 5.8 14.2 5.8s10.2-1.9 14.2-5.8l14.3-13.8c1.5-1.5 3.6-2.2 5.8-1.9l19.7 2.8c11 1.6 21.1-5.8 23-16.7l3.4-19.6c.4-2.1 1.7-3.9 3.6-4.9l17.6-9.3c9.8-5.2 13.6-17.1 8.8-27l-8.8-17.9zm-6.4 32.9l-17.6 9.3c-5.6 3-9.4 8.3-10.5 14.5l-3.4 19.6c-.6 3.7-4.1 6.2-7.8 5.6l-19.7-2.8c-6.3-.9-12.5 1.1-17.1 5.5l-14.3 13.8c-2.7 2.6-6.9 2.6-9.6 0L93.3 205c-3.9-3.7-8.9-5.7-14.2-5.7-1 0-1.9.1-2.9.2l-19.7 2.8c-3.7.5-7.1-2-7.8-5.6L45.3 177c-1.1-6.2-4.9-11.5-10.5-14.5l-17.6-9.3c-3.3-1.8-4.6-5.8-3-9.1l8.7-17.9c2.8-5.7 2.8-12.2 0-17.9l-8.7-17.9c-1.6-3.4-.3-7.4 3-9.1L34.8 72c5.6-3 9.4-8.3 10.5-14.5l3.4-19.6c.6-3.7 4.1-6.2 7.8-5.6l19.7 2.8c6.3.9 12.5-1.1 17.1-5.5l14.3-13.8c2.7-2.6 6.9-2.6 9.6 0l14.3 13.8c4.6 4.4 10.8 6.4 17.1 5.5l19.7-2.8c3.7-.5 7.1 2 7.8 5.6l3.4 19.6c1.1 6.2 4.9 11.5 10.5 14.5l17.6 9.3c3.3 1.8 4.6 5.8 3 9.1l-8.7 17.9c-2.8 5.7-2.8 12.2 0 17.9l8.7 17.9c1.6 3.3.3 7.3-3 9z"/>
    <path
      d="M161.8 67.8c-2.6-2.6-6.9-2.6-9.6 0L63 157c-2.6 2.6-2.6 6.9 0 9.6 1.3 1.3 3 2 4.8 2 1.7 0 3.5-.7 4.8-2l89.2-89.2c2.6-2.7 2.6-7 0-9.6zM85.4 56.3c-13.7 0-24.8 11.1-24.8 24.8s11.1 24.8 24.8 24.8 24.8-11.1 24.8-24.8S99 56.3 85.4 56.3zm0 36.1c-6.2 0-11.3-5.1-11.3-11.3 0-6.2 5.1-11.3 11.3-11.3s11.3 5.1 11.3 11.3c-.1 6.2-5.1 11.3-11.3 11.3zM139.4 128.4c-13.7 0-24.8 11.1-24.8 24.8s11.1 24.8 24.8 24.8 24.8-11.1 24.8-24.8-11.1-24.8-24.8-24.8zm0 36c-6.2 0-11.3-5.1-11.3-11.3s5.1-11.3 11.3-11.3 11.3 5.1 11.3 11.3c0 6.3-5.1 11.3-11.3 11.3z"/>
  </symbol>
  <symbol viewBox="0 0 488.8 488.8" id="placeholder" xmlns="http://www.w3.org/2000/svg">
    <path
      d="M244.3 97.4c-56.4 0-102.2 45.9-102.2 102.2s45.8 102.3 102.2 102.3S346.5 256 346.5 199.7 300.7 97.4 244.3 97.4zm0 180c-42.9 0-77.7-34.9-77.7-77.7s34.9-77.7 77.7-77.7 77.7 34.9 77.7 77.7-34.8 77.7-77.7 77.7z"/>
    <path
      d="M244.3 0c-2.3 0-4.7 0-7 .1-98.6 3.4-180.1 80-189.5 178.1-1.8 19-.9 38.1 2.6 56.3 0 0 .3 2.3 1.4 6.6 3 13.5 7.5 26.6 13.2 38.8 20.3 48.1 64.8 122.2 161.4 202.4 5.1 4.2 11.5 6.5 18.1 6.5s13-2.3 18.1-6.5c96.5-80.1 141-154.3 161.2-202 5.8-12.5 10.3-25.7 13.3-39.1.6-2.4 1-4.4 1.3-6.3 2.4-12.3 3.6-24.9 3.6-37.5C441.8 88.6 353.2 0 244.3 0zm169.8 230.7c0 .2-.3 1.9-1 5-2.7 11.8-6.6 23.3-11.8 34.7-19.3 45.6-61.7 116.1-154.4 193-.9.7-1.8.9-2.5.9-.6 0-1.6-.2-2.5-.9-92.7-77-135.2-147.5-154.6-193.4-5.1-11-9-22.5-11.7-34.4-.6-2.6-.9-4.2-1-4.7 0-.2-.1-.4-.1-.6-3.1-16.3-3.9-33.1-2.3-49.7 8.3-85.9 79.6-153 166-156 98.1-3.4 179.1 75.4 179.1 172.9 0 11-1.1 22-3.2 33.2z"/>
  </symbol>
  <symbol class="bssvg-inline--fa bsfa-play bsfa-w-14" viewBox="0 0 448 512" id="play"
          xmlns="http://www.w3.org/2000/svg">
    <path
      d="M424.4 214.7L72.4 6.6C43.8-10.3 0 6.1 0 47.9V464c0 37.5 40.7 60.1 72.4 41.3l352-208c31.4-18.5 31.5-64.1 0-82.6z"/>
  </symbol>
  <symbol viewBox="0 0 477.9 477.9" id="play-button" xmlns="http://www.w3.org/2000/svg">
    <path
      d="M238.9 0C107 0 0 107 0 238.9s107 238.9 238.9 238.9 238.9-107 238.9-238.9C477.7 107 370.8.1 238.9 0zm0 443.7c-113.1 0-204.8-91.7-204.8-204.8S125.8 34.1 238.9 34.1s204.8 91.7 204.8 204.8C443.6 352 352 443.6 238.9 443.7z"/>
    <path
      d="M339.6 231.3c-1.7-3.3-4.3-6-7.7-7.7l-136.5-68.3c-8.4-4.2-18.7-.8-22.9 7.6-1.2 2.4-1.8 5-1.8 7.6V307c0 9.4 7.6 17.1 17.1 17.1 2.7 0 5.3-.6 7.6-1.8L331.9 254c8.4-4 11.9-14.2 7.7-22.7zm-134.8 48.3v-81.3l81.3 40.7-81.3 40.6z"/>
  </symbol>
  <symbol viewBox="0 0 511 511" id="price-tag" xmlns="http://www.w3.org/2000/svg">
    <path
      d="M464-1c-.6 0-1.1 0-1.7.1-3.3.3-76.2 7-103.6 60.2l-99-10.1c-24-2.4-47.5 5.9-64.5 23L24.3 242.4c-31.1 31.1-31 81.7 0 112.8l131 131.1c15.7 15.8 36.4 23.6 57 23.6 20.3 0 40.5-7.7 55.9-23 7.8-7.8 7.8-20.4 0-28.2-7.8-7.8-20.4-7.8-28.2 0-15.4 15.4-40.7 15.1-56.4-.6L52.5 327c-15.5-15.5-15.5-40.8 0-56.4l170.8-170.3c8.5-8.5 20.3-12.7 32.3-11.5l151.8 15.4 2 19.4c-27.7 10.3-54 12-54.6 12-11 .6-19.4 10-18.8 21 .6 10.6 9.4 18.9 19.9 18.9h1.1c1.3-.1 26.8-1.5 56.6-11.1l9.3 91.2c1.2 12-3 23.7-11.5 32.2l-97.4 96c-7.8 7.7-7.9 20.4-.2 28.2 7.7 7.8 20.4 7.9 28.2.2l97.4-96 .1-.1c17.1-17 25.4-40.6 23-64.5l-10.6-104c13.4-7.9 24.7-17.1 33.8-27.7 17.3-20.2 26-44.5 26-72.4v-.8C511.7 20.4 490.3-1 464-1zm7.8 48.6c0 22.3-8.1 40.4-24.5 54.7l-1.9-18.2c-1-9.4-8.4-16.9-17.8-17.8l-23.1-2.4c20.4-19.5 54.2-24.3 60.2-25 4 .4 7.1 3.7 7.1 7.8v.9zM310.1 291.3c-7.8 7.8-20.4 7.8-28.2 0-7.8-7.8-7.8-20.4 0-28.2 2.1-2.1 2.5-4.6 2.5-6.3-.1-2.7-1.3-5.4-3.3-7.4l-12.2-12.2c-3.2-3.2-7.2-4.9-11.5-5-3 0-7.2.7-11.1 4.6l-3.2 3.2c-6.5 6.5-6.7 17.2-.5 23.5l12.9 12.9c10.6 10.6 16.5 24.6 16.7 39.4.2 15-5.6 29.1-16.3 39.8l-1.5 1.5c-10.8 10.8-24.7 16.2-38.7 16.2-11.9 0-23.8-3.9-34-11.6l-8.4 8.1c-3.9 3.7-8.9 5.6-13.9 5.6-5.2 0-10.4-2-14.4-6.1-7.7-7.9-7.4-20.6.5-28.2l7.5-7.2c-8.4-9.1-13.2-20.7-13.4-32.9-.3-13.3 4.8-25.8 14.3-35.3 7.8-7.8 20.4-7.8 28.2 0 7.8 7.8 7.8 20.4 0 28.2-1.8 1.8-2.6 3.9-2.6 6.2.1 2.5 1.2 5.1 3.2 7.1l21 21c6.6 6.6 16.2 6.9 22.3.8l1.5-1.5c3-3 4.6-7 4.6-11.2 0-4.3-1.8-8.4-5-11.6l-12.9-12.9c-21.9-21.9-21.6-57.7.5-79.9l3.2-3.2c10.5-10.5 24.4-16.3 39.1-16.3h.6c10.2.1 20 3 28.6 8.2l8.6-8.8c7.7-7.9 20.3-8.1 28.2-.5 7.9 7.7 8.1 20.3.5 28.2l-8.5 8.7c5.7 8.1 8.9 17.6 9.2 27.5.4 13.4-4.6 26.1-14.1 35.6z"/>
  </symbol>
  <symbol viewBox="0 0 64 64" id="return" xmlns="http://www.w3.org/2000/svg">
    <path
      d="M54.561 35.54c.273-.452.439-.975.439-1.54V22c0-1.654-1.346-3-3-3H38c-.352 0-.686.072-1 .184V9h2V1H1v8h2v26.184A2.996 2.996 0 001 38v2c0 1.654 1.346 3 3 3h47c2.206 0 4 1.794 4 4s-1.794 4-4 4H27v-1.773A2.23 2.23 0 0024.773 47c-.688 0-1.363.188-1.951.541l-8.479 5.087C13.515 53.125 13 54.034 13 55s.515 1.875 1.343 2.372l8.479 5.087a3.786 3.786 0 001.951.541A2.23 2.23 0 0027 60.773V59h24c6.617 0 12-5.383 12-12 0-5.378-3.555-9.94-8.439-11.46zM43 21h4v4h-4zm-5 0h3v6h8v-6h3c.551 0 1 .449 1 1v12c0 .552-.449 1-1 1H38c-.551 0-1-.448-1-1V22c0-.551.449-1 1-1zm-3 1v12c0 .352.072.686.184 1h-2.369c.113-.314.185-.648.185-1V22a2.996 2.996 0 00-2-2.816V13H15v22h-4V9h24zm-6-3H17v-4h12zm-8 2h4v4h-4zm-4 0h2v6h8v-6h3c.551 0 1 .449 1 1v12c0 .552-.449 1-1 1H17zM37 7H9V3h28zM3 3h4v4H3zm6 6v26H5V9zm42 48H25v3.773a.227.227 0 01-.227.227c-.325 0-.643-.088-.922-.256l-8.479-5.087A.77.77 0 0115 55a.77.77 0 01.372-.657l8.48-5.087c.278-.168.597-.256.921-.256.125 0 .227.102.227.227V53h26c3.309 0 6-2.691 6-6s-2.691-6-6-6H4c-.551 0-1-.448-1-1v-2c0-.552.449-1 1-1h47c5.514 0 10 4.486 10 10s-4.486 10-10 10zM1 54h2v2H1zm4 0h2v2H5zm4 0h2v2H9z"/>
  </symbol>
  <symbol viewBox="0 0 512 512" id="right-arrow" xmlns="http://www.w3.org/2000/svg">
    <path
      d="M80 272h319.2L277 388.4c-6.4 6.1-6.6 16.2-.6 22.6 6.1 6.4 16.2 6.6 22.6.6l139.6-133c6-6 9.4-14.1 9.4-22.6 0-8.5-3.3-16.6-9.7-22.9L299 100.4c-3.1-3-7.1-4.4-11-4.4-4.2 0-8.4 1.7-11.6 5-6.1 6.4-5.8 16.5.6 22.6L399.7 240H80c-8.8 0-16 7.2-16 16s7.2 16 16 16z"/>
  </symbol>
  <symbol viewBox="0 0 330 330" id="search_magnific" xmlns="http://www.w3.org/2000/svg">
    <path
      d="M325.606 304.394L223.328 202.117c16.707-21.256 26.683-48.041 26.683-77.111C250.011 56.077 193.934 0 125.005 0 56.077 0 0 56.077 0 125.006 0 193.933 56.077 250.01 125.005 250.01c29.07 0 55.855-9.975 77.11-26.681l102.278 102.277c2.929 2.93 6.768 4.394 10.607 4.394s7.678-1.464 10.606-4.394c5.859-5.857 5.859-15.355 0-21.212zM30 125.006C30 72.619 72.619 30 125.005 30c52.387 0 95.006 42.619 95.006 95.005s-42.619 95.004-95.006 95.004C72.619 220.01 30 177.391 30 125.006z"/>
  </symbol>
  <symbol viewBox="0 0 496 496" id="shopping-bag" xmlns="http://www.w3.org/2000/svg">
    <path
      d="M256 200c0-10.416-6.712-19.216-16-22.528V144h64v144h16V144h48v144h16V128h-80V80c0-44.112-35.888-80-80-80-11.376 0-22.192 2.424-32 6.728C182.192 2.424 171.376 0 160 0c-44.112 0-80 35.888-80 80v48H0v368h208v-16H16V144h64v33.472c-9.288 3.312-16 12.112-16 22.528 0 13.232 10.768 24 24 24s24-10.768 24-24c0-10.416-6.712-19.216-16-22.528V144h128v33.472c-9.288 3.312-16 12.112-16 22.528 0 13.232 10.768 24 24 24s24-10.768 24-24zm-168 8c-4.408 0-8-3.592-8-8s3.592-8 8-8 8 3.592 8 8-3.592 8-8 8zM224 16c35.288 0 64 28.712 64 64v48h-48V80c0-25.224-11.76-47.72-30.056-62.392C214.472 16.584 219.168 16 224 16zm-80 112H96V80c0-35.288 28.712-64 64-64 4.832 0 9.528.584 14.056 1.608C155.76 32.28 144 54.776 144 80v48zm16 0V80c0-23.624 12.904-44.256 32-55.344C211.096 35.744 224 56.368 224 80v48h-64zm64 72c0-4.408 3.592-8 8-8s8 3.592 8 8-3.592 8-8 8-8-3.592-8-8z"/>
    <path
      d="M472 304H248c-13.232 0-24 10.768-24 24v144c0 13.232 10.768 24 24 24h224c13.232 0 24-10.768 24-24V328c0-13.232-10.768-24-24-24zm8 168c0 4.408-3.592 8-8 8H248c-4.408 0-8-3.592-8-8v-88h240v88zm0-104H240v-16h240v16zm0-32H240v-8c0-4.408 3.592-8 8-8h224c4.408 0 8 3.592 8 8v8z"/>
    <path
      d="M384 464c9.6 0 18.128-4.336 24-11.056 5.872 6.72 14.4 11.056 24 11.056 17.648 0 32-14.352 32-32s-14.352-32-32-32c-9.6 0-18.128 4.336-24 11.056-5.872-6.72-14.4-11.056-24-11.056-17.648 0-32 14.352-32 32s14.352 32 32 32zm48-48c8.824 0 16 7.176 16 16s-7.176 16-16 16-16-7.176-16-16 7.176-16 16-16zm-48 0c8.824 0 16 7.176 16 16s-7.176 16-16 16-16-7.176-16-16 7.176-16 16-16zm-48-256h16v128h-16z"/>
  </symbol>
  <symbol viewBox="0 0 512 512" id="shopping-cart" xmlns="http://www.w3.org/2000/svg">
    <path
      d="M507.519 116.384A20 20 0 00492 109H129.736l-1.484-13.632-.053-.438C121.099 40.812 74.583 0 20 0 8.954 0 0 8.954 0 20s8.954 20 20 20c34.506 0 63.923 25.749 68.512 59.928l23.773 218.401C91.495 327.765 77 348.722 77 373c0 .167.002.334.006.5-.004.166-.006.333-.006.5 0 33.084 26.916 60 60 60h8.138A58.757 58.757 0 00142 453c0 32.532 26.467 59 59 59s59-26.468 59-59a58.757 58.757 0 00-3.138-19h86.277a58.757 58.757 0 00-3.138 19c0 32.532 26.467 59 59 59s59-26.468 59-59-26.467-59-59-59H137c-11.028 0-20-8.972-20-20 0-.167-.002-.334-.006-.5.004-.166.006-.333.006-.5 0-11.028 8.972-20 20-20h255.331c35.503 0 68.084-21.966 83.006-55.962 4.439-10.114-.161-21.912-10.275-26.352-10.114-4.439-21.912.161-26.352 10.275C430.299 300.125 411.661 313 392.331 313h-240.39L134.09 149h333.308l-9.786 46.916c-2.255 10.813 4.682 21.407 15.495 23.662 1.377.288 2.75.426 4.104.426 9.272 0 17.59-6.484 19.558-15.92l14.809-71a19.998 19.998 0 00-4.059-16.7zM399 434c10.477 0 19 8.523 19 19s-8.523 19-19 19-19-8.523-19-19 8.523-19 19-19zm-198 0c10.477 0 19 8.524 19 19 0 10.477-8.523 19-19 19s-19-8.523-19-19 8.523-19 19-19z"/>
  </symbol>
  <symbol viewBox="0 0 512 512" id="step_01" xmlns="http://www.w3.org/2000/svg">
    <path
      d="M328 256c57.4 0 104-46.6 104-104S385.4 48 328 48 224 94.6 224 152c.1 57.4 46.6 103.9 104 104zm0-192c48.6 0 88 39.4 88 88s-39.4 88-88 88-88-39.4-88-88c.1-48.6 39.4-87.9 88-88z"/>
    <path d="M272 152c0-30.9 25.1-56 56-56V80c-39.7 0-72 32.3-72 72h16zm48 184h16v16h-16v-16zm0 32h16v96h-16v-96z"/>
    <path
      d="M472 64h-40.5C383.1 6.8 297.5-.3 240.3 48.1c-5.7 4.8-11 10.2-15.9 15.9H40c-13.2 0-24 10.8-24 24v288c0 13.2 10.8 24 24 24h168v48h-48c-13.2 0-24 10.8-24 24v16c0 4.4 3.6 8 8 8h184c22.1 0 40-17.9 40-40v-56h104c13.2 0 24-10.8 24-24V88c0-13.2-10.8-24-24-24zM328 32c66.3 0 120 53.7 120 120s-53.7 120-120 120-120-53.7-120-120c.1-66.2 53.8-119.9 120-120zm8 255.6V304h-16v-16.4c2.6.2 5.3.4 8 .4s5.4-.2 8-.4zM146.3 183l22.6-22.6c6.3-6.2 16.4-6.2 22.7 0 .3.3.6.7.9 1 .4 5.7 1.1 11.5 2.2 17.1-.7 1.7-1.7 3.2-3 4.5L169 205.7 146.3 183zm11.4 34l-22.6 22.6c-6.3 6.2-16.4 6.2-22.7 0-3-3-4.7-7-4.7-11.3 0-4.3 1.7-8.4 4.7-11.4l22.6-22.6 22.7 22.7zm34.8-74.8c-12-4.9-25.7-2.2-34.9 6.9L101 205.7c-12.4 12.7-12.1 33 .5 45.3 12.5 12.2 32.4 12.2 44.8 0l53.5-53.6c6.2 17.3 15.7 33.1 28.2 46.6-24.3 42-78.1 56.3-120.1 32s-56.3-78.1-32-120.1c24.1-41.6 77.2-56.1 119.1-32.5-1.2 6.1-2.1 12.4-2.5 18.8zM32 88c0-4.4 3.6-8 8-8h172.8c-5.4 8.6-9.8 17.9-13.2 27.5-51.1-26.3-113.8-6.2-140.1 44.9s-6.2 113.8 44.9 140.1c48 24.7 106.8 8.6 135.6-37 18.2 15.6 40.3 26.1 64 30.3V304h-8c-4.4 0-8 3.6-8 8v8H32V88zm8 296c-4.4 0-8-3.6-8-8v-40h256v48H40zm248 16v48h-64v-48h64zm-136 80v-8c0-4.4 3.6-8 8-8h128.8c1.2 5.8 3.8 11.3 7.4 16H152zm200-24c0 13.3-10.7 24-24 24s-24-10.7-24-24V320h48v136zm128-80c0 4.4-3.6 8-8 8H368v-48h112v40zm0-56H368v-8c0-4.4-3.6-8-8-8h-8v-18.2c73.8-13.1 123-83.5 109.9-157.2-3.1-17.2-9.4-33.7-18.7-48.5H472c4.4 0 8 3.6 8 8V320z"/>
    <path d="M448 352h16v16h-16v-16zm-32 0h16v16h-16v-16z"/>
  </symbol>
  <symbol viewBox="0 0 512 512" id="step_02" xmlns="http://www.w3.org/2000/svg">
    <path
      d="M89.9 355.5c4.1 0 7.5-3.4 7.5-7.5V15H339c4.1 0 7.5-3.4 7.5-7.5S343.1 0 339 0H96c-7.5 0-13.6 6.1-13.6 13.6V348c0 4.2 3.4 7.5 7.5 7.5zM416 0h-41.8c-4.1 0-7.5 3.4-7.5 7.5s3.4 7.5 7.5 7.5h40.4v476.8l-18.3-12c-4.5-3-10.4-3-14.9 0l-25.8 16.9-25.8-16.9c-4.5-3-10.4-3-14.9 0l-25.8 16.9-25.8-16.9c-4.5-3-10.4-3-14.9 0l-25.8 16.9-25.6-16.8c-4.5-3-10.4-3-14.9 0l-25.8 16.9-25.8-16.9c-4.5-3-10.4-3-14.9 0l-18.3 12V383.1c0-4.1-3.4-7.5-7.5-7.5s-7.5 3.4-7.5 7.5v111.3c0 5 2.7 9.6 7.1 12 4.4 2.4 9.7 2.2 13.9-.6l19.7-12.9 25.8 16.9c2.3 1.5 4.9 2.2 7.4 2.2s5.2-.7 7.4-2.2l25.8-16.9 25.8 16.9c4.5 3 10.4 3 14.9 0l25.8-16.9 25.8 16.9c4.5 3 10.4 3 14.9 0l25.8-16.9 25.8 16.9c4.5 3 10.4 3 14.9 0l25.8-16.9 19.7 12.9c4.2 2.7 9.5 3 13.9.6s7.1-7 7.1-12V13.6C429.6 6.1 423.5 0 416 0z"/>
    <path
      d="M266 59.7h-20c-8.6 0-15.5 7-15.5 15.5v22.5c0 .3-.2.5-.5.5h-22.5c-8.6 0-15.5 7-15.5 15.5v20.1c0 8.6 7 15.5 15.5 15.5H230c.3 0 .5.2.5.5v22.5c0 8.6 7 15.5 15.5 15.5h20c8.5 0 15.5-7 15.5-15.5v-22.5c0-.3.2-.5.5-.5h22.5c8.5 0 15.5-7 15.5-15.5v-20.1c0-8.5-7-15.5-15.5-15.5H282c-.3 0-.5-.2-.5-.5V75.2c.1-8.5-6.9-15.5-15.5-15.5zm16.1 53.5h22.5c.3 0 .5.2.5.5v20.1c0 .3-.2.5-.5.5h-22.5c-8.5 0-15.5 7-15.5 15.5v22.5c0 .3-.2.5-.5.5H246c-.3 0-.5-.2-.5-.5v-22.5c0-8.6-7-15.5-15.5-15.5h-22.5c-.3 0-.5-.2-.5-.5v-20.1c0-.3.2-.5.5-.5H230c8.6 0 15.5-7 15.5-15.5V75.2c0-.3.2-.5.5-.5h20c.3 0 .5.2.5.5v22.5c0 8.6 7 15.5 15.6 15.5zm16.2 323.3c2.4 4.9 7.2 7.6 13.2 7.2 4.2-.2 7.3-2.4 9.8-4.4 2.4-1.9 4.6-4 6.7-6.2 4.1 5.6 11.4 8.9 19 8.4 6.9-.5 13.7-3.8 19.7-9.6 3-2.9 3-7.6.2-10.6s-7.6-3-10.6-.2c-3.4 3.3-7 5.2-10.3 5.5-2.7.2-5.7-1.3-6.4-3.2-.9-2.3.3-6.3 1.1-9.2 1.1-3.7-.9-7.7-4.5-9.1-3.6-1.4-7.7.2-9.4 3.7-3.5 7.2-8.7 13.8-14.9 18.8h-.1c.2-2.2 1.1-5.8 3.2-11.1 2.8-6.8 6-12.1 6.8-13 2.8-3.1 2.5-7.8-.6-10.6s-7.8-2.5-10.6.6c-9 10-18.6 19.3-28.9 27.9 8-17.7 16.4-35.3 25.2-52.5 1.9-3.7.4-8.2-3.3-10.1-3.7-1.9-8.2-.4-10.1 3.3-13.3 26-25.8 52.8-37.1 79.7-2.1 4.9 1.6 10.4 6.9 10.4 1.5 0 2.9-.4 4.2-1.3 10.2-6.9 19.9-14.5 29.1-22.6.1 3.1.6 5.8 1.7 8.2zm-25.5-193.6H148.6c-4.1 0-7.5-3.4-7.5-7.5s3.4-7.5 7.5-7.5h124.1c4.1 0 7.5 3.4 7.5 7.5s-3.3 7.5-7.4 7.5zm90.6 0h-26.8c-4.1 0-7.5-3.4-7.5-7.5s3.4-7.5 7.5-7.5h26.8c4.1 0 7.5 3.4 7.5 7.5s-3.4 7.5-7.5 7.5zm-142.1 43.7h-72.7c-4.1 0-7.5-3.4-7.5-7.5s3.4-7.5 7.5-7.5h72.7c4.1 0 7.5 3.4 7.5 7.5s-3.3 7.5-7.5 7.5zm142.1 0h-26.8c-4.1 0-7.5-3.4-7.5-7.5s3.4-7.5 7.5-7.5h26.8c4.1 0 7.5 3.4 7.5 7.5s-3.4 7.5-7.5 7.5zM272.8 330.3H148.6c-4.1 0-7.5-3.4-7.5-7.5s3.4-7.5 7.5-7.5h124.1c4.1 0 7.5 3.4 7.5 7.5s-3.3 7.5-7.4 7.5zm90.6 0h-26.8c-4.1 0-7.5-3.4-7.5-7.5s3.4-7.5 7.5-7.5h26.8c4.1 0 7.5 3.4 7.5 7.5s-3.4 7.5-7.5 7.5z"/>
  </symbol>
  <symbol viewBox="0 0 512 512" id="step_03" xmlns="http://www.w3.org/2000/svg">
    <path
      d="M476.2 286.9l-13.3-53c3.6-.8 6.3-4 6.3-7.8v-8.6c0-18.6-15.1-33.7-33.7-33.7h-60.4v-17.6c0-9.1-7.4-16.6-16.6-16.6H246.3l68.2-27.3c4.1-1.6 6.1-6.3 4.5-10.4-1.6-4.1-6.3-6.1-10.4-4.5l-55.9 22.3c17-10.9 33.9-22.9 40.3-31.4 12.5-16.4 9.3-39.8-7-52.3-16.4-12.5-39.8-9.3-52.3 7-9.1 12-21.2 45.6-28.9 69.3C197 98.6 185 65 175.9 53c-12.5-16.4-36-19.5-52.3-7s-19.5 36-7 52.3c6.4 8.4 23.3 20.4 40.3 31.4L101 107.4c-4.1-1.6-8.8.4-10.4 4.5-1.6 4.1.4 8.8 4.5 10.4l68.2 27.3H50.8c-9.1 0-16.6 7.4-16.6 16.6v145.4c0 4.4 3.6 8 8 8s8-3.6 8-8V166.2c0-.3.2-.5.5-.5h307.8c.3 0 .5.2.5.5v145.4c0 4.4 3.6 8 8 8s8-3.6 8-8v-9.1h94.6c11.6 0 21.5 7.6 24.9 18.2h-24.9c-4.4 0-8 3.6-8 8v17.1c0 13.9 11.3 25.1 25.1 25.1h9.1v35.3h-21c-6.9-19.9-25.8-34.2-48-34.2s-41.1 14.3-48 34.2h-3.9v-60.4c0-4.4-3.6-8-8-8s-8 3.6-8 8v60.4H192.8c-6.9-19.9-25.8-34.2-48-34.2s-41.1 14.3-48 34.2h-46c-.3 0-.5-.2-.5-.5V388H85c4.4 0 8-3.6 8-8s-3.6-8-8-8H8c-4.4 0-8 3.6-8 8s3.6 8 8 8h26.2v17.6c0 9.1 7.4 16.6 16.6 16.6h43.3v.5c0 28 22.8 50.8 50.8 50.8s50.8-22.8 50.8-50.8v-.5h180.7v.5c0 28 22.8 50.8 50.8 50.8s50.8-22.8 50.8-50.8v-.5h26c4.4 0 8-3.6 8-8v-85.5c0-21.1-15.6-38.7-35.8-41.8zM172.9 121.1c-31.6-19.7-41-28.7-43.8-32.3-7.1-9.3-5.3-22.7 4-29.9 3.9-2.9 8.4-4.4 12.9-4.4 6.4 0 12.8 2.9 17 8.4 7.8 10.2 19.9 44.4 27.9 69.1-5.4-3.2-11.6-7-18-10.9zm45.6 10.8c8-24.7 20.2-58.9 27.9-69.1 7.1-9.3 20.5-11.1 29.9-4 9.3 7.1 11.1 20.5 4 29.9-2.8 3.6-12.2 12.7-43.8 32.3-6.4 4-12.6 7.8-18 10.9zm156.7 68h60.4c9.7 0 17.6 7.9 17.6 17.6v.5h-78v-18.1zm0 86.6v-52.4h71.2l13.1 52.4h-84.3zm-230.4 171c-19.2 0-34.7-15.6-34.7-34.7s15.6-34.7 34.7-34.7 34.7 15.6 34.7 34.7-15.5 34.7-34.7 34.7zm282.2 0c-19.2 0-34.7-15.6-34.7-34.7S407.9 388 427 388c19.2 0 34.7 15.6 34.7 34.7s-15.5 34.8-34.7 34.8zm69-102.6h-9.1c-5 0-9.1-4.1-9.1-9.1v-9.1H496v18.2z"/>
    <path
      d="M144.8 406.2c-9.1 0-16.6 7.4-16.6 16.6s7.4 16.6 16.6 16.6c9.1 0 16.6-7.4 16.6-16.6s-7.4-16.6-16.6-16.6zm282.2 0c-9.1 0-16.6 7.4-16.6 16.6s7.4 16.6 16.6 16.6 16.6-7.4 16.6-16.6-7.4-16.6-16.6-16.6zM333 372H213.2c-4.4 0-8 3.6-8 8s3.6 8 8 8H333c4.4 0 8-3.6 8-8s-3.6-8-8-8zm-205.3-34.2H25.1c-4.4 0-8 3.6-8 8s3.6 8 8 8h102.6c4.4 0 8-3.6 8-8s-3.5-8-8-8zm0-119.8H93.5c-4.4 0-8 3.6-8 8v68.4c0 4.4 3.6 8 8 8s8-3.6 8-8v-26.2h17.6c4.4 0 8-3.6 8-8s-3.6-8-8-8h-17.6V234h26.2c4.4 0 8-3.6 8-8s-3.5-8-8-8zm63.1 54c8-5.3 13.3-14.3 13.3-24.6 0-16.2-13.2-29.4-29.4-29.4h-21.4c-4.4 0-8 3.6-8 8v68.4c0 4.4 3.6 8 8 8s8-3.6 8-8v-17.6h13.3l14.7 22.1c1.5 2.3 4.1 3.6 6.7 3.6 1.5 0 3.1-.4 4.4-1.3 3.7-2.5 4.7-7.4 2.2-11.1L190.8 272zm-16-11.2h-13.4v-26.7h13.4c7.4 0 13.4 6 13.4 13.4-.1 7.3-6.1 13.3-13.4 13.3zm81.2 25.7h-26.2v-18.2h17.6c4.4 0 8-3.6 8-8s-3.6-8-8-8h-17.6v-18.2H256c4.4 0 8-3.6 8-8s-3.6-8-8-8h-34.2c-4.4 0-8 3.6-8 8v68.4c0 4.4 3.6 8 8 8H256c4.4 0 8-3.6 8-8s-3.6-8-8-8zm59.9 0h-26.2v-18.2h9.1c4.4 0 8-3.6 8-8s-3.6-8-8-8h-9.1v-18.2h26.2c4.4 0 8-3.6 8-8s-3.6-8-8-8h-34.2c-4.4 0-8 3.6-8 8v68.4c0 4.4 3.6 8 8 8h34.2c4.4 0 8-3.6 8-8s-3.6-8-8-8z"/>
  </symbol>
  <symbol viewBox="0 0 100 100" id="steps_circle" xmlns="http://www.w3.org/2000/svg">
    <path
      d="M50.1 99.5c-1.4 0-2.7-.1-4.1-.2-.3 0-.5-.3-.5-.5 0-.3.3-.5.5-.5 1.3.1 2.6.1 4 .2.8 0 1.7 0 2.5-.1.3 0 .5.2.5.5s-.2.5-.5.5c-.7.1-1.6.1-2.4.1zm6.5-.5c-.2 0-.5-.2-.5-.4 0-.3.2-.5.4-.6 1.3-.2 2.6-.4 3.9-.7.3-.1.5.1.6.4.1.3-.1.5-.4.6-1.3.3-2.7.6-4 .7zm-14.5-.2s-.1 0 0 0c-1.4-.2-2.7-.5-4-.8-.3-.1-.4-.3-.4-.6.1-.3.3-.4.6-.4 1.3.3 2.6.6 3.8.8.3 0 .5.3.4.6 0 .3-.2.4-.4.4zm22.2-1.5c-.2 0-.4-.1-.5-.4-.1-.3.1-.5.3-.6 1.2-.4 2.5-.8 3.7-1.3.3-.1.5 0 .7.3.1.3 0 .5-.3.7-1.2.5-2.5.9-3.8 1.3h-.1zm-29.9-.4h-.2c-1.3-.4-2.5-.9-3.7-1.5-.3-.1-.4-.4-.3-.7.1-.3.4-.4.7-.3 1.2.5 2.4 1 3.7 1.4.3.1.4.4.3.6-.1.4-.3.5-.5.5zm37.3-2.5c-.2 0-.4-.1-.4-.3-.1-.2 0-.5.2-.7 1.2-.6 2.3-1.2 3.4-1.9.2-.1.5-.1.7.2.1.2.1.5-.2.7-1.1.7-2.3 1.3-3.5 1.9-.1.1-.1.1-.2.1zm-44.6-.7c-.1 0-.2 0-.2-.1-1.2-.6-2.3-1.3-3.5-2-.2-.2-.3-.5-.1-.7.2-.2.5-.3.7-.1 1.1.7 2.2 1.4 3.4 2 .2.1.3.4.2.7-.2.1-.3.2-.5.2zm51.4-3.4c-.2 0-.3-.1-.4-.2-.2-.2-.1-.5.1-.7 1.1-.8 2.1-1.6 3.1-2.4.2-.2.5-.2.7.1.2.2.2.5-.1.7-1 .9-2.1 1.7-3.1 2.5-.1-.1-.2 0-.3 0zm-58.1-.9c-.1 0-.2 0-.3-.1-1.1-.8-2.1-1.7-3.1-2.6-.2-.2-.2-.5 0-.7.2-.2.5-.2.7 0 1 .9 2 1.7 3 2.5.2.2.3.5.1.7-.1.2-.2.2-.4.2zm64.1-4.3c-.1 0-.3 0-.4-.1-.2-.2-.2-.5 0-.7.9-.9 1.8-1.9 2.6-2.9.2-.2.5-.2.7-.1.2.2.2.5.1.7l-2.7 3c-.1 0-.2.1-.3.1zm-69.9-1c-.1 0-.3-.1-.4-.2-.9-1-1.8-2-2.6-3-.2-.2-.1-.5.1-.7.2-.2.5-.1.7.1.8 1 1.7 2 2.6 3 .2.2.2.5 0 .7-.2 0-.3.1-.4.1zm75-5.1c-.1 0-.2 0-.3-.1-.2-.2-.3-.5-.1-.7.8-1.1 1.5-2.2 2.1-3.3.1-.2.4-.3.7-.2.2.1.3.4.2.7-.7 1.1-1.4 2.3-2.2 3.4-.1.1-.3.2-.4.2zm-80-1.1c-.2 0-.3-.1-.4-.2-.7-1.1-1.4-2.3-2.1-3.4-.1-.2 0-.5.2-.7.2-.1.5 0 .7.2.6 1.1 1.3 2.3 2 3.4.2.2.1.5-.1.7-.1-.1-.2 0-.3 0zm84-5.7c-.1 0-.1 0-.2-.1-.2-.1-.4-.4-.2-.7.6-1.2 1.1-2.4 1.6-3.6.1-.3.4-.4.6-.3.3.1.4.4.3.6-.5 1.2-1 2.5-1.6 3.7-.1.3-.3.4-.5.4zM5.8 70.9c-.2 0-.4-.1-.5-.3-.5-1.2-1.1-2.5-1.5-3.7-.1-.3 0-.5.3-.6.3-.1.5 0 .6.3.4 1.2.9 2.5 1.5 3.6.1.3 0 .5-.3.7h-.1zm90.7-6.1h-.1c-.3-.1-.4-.4-.3-.6.4-1.3.7-2.5 1-3.8.1-.3.3-.4.6-.4.3.1.4.3.4.6-.3 1.3-.6 2.6-1 3.9-.2.1-.4.3-.6.3zM3.1 63.4c-.2 0-.4-.1-.5-.4l-.9-3.9c0-.3.1-.5.4-.6.3 0 .5.1.6.4.2 1.3.5 2.6.8 3.8.1.3-.1.5-.4.6.1.1.1.1 0 .1zm95-6.4c-.3 0-.5-.3-.5-.6.2-1.3.3-2.6.3-3.9 0-.3.2-.5.5-.5s.5.2.5.5c-.1 1.3-.2 2.7-.3 4 0 .3-.2.5-.5.5zM1.7 55.6c-.3 0-.5-.2-.5-.5-.1-1.3-.2-2.7-.2-4 0-.3.2-.5.5-.5s.5.2.5.5c0 1.3.1 2.6.2 3.9.1.3-.1.6-.5.6.1 0 0 0 0 0zM98.4 49c-.3 0-.5-.2-.5-.5l-.3-3.9c0-.3.2-.5.4-.6.3 0 .5.2.6.4.2 1.3.3 2.7.3 4 .1.4-.2.6-.5.6.1 0 .1 0 0 0zM1.6 47.7c-.3 0-.5-.3-.5-.5.1-1.3.2-2.7.4-4 0-.3.3-.5.6-.4.3 0 .5.3.4.6-.2 1.3-.3 2.6-.4 3.9 0 .2-.2.4-.5.4zm95.9-6.5c-.2 0-.4-.2-.5-.4-.3-1.3-.6-2.6-1-3.8-.1-.3.1-.5.3-.6.3-.1.5.1.6.3.4 1.3.7 2.6 1 3.9.1.3-.1.5-.4.6.1 0 0 0 0 0zM2.8 39.8h-.1c-.3-.1-.4-.3-.4-.6.3-1.3.7-2.6 1.1-3.9.1-.2.4-.4.6-.3.3.1.4.4.3.6-.4 1.2-.8 2.5-1.1 3.8 0 .3-.2.4-.4.4zm92.4-6.3c-.2 0-.4-.1-.5-.3-.5-1.2-1-2.4-1.6-3.6-.1-.2 0-.5.2-.7.2-.1.5 0 .7.2.6 1.2 1.1 2.4 1.6 3.7.1.3 0 .5-.3.6.1.1 0 .1-.1.1zM5.3 32.3h-.2c-.3-.1-.4-.4-.3-.7.5-1.2 1.1-2.5 1.7-3.6.1-.2.4-.3.7-.2.2.1.3.4.2.7-.6 1.2-1.2 2.4-1.7 3.6-.1.1-.2.2-.4.2zm86.5-5.9c-.2 0-.3-.1-.4-.2l-2.1-3.3c-.2-.2-.1-.5.1-.7.2-.2.5-.1.7.1.8 1.1 1.5 2.2 2.2 3.4.1.2.1.5-.2.7h-.3zM8.9 25.2c-.1 0-.2 0-.3-.1-.2-.1-.3-.5-.2-.7.7-1.1 1.5-2.2 2.3-3.3.2-.2.5-.3.7-.1.2.2.3.5.1.7-.8 1-1.5 2.1-2.2 3.2 0 .2-.2.3-.4.3zm78.3-5.3c-.1 0-.3-.1-.4-.2-.8-1-1.7-2-2.6-2.9-.2-.2-.2-.5 0-.7.2-.2.5-.2.7 0l2.7 3c.2.2.1.5-.1.7-.1.1-.2.1-.3.1zm-73.5-1c-.1 0-.2 0-.3-.1-.2-.2-.2-.5 0-.7.9-1 1.8-2 2.8-2.9.2-.2.5-.2.7 0 .2.2.2.5 0 .7-.9.9-1.9 1.9-2.7 2.8-.2.1-.4.2-.5.2zm67.9-4.6c-.1 0-.2 0-.3-.1-1-.9-2-1.7-3.1-2.4-.2-.3-.2-.6-.1-.8.2-.2.5-.3.7-.1 1.1.8 2.1 1.6 3.1 2.5.2.2.2.5.1.7-.1.1-.2.2-.4.2zm-62.2-.9c-.1 0-.3-.1-.4-.2-.2-.2-.1-.5.1-.7 1-.8 2.1-1.6 3.2-2.4.2-.2.5-.1.7.1.2.2.1.5-.1.7-1.1.7-2.1 1.5-3.1 2.4-.2 0-.3.1-.4.1zm55.8-3.8c-.1 0-.2 0-.3-.1-1.1-.7-2.3-1.3-3.4-1.9-.2-.1-.3-.4-.2-.7.1-.2.4-.3.7-.2 1.2.6 2.4 1.3 3.5 1.9.2.1.3.5.2.7-.1.2-.3.3-.5.3zM26 8.9c-.2 0-.3-.1-.4-.3-.1-.2-.1-.5.2-.7 1.2-.7 2.4-1.3 3.6-1.8.3-.1.5 0 .7.2.1.3 0 .5-.2.7-1.2.6-2.4 1.2-3.5 1.8-.3.1-.3.1-.4.1zM68.1 6h-.2c-1.2-.5-2.5-.9-3.7-1.3-.2-.1-.4-.4-.3-.7.1-.3.4-.4.6-.3 1.3.4 2.5.8 3.8 1.3.3.1.4.4.3.7-.1.2-.3.3-.5.3zm-34.9-.5c-.2 0-.4-.1-.5-.3-.1-.3 0-.5.3-.6 1.2-.5 2.5-.9 3.8-1.2.3-.1.5.1.6.3.1.3-.1.5-.3.6-1.3.4-2.5.8-3.7 1.2h-.2zm27.3-1.8h-.1c-1.3-.3-2.6-.5-3.9-.7-.3 0-.5-.3-.4-.6 0-.3.3-.5.6-.4 1.3.2 2.6.4 4 .7.2 0 .4.3.3.6 0 .2-.2.4-.5.4zm-19.7-.3c-.2 0-.4-.2-.5-.4-.1-.3.1-.5.4-.6 1.3-.3 2.6-.5 4-.6.3 0 .5.2.6.4s-.2.5-.4.6c-1.4.1-2.7.3-4.1.6.1 0 0 0 0 0zm11.9-.8c-1.3-.1-2.7-.1-4-.1-.3 0-.5-.2-.5-.5s.2-.5.5-.5c1.3 0 2.7 0 4 .1.3 0 .5.3.5.5 0 .3-.3.5-.5.5z"/>
  </symbol>
  <symbol viewBox="0 0 512 512" id="support_mail" xmlns="http://www.w3.org/2000/svg">
    <path
      d="M511.9 225v207c0 31-25.3 56.3-56.3 56.3H56.3C25.3 488.3 0 463.1 0 432V151.7c0-31 25.3-56.3 56.3-56.3h205.1c5.3 0 9.6 4.3 9.6 9.6s-4.3 9.6-9.6 9.6H56.3c-20.5 0-37.2 16.7-37.2 37.2V180l218.7 106.2c11.5 5.6 24.7 5.6 36.2 0l88.2-42.8c4.8-2.3 10.5-.3 12.8 4.4 2.3 4.8.3 10.5-4.4 12.8l-88.2 42.8c-16.8 8.2-36.1 8.2-52.9 0L19.1 201.3V432c0 20.5 16.7 37.2 37.2 37.2h399.3c20.5 0 37.2-16.7 37.2-37.2V225c0-5.3 4.3-9.6 9.6-9.6 5.2 0 9.5 4.3 9.5 9.6zM149.4 325.5l-93.2 93.2c-3.7 3.7-3.7 9.8 0 13.5 3.7 3.7 9.8 3.7 13.5 0l93.2-93.2c3.7-3.7 3.7-9.8 0-13.5-3.8-3.8-9.8-3.8-13.5 0zm199.6 0c-3.7 3.7-3.7 9.8 0 13.5l93.2 93.2c1.9 1.9 4.3 2.8 6.8 2.8 8.4 0 12.8-10.3 6.8-16.3l-93.2-93.2c-3.8-3.8-9.9-3.8-13.6 0zm163-198.8V148c0 14.6-11.9 26.6-26.6 26.6H479c-4.4 19.4-21.8 34-42.5 34h-31.9c-5.3 0-9.6-4.3-9.6-9.6s4.3-9.6 9.6-9.6h31.9c13.5 0 24.4-11 24.4-24.4v-63.7c0-32.2-26.2-58.4-58.4-58.4s-58.4 26.2-58.4 58.4V165c0 5.3-4.3 9.6-9.6 9.6h-14.9c-14.6 0-26.6-11.9-26.6-26.6v-21.2c0-14.6 11.9-26.6 26.6-26.6h5.3c.6-42.3 35.1-76.5 77.6-76.5s77 34.2 77.6 76.5h5.3c14.7 0 26.6 11.9 26.6 26.5zm-187-7.4h-5.3c-4.1 0-7.4 3.3-7.4 7.4V148c0 4.1 3.3 7.4 7.4 7.4h5.3v-36.1zm167.9 7.4c0-4.1-3.3-7.4-7.4-7.4h-5.3v36.1h5.3c4.1 0 7.4-3.3 7.4-7.4v-21.3z"/>
  </symbol>
  <symbol viewBox="0 0 490 490" id="top_20_arrow" xmlns="http://www.w3.org/2000/svg">
    <path
      d="M427.787 334.025a32.592 32.592 0 01-32.668 32.668c-9.051 0-17.183-3.606-23.122-9.546s-9.546-14.071-9.546-23.122V173.653L117.933 418.17c-12.728 12.728-33.446 12.799-46.245 0-12.728-12.728-12.799-33.446 0-46.245l244.518-244.518-160.23.141a32.592 32.592 0 01-32.668-32.668 32.592 32.592 0 0132.668-32.668H395.12c8.627 0 16.971 3.394 23.122 9.546 6.152 6.152 9.617 14.425 9.546 23.122v239.145z"/>
  </symbol>
  <symbol class="cgsvg-inline--fa cgfa-twitter cgfa-w-16" viewBox="0 0 512 512" id="twitter"
          xmlns="http://www.w3.org/2000/svg">
    <path
      d="M459.37 151.716c.325 4.548.325 9.097.325 13.645 0 138.72-105.583 298.558-298.558 298.558-59.452 0-114.68-17.219-161.137-47.106 8.447.974 16.568 1.299 25.34 1.299 49.055 0 94.213-16.568 130.274-44.832-46.132-.975-84.792-31.188-98.112-72.772 6.498.974 12.995 1.624 19.818 1.624 9.421 0 18.843-1.3 27.614-3.573-48.081-9.747-84.143-51.98-84.143-102.985v-1.299c13.969 7.797 30.214 12.67 47.431 13.319-28.264-18.843-46.781-51.005-46.781-87.391 0-19.492 5.197-37.36 14.294-52.954 51.655 63.675 129.3 105.258 216.365 109.807-1.624-7.797-2.599-15.918-2.599-24.04 0-57.828 46.782-104.934 104.934-104.934 30.213 0 57.502 12.67 76.67 33.137 23.715-4.548 46.456-13.32 66.599-25.34-7.798 24.366-24.366 44.833-46.132 57.827 21.117-2.273 41.584-8.122 60.426-16.243-14.292 20.791-32.161 39.308-52.628 54.253z"/>
  </symbol>
  <symbol viewBox="0 0 512 512" id="user" xmlns="http://www.w3.org/2000/svg">
    <path
      d="M471.387 325.012c-16.969-14.91-37.547-27.793-61.168-38.29-10.098-4.484-21.914.063-26.399 10.157-4.484 10.094.063 21.91 10.157 26.398 19.918 8.852 37.082 19.543 51.007 31.782C462.152 370.145 472 391.989 472 415v37c0 11.027-8.973 20-20 20H60c-11.027 0-20-8.973-20-20v-37c0-23.012 9.848-44.855 27.016-59.941C87.223 337.3 146.098 296 256 296c81.605 0 148-66.395 148-148S337.605 0 256 0 108 66.395 108 148c0 47.707 22.695 90.207 57.852 117.29-64.329 14.14-104.344 41.358-125.239 59.722C14.805 347.687 0 380.484 0 415v37c0 33.086 26.914 60 60 60h392c33.086 0 60-26.914 60-60v-37c0-34.516-14.805-67.313-40.613-89.988zM148 148c0-59.55 48.45-108 108-108s108 48.45 108 108-48.45 108-108 108-108-48.45-108-108zm0 0"/>
  </symbol>
  <symbol viewBox="0 0 512 512" id="warning" xmlns="http://www.w3.org/2000/svg">
    <path
      d="M506.2 365.6c-4.1-10.3-15.7-15.3-26-11.2s-15.3 15.7-11.2 26c5.2 13 3.5 27.9-4.6 39.8-8.1 11.9-21 18.7-35.4 18.7H83.1c-15.8 0-29.8-8.2-37.5-22-7.7-13.8-7.3-30.1 1-43.5l173-280.1C227.4 80.6 241.1 73 256 73c15 0 28.6 7.6 36.5 20.4l127.9 207.1c5.8 9.4 18.1 12.3 27.5 6.5 9.4-5.8 12.3-18.1 6.5-27.5L326.6 72.4C311.3 47.7 285 33 256 33s-55.3 14.7-70.5 39.3l-173 280.1c-16 26-16.7 57.4-1.9 84 14.9 26.7 42 42.6 72.5 42.6H429c27.9 0 52.9-13.2 68.6-36.3 15.5-22.9 18.7-51.7 8.6-77.1z"/>
    <path
      d="M256 400c11 0 20-9 20-20s-9-20-20-20-20 9-20 20 9 20 20 20zm20-90V163c0-11-9-20-20-20s-20 9-20 20v147c0 11 9 20 20 20 11.1 0 20-9 20-20z"/>
  </symbol>
  <symbol viewBox="0 0 24 24" id="youtube" xmlns="http://www.w3.org/2000/svg">
    <path
      d="M21.582 6.186a2.506 2.506 0 00-1.768-1.768C18.254 4 12 4 12 4s-6.254 0-7.814.418c-.86.23-1.538.908-1.768 1.768C2 7.746 2 12 2 12s0 4.254.418 5.814c.23.86.908 1.538 1.768 1.768C5.746 20 12 20 12 20s6.254 0 7.814-.418a2.504 2.504 0 001.768-1.768C22 16.254 22 12 22 12s0-4.254-.418-5.814zM10 14.598V9.402a.5.5 0 01.75-.433l4.5 2.598a.5.5 0 010 .866l-4.5 2.598a.5.5 0 01-.75-.433z"/>
  </symbol>
  <symbol viewBox="0 0 12 8" id="eye" xmlns="http://www.w3.org/2000/svg">
    <path
      d="M5.625 1.8125C5.418 1.81574 5.21252 1.84862 5.01485 1.91016C5.10629 2.07096 5.15497 2.25252 5.15625 2.4375C5.15625 2.58113 5.12796 2.72336 5.073 2.85606C5.01803 2.98876 4.93747 3.10933 4.8359 3.2109C4.73434 3.31246 4.61376 3.39303 4.48106 3.44799C4.34836 3.50296 4.20614 3.53125 4.0625 3.53125C3.87753 3.52997 3.69596 3.48128 3.53516 3.38984C3.40829 3.82984 3.42308 4.29861 3.57743 4.72973C3.73177 5.16086 4.01786 5.5325 4.39515 5.792C4.77245 6.05151 5.22183 6.18572 5.67965 6.17563C6.13746 6.16555 6.58049 6.01167 6.946 5.7358C7.3115 5.45993 7.58094 5.07606 7.71615 4.63855C7.85136 4.20104 7.84548 3.73208 7.69936 3.2981C7.55324 2.86411 7.27427 2.48711 6.90197 2.22048C6.52968 1.95385 6.08293 1.81112 5.625 1.8125ZM11.182 3.71484C10.1229 1.64824 8.02598 0.25 5.625 0.25C3.22403 0.25 1.12657 1.64922 0.0679733 3.71504C0.023294 3.80342 1.52588e-05 3.90107 1.52588e-05 4.0001C1.52588e-05 4.09913 0.023294 4.19678 0.0679733 4.28516C1.12715 6.35176 3.22403 7.75 5.625 7.75C8.02598 7.75 10.1234 6.35078 11.182 4.28496C11.2267 4.19658 11.25 4.09893 11.25 3.9999C11.25 3.90087 11.2267 3.80322 11.182 3.71484ZM5.625 6.8125C3.69825 6.8125 1.93184 5.73828 0.977934 4C1.93184 2.26172 3.69805 1.1875 5.625 1.1875C7.55196 1.1875 9.31817 2.26172 10.2721 4C9.31836 5.73828 7.55196 6.8125 5.625 6.8125Z"/>
  </symbol>
</svg>
