<svg version="1.1" id="Layer_1" xmlns="http://www.w3.org/2000/svg" x="0" y="0" width="512" height="512" xml:space="preserve"><path d="M27.4 274.1C-7.5 309-9.3 363.7 23.3 396.3c32.6 32.6 87.4 30.8 122.3-4.1l110.1-110.1L137.5 164 27.4 274.1zm228.9-63.8c-12.5 0-22.6 10.1-22.6 22.6 0 12.5 10.1 22.6 22.6 22.6 12.5 0 22.6-10.1 22.6-22.6 0-12.5-10.1-22.6-22.6-22.6zm-.6-74c-16.7 0-30.2 13.5-30.2 30.1s13.5 30.1 30.2 30.1 30.2-13.5 30.2-30.1-13.5-30.1-30.2-30.1zm-67.2 30.1c0 5.2 4.2 9.4 9.4 9.4s9.4-4.2 9.4-9.4-4.2-9.4-9.4-9.4-9.4 4.2-9.4 9.4zm-24.2-.6c3 0 5.4-2.4 5.4-5.4 0-3-2.4-5.4-5.4-5.4s-5.4 2.4-5.4 5.4c0 3 2.4 5.4 5.4 5.4zM321 154.5c-5.2 0-9.4 4.2-9.4 9.4s4.2 9.4 9.4 9.4 9.4-4.2 9.4-9.4-4.2-9.4-9.4-9.4zM258.2 115c6.3 0 11.3-5.1 11.3-11.3 0-6.3-5.1-11.3-11.3-11.3-6.3 0-11.3 5.1-11.3 11.3 0 6.2 5 11.3 11.3 11.3zm-55.4 24.9c10.7 0 19.3-8.6 19.3-19.3 0-10.6-8.6-19.3-19.3-19.3s-19.3 8.6-19.3 19.3c0 10.7 8.6 19.3 19.3 19.3z" fill="#172e4c"/><path d="M374.5 164l110.1 110.1c34.9 34.9 36.7 89.6 4.1 122.3-32.6 32.6-87.4 30.8-122.3-4.1L256.3 282.1 374.5 164z" fill-rule="evenodd" clip-rule="evenodd" fill="#49b699"/></svg>