<svg version="1.1" id="Layer_1" xmlns="http://www.w3.org/2000/svg" x="0" y="0" width="330" height="90" xml:space="preserve"><path d="M152 87s-.1 0 0 0c-1.4 0-2.7-.1-4-.3-.3 0-.5-.3-.4-.6 0-.3.3-.5.6-.4l3.9.3c.3 0 .5.2.5.5-.1.3-.4.5-.6.5zm4 0c-.3 0-.5-.2-.5-.5s.2-.5.5-.5c1.3-.1 2.6-.1 4-.3.3 0 .5.2.6.4 0 .3-.2.5-.4.6-1.6.2-2.9.3-4.2.3zm-12-.8c-1.4-.3-2.7-.6-4-.9-.3-.1-.4-.3-.4-.6.1-.3.4-.4.6-.4l3.9.9c.3.1.5.3.4.6 0 .2-.2.4-.5.4zm19.9 0c-.2 0-.4-.2-.5-.4 0-.3.1-.5.4-.6 1.3-.2 2.6-.5 3.9-.8.3-.1.5.1.6.4.1.3-.1.5-.4.6-1.3.3-2.6.5-4 .8.1 0 0 0 0 0zm7.8-1.9c-.2 0-.4-.1-.5-.4-.1-.3.1-.5.3-.6 1.2-.4 2.5-.8 3.8-1.2.3-.1.5 0 .6.3.1.3 0 .5-.3.6-1.3.4-2.6.9-3.8 1.2 0 .1-.1.1-.1.1zm-35.4-.2h-.2c-1.3-.4-2.5-.9-3.8-1.4-.3-.1-.4-.4-.3-.7.1-.3.4-.4.7-.3 1.2.5 2.5 1 3.7 1.4.3.1.4.4.3.6 0 .3-.2.4-.4.4zm42.9-2.4c-.2 0-.4-.1-.5-.3-.1-.3 0-.5.3-.6 1.2-.5 2.4-1 3.7-1.5.3-.1.5 0 .7.3.1.3 0 .5-.3.7-1.2.5-2.5 1.1-3.7 1.6 0-.2-.1-.2-.2-.2zM129 81c-.1 0-.2 0-.2-.1-1.2-.6-2.4-1.2-3.5-1.9-.2-.1-.3-.4-.2-.7.1-.2.4-.3.7-.2 1.2.7 2.3 1.3 3.5 1.9.2.1.3.4.2.7-.2.2-.3.3-.5.3zm57.6-2.5c-.2 0-.4-.1-.4-.3-.1-.2 0-.5.2-.7 1-.5 1.9-1 2.9-1.5l.6-.3c.2-.1.5 0 .7.2.1.2 0 .5-.2.7l-.6.3-3 1.5c-.1.1-.2.1-.2.1zM122 77.1c-.1 0-.2 0-.3-.1-1.1-.7-2.2-1.4-3.3-2.2-.2-.2-.3-.5-.1-.7.2-.2.5-.3.7-.1 1.1.8 2.2 1.5 3.3 2.2.2.1.3.5.2.7-.1.1-.3.2-.5.2zm71.6-2.3c-.2 0-.3-.1-.4-.3-.1-.2 0-.5.2-.7 1.2-.6 2.3-1.3 3.5-2 .2-.1.5-.1.7.2.1.2.1.5-.2.7-1.2.7-2.3 1.3-3.5 2-.1.1-.2.1-.3.1zm-78.1-2.3c-.1 0-.2 0-.3-.1-1.1-.8-2.1-1.6-3.2-2.5-.2-.2-.3-.5-.1-.7.2-.2.5-.3.7-.1 1 .8 2.1 1.6 3.2 2.4.2.2.3.5.1.7-.1.3-.3.3-.4.3zm85.1-1.7c-.2 0-.3-.1-.4-.2-.1-.2-.1-.5.2-.7 1.1-.7 2.3-1.4 3.4-2.1.2-.1.5-.1.7.2.1.2.1.5-.2.7-1.1.7-2.3 1.4-3.4 2.1h-.3zm-91.4-3.3c-.1 0-.2 0-.3-.1-1-.9-2-1.7-3-2.6-.2-.2-.2-.5 0-.7.2-.2.5-.2.7 0 1 .9 2 1.7 3 2.6.2.2.2.5.1.7-.2.1-.4.1-.5.1zm98.2-.8c-.2 0-.3-.1-.4-.2-.1-.2-.1-.5.2-.7 1.1-.7 2.3-1.4 3.4-2.1.2-.1.5-.1.7.2.1.2.1.5-.2.7-1.1.7-2.3 1.4-3.4 2.1-.1-.1-.2 0-.3 0zm6.8-4.3c-.2 0-.3-.1-.4-.2-.2-.2-.1-.5.1-.7 1.1-.7 2.2-1.5 3.3-2.2.2-.2.5-.1.7.1.2.2.1.5-.1.7-1.1.7-2.2 1.5-3.3 2.2-.1 0-.2.1-.3.1zm-111-.1c-.1 0-.2 0-.3-.1l-3-2.7c-.2-.2-.2-.5 0-.7.2-.2.5-.2.7 0l3 2.7c.2.2.2.5 0 .7-.2 0-.3.1-.4.1zM220.9 58c-.2 0-.3-.1-.4-.2-.2-.2-.1-.5.1-.7 1.1-.7 2.2-1.5 3.3-2.2.2-.2.5-.1.7.1.2.2.1.5-.1.7-1.1.8-2.2 1.5-3.3 2.2-.2 0-.3.1-.3.1zM97.2 56.9c-.1 0-.2 0-.3-.1L94 54.1c-.2-.2-.2-.5 0-.7.2-.2.5-.2.7 0l2.9 2.7c.2.2.2.5 0 .7-.1.1-.2.1-.4.1zm130.3-3.4c-.2 0-.3-.1-.4-.2-.2-.2-.1-.5.1-.7 1.1-.8 2.2-1.5 3.3-2.3.2-.2.5-.1.7.1.2.2.1.5-.1.7-1.1.8-2.2 1.5-3.3 2.3-.1 0-.2.1-.3.1zm-136.2-2c-.1 0-.2 0-.3-.1l-3-2.7c-.2-.2-.2-.5 0-.7.2-.2.5-.2.7 0l3 2.7c.2.2.2.5 0 .7-.1 0-.2.1-.4.1zm142.8-2.6c-.2 0-.3-.1-.4-.2-.2-.2-.1-.5.1-.7l3.3-2.3c.2-.2.5-.1.7.1.2.2.1.5-.1.7l-3.3 2.3c-.1.1-.2.1-.3.1zM85.4 46.1c-.1 0-.2 0-.3-.1-1-.9-2-1.8-3-2.6-.2-.2-.2-.5-.1-.7.2-.2.5-.2.7-.1 1 .9 2 1.8 3 2.6.2.2.2.5 0 .7 0 .2-.2.2-.3.2zm155.2-1.8c-.2 0-.3-.1-.4-.2-.2-.2-.1-.5.1-.7l3.3-2.3c.2-.2.5-.1.7.1.2.2.1.5-.1.7l-3.3 2.3c-.1.1-.2.1-.3.1zM79.3 40.9c-.1 0-.2 0-.3-.1-1-.8-2.1-1.7-3.1-2.5-.2-.2-.3-.5-.1-.7.2-.2.5-.3.7-.1 1.1.8 2.1 1.7 3.1 2.5.2.2.2.5.1.7-.1.2-.3.2-.4.2zm167.9-1.2c-.2 0-.3-.1-.4-.2-.2-.2-.1-.5.1-.7 1.1-.8 2.2-1.5 3.3-2.3.2-.2.5-.1.7.1.2.2.1.5-.1.7-1.1.8-2.2 1.5-3.3 2.3-.1.1-.2.1-.3.1zM73 36c-.1 0-.2 0-.3-.1-1.1-.8-2.1-1.6-3.2-2.3-.2-.2-.3-.5-.1-.7.2-.2.5-.3.7-.1l3.3 2.4c.2.2.3.5.1.7-.2 0-.3.1-.5.1zm180.8-.8c-.2 0-.3-.1-.4-.2-.2-.2-.1-.5.1-.7 1.1-.8 2.2-1.5 3.3-2.3.2-.2.5-.1.7.1.2.2.1.5-.1.7-1.1.7-2.2 1.5-3.3 2.3-.1.1-.2.1-.3.1zM66.4 31.4c-.1 0-.2 0-.3-.1-1.1-.7-2.3-1.4-3.4-2.1-.2-.1-.3-.4-.2-.7.1-.2.4-.3.7-.2 1.1.7 2.3 1.4 3.4 2.1.2.2.3.5.1.7.1.2-.1.3-.3.3zm194-.7c-.2 0-.3-.1-.4-.2-.2-.2-.1-.5.1-.7 1.1-.7 2.2-1.5 3.3-2.2.2-.2.5-.1.7.1.2.2.1.5-.1.7-1.1.7-2.2 1.5-3.3 2.2-.1.1-.2.1-.3.1zM59.6 27.3c-.1 0-.2 0-.2-.1-1.2-.6-2.4-1.3-3.5-1.8-.2-.1-.4-.4-.2-.7.1-.2.4-.3.7-.2 1.2.6 2.4 1.2 3.6 1.9.2.1.3.4.2.7-.3.1-.4.2-.6.2zm207.5-1c-.2 0-.3-.1-.4-.2-.2-.2-.1-.5.1-.7 1.1-.7 2.3-1.5 3.4-2.2.2-.1.5-.1.7.2.1.2.1.5-.2.7-1.1.7-2.2 1.4-3.4 2.2 0-.1-.1 0-.2 0zM52.4 23.7h-.2c-1.2-.5-2.5-1-3.7-1.5-.3-.1-.4-.4-.3-.6s.4-.4.6-.3c1.2.5 2.5 1 3.7 1.5.3.1.4.4.3.7 0 .1-.2.2-.4.2zM273.8 22c-.2 0-.3-.1-.4-.2-.1-.2-.1-.5.2-.7 1.1-.7 2.3-1.4 3.4-2.1.2-.1.5-.1.7.2.1.2.1.5-.2.7-1.1.7-2.3 1.4-3.4 2.1h-.3zM44.9 20.9h-.2c-1.3-.4-2.5-.8-3.8-1.1-.3-.1-.4-.3-.4-.6.1-.3.3-.4.6-.4 1.3.3 2.6.7 3.9 1.1.3.1.4.4.3.6 0 .3-.2.4-.4.4zM1.5 19c-.2 0-.4-.2-.5-.4 0-.3.1-.5.4-.6 1.3-.3 2.7-.5 4-.7.3 0 .5.1.6.4 0 .3-.1.5-.4.6-1.4.2-2.7.4-4.1.7.1 0 0 0 0 0zm35.7-.2h-.1c-1.3-.3-2.6-.5-3.9-.7-.3 0-.5-.3-.4-.6 0-.3.3-.5.6-.4 1.3.2 2.6.5 4 .7.3.1.4.3.4.6-.1.3-.3.4-.6.4zm243.5-.9c-.2 0-.3-.1-.4-.3-.1-.2-.1-.5.2-.7 1.2-.7 2.3-1.3 3.5-2 .2-.1.5 0 .7.2.1.2 0 .5-.2.7-1.2.6-2.3 1.3-3.5 2-.1 0-.2.1-.3.1zM9.4 17.8c-.3 0-.5-.2-.5-.4 0-.3.2-.5.4-.6 1.3-.2 2.7-.3 4-.4.3 0 .5.2.5.5s-.2.5-.5.5c-1.2.1-2.5.2-3.9.4zm19.9-.2c-1.4-.1-2.7-.3-4-.3-.3 0-.5-.3-.5-.5 0-.3.2-.5.5-.5 1.3.1 2.7.2 4 .3.3 0 .5.3.4.6.1.2-.1.4-.4.4zm-11.9-.5c-.3 0-.5-.2-.5-.5s.2-.5.5-.5c1.4 0 2.7-.1 4 0 .3 0 .5.2.5.5s-.2.5-.5.5h-4zM287.7 14c-.2 0-.4-.1-.4-.3-.1-.2 0-.5.2-.7l3.6-1.8c.2-.1.5 0 .7.2.1.2 0 .5-.2.7l-3.6 1.8c-.1.1-.2.1-.3.1zm7.2-3.5c-.2 0-.4-.1-.5-.3-.1-.3 0-.5.3-.7 1.2-.6 2.5-1.1 3.7-1.6.3-.1.5 0 .7.3.1.3 0 .5-.3.7-1.2.5-2.4 1-3.7 1.6h-.2zm7.4-3c-.2 0-.4-.1-.5-.3-.1-.3 0-.5.3-.6 1.3-.5 2.6-.9 3.8-1.2.3-.1.5.1.6.3s-.1.5-.3.6c-1.2.4-2.5.8-3.8 1.2h-.1zm7.7-2.2c-.2 0-.4-.2-.5-.4-.1-.3.1-.5.4-.6 1.3-.3 2.7-.6 4-.8.3 0 .5.1.6.4 0 .3-.1.5-.4.6-1.3.2-2.6.4-3.9.7-.1.1-.2.1-.2.1zm18.5-.3h-.1c-.8-.2-1.7-.4-2.6-.5-.3 0-.5-.3-.4-.6 0-.3.3-.5.6-.4.9.1 1.8.3 2.7.6.3.1.4.3.4.6-.2.2-.4.3-.6.3zm-10.6-.9c-.3 0-.5-.2-.5-.5s.2-.5.5-.5c1.4-.1 2.7-.1 4 0 .3 0 .5.2.5.5s-.3.5-.5.5c-1.3-.1-2.6-.1-4 0z" fill="#cecece"/><path d="M160.1 65.1l-3.2 1.8 1.8 3.2c.5.9.2 2-.7 2.5s-2 .2-2.5-.7l-1.9-3.2-3.2 1.9c-.9.5-2 .2-2.5-.7-.5-.9-.2-2 .7-2.5l3.2-1.9-1.9-3.2c-.5-.9-.2-2 .7-2.5s2-.2 2.5.7l1.8 3.2 3.2-1.8c.9-.5 2-.2 2.5.7.7.9.4 2-.5 2.5z" fill-rule="evenodd" clip-rule="evenodd" fill="#00acde"/></svg>