<svg version="1.1" id="Layer_1" xmlns="http://www.w3.org/2000/svg" x="0" y="0" width="330" height="90" xml:space="preserve"><path d="M9.8 17c-.1 0-.3 0-.4-.1-.9-.9-1.3-1.6-1.4-1.6-.1-.3 0-.6.2-.7.2-.2.5-.1.7.1 0 0 .4.6 1.2 1.4.2.2.2.5 0 .7 0 .2-.2.2-.3.2zm298.7 58.5c-.3 0-.5-.2-.5-.5s.2-.5.5-.5c1.3 0 2.6-.1 3.9-.2.3 0 .5.2.5.5s-.2.5-.5.5c-1.2.1-2.6.2-3.9.2zm-4-.1c-1.3-.1-2.7-.2-4-.4-.3 0-.5-.3-.4-.6 0-.3.3-.5.6-.4 1.3.2 2.6.3 3.9.3.3 0 .5.3.5.5-.1.4-.3.6-.6.6zm-7.8-1c-.1 0-.1 0 0 0-1.4-.2-2.7-.5-4-.8-.3-.1-.4-.3-.4-.6.1-.3.3-.4.6-.4 1.3.3 2.6.6 3.9.8.3 0 .5.3.4.6-.1.3-.3.4-.5.4zm-7.8-1.8h-.1c-1.3-.4-2.5-.8-3.8-1.2-.3-.1-.4-.4-.3-.6.1-.3.4-.4.6-.3 1.2.4 2.5.8 3.8 1.2.3.1.4.4.3.6 0 .1-.2.3-.5.3zm-7.5-2.6h-.2c-1.2-.5-2.4-1-3.7-1.5-.3-.1-.4-.4-.3-.7.1-.3.4-.4.7-.3 1.2.5 2.5 1.1 3.6 1.5.3.1.4.4.3.6 0 .2-.2.4-.4.4zm-7.2-3.3h-.2l-3.6-1.8c-.2-.1-.3-.4-.2-.7.1-.2.4-.3.7-.2 1.2.6 2.4 1.2 3.5 1.8.2.1.4.4.2.7-.1.1-.2.2-.4.2zm-7.1-3.6c-.1 0-.2 0-.2-.1-1.2-.6-2.3-1.3-3.5-2-.2-.1-.3-.4-.2-.7.1-.2.4-.3.7-.2 1.1.7 2.3 1.3 3.5 2 .2.1.3.4.2.7-.1.2-.3.3-.5.3zm-6.9-4c-.1 0-.2 0-.3-.1-1.1-.7-2.3-1.4-3.4-2.1-.2-.1-.3-.5-.2-.7.1-.2.5-.3.7-.2 1.1.7 2.3 1.4 3.4 2.1.2.1.3.5.2.7 0 .2-.2.3-.4.3zm-6.7-4.2c-.1 0-.2 0-.3-.1-1.1-.7-2.2-1.4-3.3-2.2-.2-.2-.3-.5-.1-.7.2-.2.5-.3.7-.1 1.1.7 2.2 1.4 3.3 2.2.2.1.3.5.2.7-.2.1-.4.2-.5.2zm-6.7-4.4c-.1 0-.2 0-.3-.1-1.1-.7-2.2-1.5-3.3-2.2-.2-.2-.3-.5-.1-.7.2-.2.5-.3.7-.1 1.1.7 2.2 1.5 3.3 2.2.2.2.3.5.1.7-.1.2-.2.2-.4.2zm-6.6-4.4c-.1 0-.2 0-.3-.1l-3.3-2.2c-.2-.2-.3-.5-.1-.7.2-.2.5-.3.7-.1l3.3 2.2c.2.2.3.5.1.7-.1.2-.3.2-.4.2zm-6.7-4.4c-.1 0-.2 0-.3-.1-1.1-.7-2.2-1.5-3.3-2.2-.2-.1-.3-.5-.1-.7.2-.2.5-.3.7-.1 1.1.7 2.2 1.4 3.3 2.2.2.2.3.5.1.7 0 .2-.2.2-.4.2zm-165.7-3c-1.3 0-2.7 0-4-.1-.3 0-.5-.2-.5-.5s.2-.5.5-.5c1.3 0 2.6.1 4 .1.3 0 .5.2.5.5 0 .2-.2.5-.5.5zm4-.1c-.3 0-.5-.2-.5-.5s.2-.5.5-.5c1.3 0 2.6-.1 4-.2.3 0 .5.2.5.5s-.2.5-.5.5c-1.4.1-2.7.2-4 .2zm-11.9-.2c-.1 0-.1 0 0 0-1.4-.1-2.7-.2-4-.4-.3 0-.5-.3-.4-.6 0-.3.3-.5.6-.4 1.3.1 2.6.3 3.9.4.3 0 .5.3.5.5-.2.3-.4.5-.6.5zm19.8-.3c-.3 0-.5-.2-.5-.5s.2-.5.5-.5c1.3-.1 2.6-.3 3.9-.4.3 0 .5.2.6.4 0 .3-.2.5-.4.6-1.4.2-2.7.3-4.1.4zM52 37.5c-.1 0-.1 0 0 0-1.4-.2-2.7-.4-4-.7-.3-.1-.4-.3-.4-.6.1-.3.3-.5.6-.4 1.3.3 2.6.5 3.9.7.3 0 .5.3.4.6-.1.2-.3.4-.5.4zm174.9-.1c-.1 0-.2 0-.3-.1-1.1-.7-2.2-1.4-3.4-2.1-.2-.1-.3-.5-.2-.7.1-.2.5-.3.7-.2 1.1.7 2.3 1.4 3.4 2.1.2.1.3.5.2.7-.1.2-.3.3-.4.3zm-139.3-.2c-.2 0-.5-.2-.5-.4 0-.3.1-.5.4-.6l3.9-.6c.3 0 .5.1.6.4 0 .3-.1.5-.4.6-1.3.2-2.6.4-4 .6.1 0 0 0 0 0zm-43.4-1.3h-.1c-1.3-.3-2.6-.7-3.9-1-.3-.1-.4-.4-.3-.6.1-.3.4-.4.6-.3 1.3.4 2.5.7 3.8 1 .3.1.4.3.4.6-.1.2-.3.3-.5.3zm51.2-.1c-.2 0-.4-.2-.5-.4-.1-.3.1-.5.4-.6 1.3-.3 2.6-.5 3.9-.8.3-.1.5.1.6.4.1.3-.1.5-.4.6-1.3.3-2.6.6-4 .8.1 0 .1 0 0 0zm7.8-1.7c-.2 0-.4-.2-.5-.4-.1-.3.1-.5.4-.6 1.3-.3 2.5-.6 3.8-1 .3-.1.5.1.6.4.1.3-.1.5-.4.6-1.3.3-2.6.7-3.9 1 .1 0 0 0 0 0zm-66.7-.4h-.2c-1.3-.4-2.5-.9-3.7-1.4-.3-.1-.4-.4-.3-.6.1-.3.4-.4.6-.3 1.2.5 2.5.9 3.7 1.4.3.1.4.4.3.6 0 .2-.2.3-.4.3zm183.6-.4c-.1 0-.2 0-.3-.1-1.1-.7-2.3-1.3-3.4-2-.2-.1-.3-.4-.2-.7.1-.2.4-.3.7-.2 1.1.7 2.3 1.3 3.4 2 .2.1.3.4.2.7-.1.2-.2.3-.4.3zM110.9 32c-.2 0-.4-.1-.5-.4-.1-.3.1-.5.3-.6 1.3-.4 2.5-.7 3.8-1.1.3-.1.5.1.6.3.1.3-.1.5-.3.6-1.3.4-2.6.8-3.8 1.1 0 .1-.1.1-.1.1zm-81.7-1.2H29L25.4 29c-.2-.1-.3-.4-.2-.7s.4-.3.7-.2c1.2.6 2.3 1.2 3.5 1.8.3.1.4.4.2.7-.1 0-.2.2-.4.2zm89.3-1.1c-.2 0-.4-.1-.5-.3-.1-.3.1-.5.3-.6 1.2-.4 2.5-.8 3.8-1.3.3-.1.5 0 .6.3s0 .5-.3.6c-1.3.4-2.5.9-3.8 1.3h-.1zm94.7-.4c-.1 0-.2 0-.2-.1-1.2-.6-2.3-1.2-3.5-1.9-.2-.1-.3-.4-.2-.7.1-.2.4-.3.7-.2 1.2.6 2.4 1.2 3.5 1.9.2.1.3.4.2.7-.2.2-.3.3-.5.3zM126 27.1c-.2 0-.4-.1-.5-.3-.1-.3 0-.5.3-.6 1.2-.5 2.5-.9 3.7-1.4.3-.1.5 0 .6.3.1.3 0 .5-.3.6-1.3.5-2.5 1-3.7 1.4h-.1zM22.1 27c-.1 0-.2 0-.3-.1-1.1-.7-2.3-1.4-3.4-2.2-.2-.2-.3-.5-.1-.7.2-.2.5-.3.7-.1 1.1.7 2.2 1.5 3.3 2.1.2.1.3.5.2.7 0 .2-.2.3-.4.3zm184-1.3h-.2c-1.2-.6-2.4-1.1-3.6-1.7-.3-.1-.4-.4-.3-.7.1-.3.4-.4.7-.3 1.2.5 2.4 1.1 3.6 1.7.2.1.4.4.2.7 0 .2-.2.3-.4.3zm-72.7-1.5c-.2 0-.4-.1-.5-.3-.1-.3 0-.5.3-.7 1.2-.5 2.4-1 3.7-1.5.3-.1.5 0 .7.3.1.3 0 .5-.3.7-1.2.5-2.5 1-3.7 1.5h-.2zm65.4-1.7h-.2c-1.2-.5-2.5-1-3.7-1.4-.3-.1-.4-.4-.3-.6.1-.3.4-.4.6-.3 1.2.4 2.5.9 3.7 1.4.3.1.4.4.3.6 0 .2-.2.3-.4.3zm-183.2 0c-.1 0-.2 0-.3-.1-1.1-.8-2.1-1.7-3.1-2.6-.2-.2-.2-.5 0-.7.2-.2.5-.2.7 0 .9.9 1.9 1.7 3 2.6.2.2.3.5.1.7-.1 0-.2.1-.4.1zm125.2-1.3c-.2 0-.4-.1-.5-.3-.1-.3 0-.5.3-.6 1.3-.5 2.5-.9 3.8-1.3.3-.1.5.1.6.3.1.3-.1.5-.3.6-1.2.4-2.5.8-3.7 1.3h-.2zm50.6-1.4h-.1c-1.3-.4-2.5-.8-3.8-1.1-.3-.1-.4-.3-.4-.6s.3-.4.6-.4c1.3.3 2.6.7 3.8 1.1.3.1.4.4.3.6 0 .3-.2.4-.4.4zm-43.1-1.1c-.2 0-.4-.1-.5-.4-.1-.3.1-.5.4-.6 1.3-.4 2.6-.7 3.9-1 .3-.1.5.1.6.4.1.3-.1.5-.4.6-1.3.3-2.6.6-3.8.9-.1.1-.1.1-.2.1zm35.4-.9h-.1c-1.3-.3-2.6-.5-3.9-.7-.3 0-.5-.3-.4-.6 0-.3.3-.5.6-.4 1.3.2 2.6.5 3.9.7.3.1.4.3.4.6s-.3.4-.5.4zm-27.6-.8c-.2 0-.5-.2-.5-.4 0-.3.1-.5.4-.6 1.3-.2 2.7-.4 4-.5.3 0 .5.2.6.4s-.2.5-.4.6c-1.4.1-2.7.3-4.1.5zm19.8-.5s-.1 0 0 0c-1.4-.1-2.7-.3-4-.3-.3 0-.5-.3-.5-.5 0-.3.2-.5.5-.5 1.3.1 2.7.2 4 .3.3 0 .5.3.4.6 0 .2-.2.4-.4.4zm-11.9-.3c-.3 0-.5-.2-.5-.5s.2-.5.5-.5c1.3-.1 2.6-.1 3.8-.1h.2c.3 0 .5.2.5.5s-.2.5-.5.5h-.2c-1.3 0-2.5 0-3.8.1zm152.5 58.6c-.2 0-.5-.2-.5-.4 0-.3.2-.5.4-.6.3 0 .7-.1 1-.1.3 0 .7-.1 1-.2.3 0 .5.2.6.4 0 .3-.2.5-.4.6-.3 0-.7.1-1 .1-.4.1-.7.1-1.1.2zm2-6.3c-.4 0-.7 0-1-.1h-1c-.3 0-.5-.2-.5-.5s.2-.5.5-.5c.4 0 .7 0 1 .1h1c.3 0 .5.2.5.5s-.2.5-.5.5zm-6-.7h-.1c-1.3-.3-2.7-.7-3.9-1.1-.3-.1-.4-.4-.3-.6.1-.3.4-.4.6-.3 1.2.4 2.5.8 3.8 1.1.3.1.4.3.4.6-.1.1-.3.3-.5.3zm-7.5-2.7c-.1 0-.2 0-.2-.1-1.2-.6-2.4-1.4-3.5-2.2-.2-.2-.3-.5-.1-.7s.5-.3.7-.1c1 .8 2.2 1.5 3.3 2.1.2.1.3.4.2.7-.1.2-.2.3-.4.3zm-6.4-4.8c-.1 0-.3 0-.4-.2-1-1-1.8-2-2.6-3.2-.2-.2-.1-.5.1-.7.2-.2.5-.1.7.1.7 1.1 1.6 2.1 2.5 3 .2.2.2.5 0 .7-.1.3-.2.3-.3.3zm-4.5-6.6c-.2 0-.4-.1-.5-.3-.6-1.3-1-2.6-1.3-3.9-.1-.3.1-.5.4-.6.3 0 .5.1.6.4.3 1.3.7 2.5 1.2 3.7.1.3 0 .5-.3.7h-.1zm-1.7-7.8c-.3 0-.5-.2-.5-.5 0-1.4.2-2.7.5-4.1.1-.3.3-.4.6-.4.3.1.4.3.4.6-.3 1.3-.4 2.6-.4 3.9-.1.3-.3.5-.6.5zm1.7-7.7h-.2c-.3-.1-.4-.4-.3-.7.5-1.2 1.2-2.4 2-3.6.2-.2.5-.3.7-.1.2.2.3.5.1.7-.8 1.1-1.4 2.3-1.9 3.4 0 .1-.2.3-.4.3zm4.5-6.6c-.1 0-.2 0-.3-.1-.2-.2-.2-.5 0-.7.9-1 1.9-1.9 3-2.8.2-.2.5-.1.7.1.2.2.1.5-.1.7-1 .9-2 1.8-2.9 2.7-.1 0-.2.1-.4.1zm6.2-5.1c-.2 0-.3-.1-.4-.2-.1-.2-.1-.5.1-.7 1.1-.7 2.3-1.4 3.5-2 .2-.1.5 0 .7.2.1.2 0 .5-.2.7-1.2.6-2.3 1.3-3.4 2-.1-.1-.2 0-.3 0zm7.1-3.8c-.2 0-.4-.1-.5-.3-.1-.3 0-.5.3-.7 1.2-.5 2.5-1 3.8-1.5.3-.1.5 0 .6.3.1.3 0 .5-.3.6-1.3.5-2.5.9-3.7 1.4-.1.2-.1.2-.2.2zm7.7-2.7c-.2 0-.4-.1-.5-.3-.1-.3.1-.5.3-.6.5-.2 1.3-.4 2-.5.3 0 .5.1.6.4 0 .3-.1.5-.4.6-.5.1-1.1.3-1.8.5-.1-.1-.1-.1-.2-.1z" fill="#cecece"/><path d="M150.7 49.9c-.7 1.5-2.5 2.1-3.9 1.4l-5.3-2.6L139 54c-.7 1.5-2.5 2.1-3.9 1.4-1.5-.7-2.1-2.5-1.4-4l2.5-5.3-5.3-2.6c-1.5-.7-2.1-2.5-1.4-4 .7-1.5 2.5-2.1 3.9-1.4l5.3 2.6 2.5-5.3c.7-1.5 2.5-2.1 3.9-1.4 1.5.7 2.1 2.5 1.4 4l-2.5 5.3 5.3 2.6c1.4.7 2.1 2.5 1.4 4z" fill-rule="evenodd" clip-rule="evenodd" fill="#00acde"/></svg>