<svg width="16" height="14" viewBox="0 0 16 14" fill="none" xmlns="http://www.w3.org/2000/svg">
  <path d="M14.5 0H10.5C9.67188 0 9 0.671875 9 1.5V5.5C9 6.32812 9.67188 7 10.5 7H13V9C13 10.1031 12.1031 11 11 11H10.75C10.3344 11 10 11.3344 10 11.75V13.25C10 13.6656 10.3344 14 10.75 14H11C13.7625 14 16 11.7625 16 9V1.5C16 0.671875 15.3281 0 14.5 0ZM5.5 0H1.5C0.671875 0 0 0.671875 0 1.5V5.5C0 6.32812 0.671875 7 1.5 7H4V9C4 10.1031 3.10313 11 2 11H1.75C1.33438 11 1 11.3344 1 11.75V13.25C1 13.6656 1.33438 14 1.75 14H2C4.7625 14 7 11.7625 7 9V1.5C7 0.671875 6.32812 0 5.5 0Z" fill="#A6B0B2"/>
</svg>
