<svg version="1.1" id="Capa_1" xmlns="http://www.w3.org/2000/svg" x="0" y="0" width="100" height="100" xml:space="preserve"><path d="M50.1 99.5c-1.4 0-2.7-.1-4.1-.2-.3 0-.5-.3-.5-.5 0-.3.3-.5.5-.5 1.3.1 2.6.1 4 .2.8 0 1.7 0 2.5-.1.3 0 .5.2.5.5s-.2.5-.5.5c-.7.1-1.6.1-2.4.1zm6.5-.5c-.2 0-.5-.2-.5-.4 0-.3.2-.5.4-.6 1.3-.2 2.6-.4 3.9-.7.3-.1.5.1.6.4.1.3-.1.5-.4.6-1.3.3-2.7.6-4 .7zm-14.5-.2s-.1 0 0 0c-1.4-.2-2.7-.5-4-.8-.3-.1-.4-.3-.4-.6.1-.3.3-.4.6-.4 1.3.3 2.6.6 3.8.8.3 0 .5.3.4.6 0 .3-.2.4-.4.4zm22.2-1.5c-.2 0-.4-.1-.5-.4-.1-.3.1-.5.3-.6 1.2-.4 2.5-.8 3.7-1.3.3-.1.5 0 .7.3.1.3 0 .5-.3.7-1.2.5-2.5.9-3.8 1.3h-.1zm-29.9-.4h-.2c-1.3-.4-2.5-.9-3.7-1.5-.3-.1-.4-.4-.3-.7.1-.3.4-.4.7-.3 1.2.5 2.4 1 3.7 1.4.3.1.4.4.3.6-.1.4-.3.5-.5.5zm37.3-2.5c-.2 0-.4-.1-.4-.3-.1-.2 0-.5.2-.7 1.2-.6 2.3-1.2 3.4-1.9.2-.1.5-.1.7.2.1.2.1.5-.2.7-1.1.7-2.3 1.3-3.5 1.9-.1.1-.1.1-.2.1zm-44.6-.7c-.1 0-.2 0-.2-.1-1.2-.6-2.3-1.3-3.5-2-.2-.2-.3-.5-.1-.7.2-.2.5-.3.7-.1 1.1.7 2.2 1.4 3.4 2 .2.1.3.4.2.7-.2.1-.3.2-.5.2zm51.4-3.4c-.2 0-.3-.1-.4-.2-.2-.2-.1-.5.1-.7 1.1-.8 2.1-1.6 3.1-2.4.2-.2.5-.2.7.1.2.2.2.5-.1.7-1 .9-2.1 1.7-3.1 2.5-.1-.1-.2 0-.3 0zm-58.1-.9c-.1 0-.2 0-.3-.1-1.1-.8-2.1-1.7-3.1-2.6-.2-.2-.2-.5 0-.7.2-.2.5-.2.7 0 1 .9 2 1.7 3 2.5.2.2.3.5.1.7-.1.2-.2.2-.4.2zm64.1-4.3c-.1 0-.3 0-.4-.1-.2-.2-.2-.5 0-.7.9-.9 1.8-1.9 2.6-2.9.2-.2.5-.2.7-.1.2.2.2.5.1.7l-2.7 3c-.1 0-.2.1-.3.1zm-69.9-1c-.1 0-.3-.1-.4-.2-.9-1-1.8-2-2.6-3-.2-.2-.1-.5.1-.7.2-.2.5-.1.7.1.8 1 1.7 2 2.6 3 .2.2.2.5 0 .7-.2 0-.3.1-.4.1zm75-5.1c-.1 0-.2 0-.3-.1-.2-.2-.3-.5-.1-.7.8-1.1 1.5-2.2 2.1-3.3.1-.2.4-.3.7-.2.2.1.3.4.2.7-.7 1.1-1.4 2.3-2.2 3.4-.1.1-.3.2-.4.2zm-80-1.1c-.2 0-.3-.1-.4-.2-.7-1.1-1.4-2.3-2.1-3.4-.1-.2 0-.5.2-.7.2-.1.5 0 .7.2.6 1.1 1.3 2.3 2 3.4.2.2.1.5-.1.7-.1-.1-.2 0-.3 0zm84-5.7c-.1 0-.1 0-.2-.1-.2-.1-.4-.4-.2-.7.6-1.2 1.1-2.4 1.6-3.6.1-.3.4-.4.6-.3.3.1.4.4.3.6-.5 1.2-1 2.5-1.6 3.7-.1.3-.3.4-.5.4zM5.8 70.9c-.2 0-.4-.1-.5-.3-.5-1.2-1.1-2.5-1.5-3.7-.1-.3 0-.5.3-.6.3-.1.5 0 .6.3.4 1.2.9 2.5 1.5 3.6.1.3 0 .5-.3.7h-.1zm90.7-6.1h-.1c-.3-.1-.4-.4-.3-.6.4-1.3.7-2.5 1-3.8.1-.3.3-.4.6-.4.3.1.4.3.4.6-.3 1.3-.6 2.6-1 3.9-.2.1-.4.3-.6.3zM3.1 63.4c-.2 0-.4-.1-.5-.4l-.9-3.9c0-.3.1-.5.4-.6.3 0 .5.1.6.4.2 1.3.5 2.6.8 3.8.1.3-.1.5-.4.6.1.1.1.1 0 .1zm95-6.4c-.3 0-.5-.3-.5-.6.2-1.3.3-2.6.3-3.9 0-.3.2-.5.5-.5s.5.2.5.5c-.1 1.3-.2 2.7-.3 4 0 .3-.2.5-.5.5zM1.7 55.6c-.3 0-.5-.2-.5-.5-.1-1.3-.2-2.7-.2-4 0-.3.2-.5.5-.5s.5.2.5.5c0 1.3.1 2.6.2 3.9.1.3-.1.6-.5.6.1 0 0 0 0 0zM98.4 49c-.3 0-.5-.2-.5-.5l-.3-3.9c0-.3.2-.5.4-.6.3 0 .5.2.6.4.2 1.3.3 2.7.3 4 .1.4-.2.6-.5.6.1 0 .1 0 0 0zM1.6 47.7c-.3 0-.5-.3-.5-.5.1-1.3.2-2.7.4-4 0-.3.3-.5.6-.4.3 0 .5.3.4.6-.2 1.3-.3 2.6-.4 3.9 0 .2-.2.4-.5.4zm95.9-6.5c-.2 0-.4-.2-.5-.4-.3-1.3-.6-2.6-1-3.8-.1-.3.1-.5.3-.6.3-.1.5.1.6.3.4 1.3.7 2.6 1 3.9.1.3-.1.5-.4.6.1 0 0 0 0 0zM2.8 39.8h-.1c-.3-.1-.4-.3-.4-.6.3-1.3.7-2.6 1.1-3.9.1-.2.4-.4.6-.3.3.1.4.4.3.6-.4 1.2-.8 2.5-1.1 3.8 0 .3-.2.4-.4.4zm92.4-6.3c-.2 0-.4-.1-.5-.3-.5-1.2-1-2.4-1.6-3.6-.1-.2 0-.5.2-.7.2-.1.5 0 .7.2.6 1.2 1.1 2.4 1.6 3.7.1.3 0 .5-.3.6.1.1 0 .1-.1.1zM5.3 32.3h-.2c-.3-.1-.4-.4-.3-.7.5-1.2 1.1-2.5 1.7-3.6.1-.2.4-.3.7-.2.2.1.3.4.2.7-.6 1.2-1.2 2.4-1.7 3.6-.1.1-.2.2-.4.2zm86.5-5.9c-.2 0-.3-.1-.4-.2l-2.1-3.3c-.2-.2-.1-.5.1-.7.2-.2.5-.1.7.1.8 1.1 1.5 2.2 2.2 3.4.1.2.1.5-.2.7h-.3zM8.9 25.2c-.1 0-.2 0-.3-.1-.2-.1-.3-.5-.2-.7.7-1.1 1.5-2.2 2.3-3.3.2-.2.5-.3.7-.1.2.2.3.5.1.7-.8 1-1.5 2.1-2.2 3.2 0 .2-.2.3-.4.3zm78.3-5.3c-.1 0-.3-.1-.4-.2-.8-1-1.7-2-2.6-2.9-.2-.2-.2-.5 0-.7.2-.2.5-.2.7 0l2.7 3c.2.2.1.5-.1.7-.1.1-.2.1-.3.1zm-73.5-1c-.1 0-.2 0-.3-.1-.2-.2-.2-.5 0-.7.9-1 1.8-2 2.8-2.9.2-.2.5-.2.7 0 .2.2.2.5 0 .7-.9.9-1.9 1.9-2.7 2.8-.2.1-.4.2-.5.2zm67.9-4.6c-.1 0-.2 0-.3-.1-1-.9-2-1.7-3.1-2.4-.2-.3-.2-.6-.1-.8.2-.2.5-.3.7-.1 1.1.8 2.1 1.6 3.1 2.5.2.2.2.5.1.7-.1.1-.2.2-.4.2zm-62.2-.9c-.1 0-.3-.1-.4-.2-.2-.2-.1-.5.1-.7 1-.8 2.1-1.6 3.2-2.4.2-.2.5-.1.7.1.2.2.1.5-.1.7-1.1.7-2.1 1.5-3.1 2.4-.2 0-.3.1-.4.1zm55.8-3.8c-.1 0-.2 0-.3-.1-1.1-.7-2.3-1.3-3.4-1.9-.2-.1-.3-.4-.2-.7.1-.2.4-.3.7-.2 1.2.6 2.4 1.3 3.5 1.9.2.1.3.5.2.7-.1.2-.3.3-.5.3zM26 8.9c-.2 0-.3-.1-.4-.3-.1-.2-.1-.5.2-.7 1.2-.7 2.4-1.3 3.6-1.8.3-.1.5 0 .7.2.1.3 0 .5-.2.7-1.2.6-2.4 1.2-3.5 1.8-.3.1-.3.1-.4.1zM68.1 6h-.2c-1.2-.5-2.5-.9-3.7-1.3-.2-.1-.4-.4-.3-.7.1-.3.4-.4.6-.3 1.3.4 2.5.8 3.8 1.3.3.1.4.4.3.7-.1.2-.3.3-.5.3zm-34.9-.5c-.2 0-.4-.1-.5-.3-.1-.3 0-.5.3-.6 1.2-.5 2.5-.9 3.8-1.2.3-.1.5.1.6.3.1.3-.1.5-.3.6-1.3.4-2.5.8-3.7 1.2h-.2zm27.3-1.8h-.1c-1.3-.3-2.6-.5-3.9-.7-.3 0-.5-.3-.4-.6 0-.3.3-.5.6-.4 1.3.2 2.6.4 4 .7.2 0 .4.3.3.6 0 .2-.2.4-.5.4zm-19.7-.3c-.2 0-.4-.2-.5-.4-.1-.3.1-.5.4-.6 1.3-.3 2.6-.5 4-.6.3 0 .5.2.6.4s-.2.5-.4.6c-1.4.1-2.7.3-4.1.6.1 0 0 0 0 0zm11.9-.8c-1.3-.1-2.7-.1-4-.1-.3 0-.5-.2-.5-.5s.2-.5.5-.5c1.3 0 2.7 0 4 .1.3 0 .5.3.5.5 0 .3-.3.5-.5.5z" fill="#cecece"/></svg>